<?xml version="1.0" encoding="UTF-8" standalone="no"?>
<svg
   version="1.1"
   viewBox="-5.0 -10.0 110.0 135.0"
   id="svg8"
   sodipodi:docname="pigeon.svg"
   inkscape:version="1.1.2 (0a00cf5339, 2022-02-04)"
   xmlns:inkscape="http://www.inkscape.org/namespaces/inkscape"
   xmlns:sodipodi="http://sodipodi.sourceforge.net/DTD/sodipodi-0.dtd"
   xmlns="http://www.w3.org/2000/svg"
   xmlns:svg="http://www.w3.org/2000/svg">
  <defs
     id="defs12" />
  <sodipodi:namedview
     id="namedview10"
     pagecolor="#ffffff"
     bordercolor="#666666"
     borderopacity="1.0"
     inkscape:pageshadow="2"
     inkscape:pageopacity="0.0"
     inkscape:pagecheckerboard="0"
     showgrid="false"
     inkscape:zoom="6.237037"
     inkscape:cx="61.006532"
     inkscape:cy="82.33076"
     inkscape:window-width="1920"
     inkscape:window-height="1013"
     inkscape:window-x="1920"
     inkscape:window-y="30"
     inkscape:window-maximized="1"
     inkscape:current-layer="svg8" />
  <path
     d="m 83.744789,31.765843 4.0273,-2.2227 4.7227,0.69531 1.3906,0.83203 -1.25,-3.0547 -3.0547,-2.6406 -1.25,-4.582 -5.1406,-2.7773 -7.5,2.6406 -4.582,8.332 -3.75,9.168 -4.7266,8.6094 -7.6406,3.1953 -0.14062,0.14062 -8.8828,7.0781 -6.1094,2.3594 0.41797,0.41797 -6.3906,2.2227 0.41797,1.25 -6.3906,1.9453 0.55469,1.1094 -17.5,8.8906 3.1953,0.27734 -3.6094,0.97266 0.96875,1.668 5.6953,-0.69531 -6.9453,1.8047 -7.2226999,4.168 5.9727,-1.1133 -1.9453,2.0859 25.4179999,-3.6094 1.25,1.8047 8.0547,-0.28125 4.582,1.5273 -0.97266,1.5273 4.4453,7.082 -5.6953,1.25 6.1094,0.55469 c 0.14062,0 0.14062,0 0.27734,0.14062 l 8.6094,3.8906 -3.1953,-2.5 4.4453,1.5273 -3.8906,-2.7773 5.1406,-0.14062 -9.7227,-2.5 -0.41016,-4.1641 2.082,-3.75 4.168,-1.9453 1.9453,6.5273 5.2773,4.3047 -3.332,0.83203 4.4453,0.69531 8.1953,2.7773 -3.4727,-2.082 6.25,0.83203 -3.6094,-1.5273 6.1094,-0.41797 -12.223,-1.8047 -1.9453,-3.4727 0.14062,-5.5547 5.418,-6.1094 6.5273,-4.3047 5.832,-6.5273 2.5,-7.3594 -2.6406,-20.832 z m 4.0273,-2.918 -1.1094,-1.668 3.4727,1.668 0.83203,0.55469 z m 4.7227,0.69531 -1.9453,-1.25 -3.75,-1.668 2.3594,-0.69531 2.7773,2.3594 z m -3.6133,-4.4453 -4.4453,-1.25 -1.25,-1.8047 0.28125,-3.1953 4.3047,2.3594 z m -6.1094,-2.6406 0.97266,1.3906 -1.5273,0.55469 -0.97266,-1.3906 z m -6.668,-1.25 6.8047,-2.3594 -0.27734,3.1953 -2.082,0.97266 1.5273,2.2227 2.2227,-0.69531 4.0273,1.1094 -3.0547,0.97266 0.69531,0.27734 1.3906,2.3594 -3.8906,2.2227 -3.4727,0.97266 0.14062,-3.1953 -4.582,2.5 2.082,-5.418 -5.6953,2.2227 z m -32.082,54.445 -4.0273,-1.25 5,-6.3906 2.082,0.83203 -0.97266,1.1133 2.082,0.69531 z m -30.141,-0.69531 13.055,-2.3594 11.391,1.8047 -10.555,1.668 z m 25.418,-0.69141 z m 0.41797,-0.41797 -3.1953,-2.6406 6.5273,-5.2773 c 0.41797,0.27734 0.83203,0.55469 1.1094,0.69531 l -0.83203,0.69531 1.1094,0.41797 z m -4.8633,-6.3906 -0.97266,0.55469 1.8047,1.9453 -5.6953,0.83203 -0.27734,-1.668 z m 5.418,-4.8594 1.25,1.1094 -5.5547,3.1953 -1.1133,-1.5273 z m 4.7227,-1.9453 3.332,-2.2227 -2.7773,3.4727 -2.918,1.8047 -1.668,-1.3906 z m -10.141,7.5 6.1094,-3.4727 0.41797,0.27734 c 0.41797,0.27734 0.83203,0.41797 1.25,0.69531 l -5.832,4.7227 z m 35,-25.277 7.2227,-4.0273 v 7.082 l -5.2773,11.945 -3.1953,-8.75 -5.1406,-2.082 z m -10.277,29.445 -4.582,0.55469 3.1953,-5.5547 4.4414,-12.641 5.5547,-5 3.0547,8.75 z m 8.3359,-22.918 -5.5547,5 -9.168,12.777 -2.6406,3.6094 -3.4727,-1.1094 3.332,-3.75 5.6953,-10.418 10.418,-6.5273 z m -17.918,16.113 -2.5,2.918 -2.918,-1.3906 3.1953,-2.5 6.9453,-7.5 z m -1.25,5.2773 1.5273,0.41797 -0.55469,0.83203 2.2227,0.14063 -4.3047,5.832 -3.0586,-2.0859 z m 2.082,0.69531 10.695,-15.141 -3.8906,10.832 -2.7773,4.582 z m 9.0273,1.3867 5.9727,-6.9453 -0.27734,12.082 -11.805,5.418 1.25,-9.8594 z m 6.5273,-7.6367 5.5547,-6.5273 0.97266,-2.3594 3.8906,10.277 -10.695,10.973 z m 10.695,-9.168 -0.14063,8.8906 -3.6094,-9.582 3.6094,-8.1953 z m 0,-18.055 -6.668,3.75 4.8594,-9.3047 4.3047,-2.3594 -0.14062,2.5 z m -9.1641,0.27734 3.75,-9.0273 5,-1.9453 -1.9453,4.8594 -5.2773,10.141 -5.6953,3.75 z m -5,9.0273 3.332,1.3906 -10.277,6.25 -8.6133,9.1641 -2.6406,2.082 c -0.41797,-0.27734 -1.8047,-1.1094 -2.6406,-1.5273 l 3.75,-2.2227 9.582,-12.082 z m -16.668,10.418 7.082,-5.6953 -3.8906,5 -4.7227,3.0547 -2.2227,0.97266 -1.3906,-1.25 z m -5.418,2.6367 0.97266,0.83203 -6.3867,3.1953 -0.55859,-1.9453 z m -6.1094,3.4727 0.27734,0.69531 -0.97266,0.55469 1.25,1.668 -5.1406,1.5273 -1.1094,-2.6406 z m -5.2773,4.7227 -0.41797,0.14062 0.41797,2.7773 6.668,-0.97266 v -0.14062 l 0.14062,0.27734 -0.55469,0.41797 3.1953,2.6406 -11.805,-1.9453 -12.641,2.3594 14.445,-7.2227 z m -8.0586,8.0547 -9.582,1.1094 -0.41797,-0.83203 4.4453,-1.1094 6.668,0.55469 z m -10.969,3.332 14.027,-3.4727 3.4727,0.27734 8.6094,-1.3906 -1.3906,1.3906 -28.8869999,5.5586 z m -1.8085999,3.75 1.3906,-1.3906 24.4449999,-4.8594 -2.5,2.5 0.27734,0.41797 z m 24.0269999,-3.75 4.7227,-4.8594 2.082,-0.27734 1.5273,0.41797 0.41797,6.668 -7.3594,0.27734 z m 9.4453,1.9453 -0.41406,-6.3867 2.3594,0.69531 3.75,2.6406 4.8594,-6.5273 1.9453,0.14063 -0.41797,0.69531 -2.918,2.918 -4.582,7.3594 z m 12.777,12.363 1.8047,1.25 -3.7461,-1.25 2.082,1.668 -4.168,-1.9453 c -0.14063,0 -0.27734,-0.14062 -0.41797,-0.14062 l -2.2227,-0.14062 2.082,-0.41797 1.5273,-0.41797 5.5547,1.3906 z m -3.332,-2.0859 -0.97266,0.27734 -4.0273,-6.3906 4.3047,1.8047 z m -0.55469,-4.7227 -4.8594,-2.082 5.5547,-8.8906 2.6406,-2.7773 -1.2539,10.141 z m 19.859,6.668 1.9453,0.83203 -4.582,-0.55469 1.3906,0.97266 -3.4727,-1.1094 -1.5273,-0.27734 0.97266,-0.27734 1.3906,-0.69531 6.668,0.97266 z m -4.3047,-1.668 -0.83203,0.41797 -5.418,-4.4453 -1.668,-5.5547 5.9727,6.25 z m -1.8047,-9.4414 -0.14062,5.2773 -6.1094,-6.3906 7.5,-3.4727 5.9727,-6.1094 -1.8086,4.582 z m 12.082,-10.559 -5.832,3.75 1.8047,-4.7227 4.582,-4.7227 0.14062,-10.555 3.1953,-5 1.8047,14.859 z m 4.7227,-20.414 3.4727,6.9453 -1.9453,5.9727 z m 3.332,5.1367 -3.75,-7.3594 -3.332,5.2773 -0.14062,-16.805 2.3594,-5.1406 3.1953,-1.1094 -0.69531,6.1094 z"
     id="path2" />
</svg>
