<?xml version="1.0" encoding="UTF-8" standalone="no"?>
<svg
   version="1.1"
   viewBox="-5.0 -10.0 110.0 135.0"
   id="svg8"
   sodipodi:docname="pigeon.svg"
   inkscape:version="1.1.2 (0a00cf5339, 2022-02-04)"
   xmlns:inkscape="http://www.inkscape.org/namespaces/inkscape"
   xmlns:sodipodi="http://sodipodi.sourceforge.net/DTD/sodipodi-0.dtd"
   xmlns="http://www.w3.org/2000/svg"
   xmlns:svg="http://www.w3.org/2000/svg">
  <defs
     id="defs12" />
  <sodipodi:namedview
     id="namedview10"
     pagecolor="#ffffff"
     bordercolor="#666666"
     borderopacity="1.0"
     inkscape:pageshadow="2"
     inkscape:pageopacity="0.0"
     inkscape:pagecheckerboard="0"
     showgrid="false"
     inkscape:zoom="8.8205023"
     inkscape:cx="52.094539"
     inkscape:cy="75.789334"
     inkscape:window-width="1920"
     inkscape:window-height="1013"
     inkscape:window-x="1920"
     inkscape:window-y="30"
     inkscape:window-maximized="1"
     inkscape:current-layer="svg8" />
  <g
     id="g42121">
    <path
       d="m 83.744789,31.765843 4.0273,-2.2227 4.7227,0.69531 1.3906,0.83203 -1.25,-3.0547 -3.0547,-2.6406 -1.25,-4.582 -5.1406,-2.7773 -7.5,2.6406 -4.582,8.332 -3.75,9.168 -4.7266,8.6094 -7.6406,3.1953 -0.14062,0.14062 -8.8828,7.0781 -6.1094,2.3594 0.41797,0.41797 -6.3906,2.2227 0.41797,1.25 -6.3906,1.9453 0.55469,1.1094 -17.5,8.8906 3.1953,0.27734 -3.6094,0.97266 0.96875,1.668 5.6953,-0.69531 -6.9453,1.8047 -7.2226999,4.168 5.9727,-1.1133 -1.9453,2.0859 25.4179999,-3.6094 1.25,1.8047 8.0547,-0.28125 4.582,1.5273 -0.97266,1.5273 4.4453,7.082 -5.6953,1.25 6.1094,0.55469 c 0.14062,0 0.14062,0 0.27734,0.14062 l 8.6094,3.8906 -3.1953,-2.5 4.4453,1.5273 -3.8906,-2.7773 5.1406,-0.14062 -9.7227,-2.5 -0.41016,-4.1641 2.082,-3.75 4.168,-1.9453 1.9453,6.5273 5.2773,4.3047 -3.332,0.83203 4.4453,0.69531 8.1953,2.7773 -3.4727,-2.082 6.25,0.83203 -3.6094,-1.5273 6.1094,-0.41797 -12.223,-1.8047 -1.9453,-3.4727 0.14062,-5.5547 5.418,-6.1094 6.5273,-4.3047 5.832,-6.5273 2.5,-7.3594 -2.6406,-20.832 z m 4.0273,-2.918 -1.1094,-1.668 3.4727,1.668 0.83203,0.55469 z m 4.7227,0.69531 -1.9453,-1.25 -3.75,-1.668 2.3594,-0.69531 2.7773,2.3594 z m -3.6133,-4.4453 -4.4453,-1.25 -1.25,-1.8047 0.28125,-3.1953 4.3047,2.3594 z m -6.1094,-2.6406 0.97266,1.3906 -1.5273,0.55469 -0.97266,-1.3906 z m -6.668,-1.25 6.8047,-2.3594 -0.27734,3.1953 -2.082,0.97266 1.5273,2.2227 2.2227,-0.69531 4.0273,1.1094 -3.0547,0.97266 0.69531,0.27734 1.3906,2.3594 -3.8906,2.2227 -3.4727,0.97266 0.14062,-3.1953 -4.582,2.5 2.082,-5.418 -5.6953,2.2227 z m -32.082,54.445 -4.0273,-1.25 5,-6.3906 2.082,0.83203 -0.97266,1.1133 2.082,0.69531 z m -30.141,-0.69531 13.055,-2.3594 11.391,1.8047 -10.555,1.668 z m 25.418,-0.69141 z m 0.41797,-0.41797 -3.1953,-2.6406 6.5273,-5.2773 c 0.41797,0.27734 0.83203,0.55469 1.1094,0.69531 l -0.83203,0.69531 1.1094,0.41797 z m -4.8633,-6.3906 -0.97266,0.55469 1.8047,1.9453 -5.6953,0.83203 -0.27734,-1.668 z m 5.418,-4.8594 1.25,1.1094 -5.5547,3.1953 -1.1133,-1.5273 z m 4.7227,-1.9453 3.332,-2.2227 -2.7773,3.4727 -2.918,1.8047 -1.668,-1.3906 z m -10.141,7.5 6.1094,-3.4727 0.41797,0.27734 c 0.41797,0.27734 0.83203,0.41797 1.25,0.69531 l -5.832,4.7227 z m 35,-25.277 7.2227,-4.0273 v 7.082 l -5.2773,11.945 -3.1953,-8.75 -5.1406,-2.082 z m -10.277,29.445 -4.582,0.55469 3.1953,-5.5547 4.4414,-12.641 5.5547,-5 3.0547,8.75 z m 8.3359,-22.918 -5.5547,5 -9.168,12.777 -2.6406,3.6094 -3.4727,-1.1094 3.332,-3.75 5.6953,-10.418 10.418,-6.5273 z m -17.918,16.113 -2.5,2.918 -2.918,-1.3906 3.1953,-2.5 6.9453,-7.5 z m -1.25,5.2773 1.5273,0.41797 -0.55469,0.83203 2.2227,0.14063 -4.3047,5.832 -3.0586,-2.0859 z m 2.082,0.69531 10.695,-15.141 -3.8906,10.832 -2.7773,4.582 z m 9.0273,1.3867 5.9727,-6.9453 -0.27734,12.082 -11.805,5.418 1.25,-9.8594 z m 6.5273,-7.6367 5.5547,-6.5273 0.97266,-2.3594 3.8906,10.277 -10.695,10.973 z m 10.695,-9.168 -0.14063,8.8906 -3.6094,-9.582 3.6094,-8.1953 z m 0,-18.055 -6.668,3.75 4.8594,-9.3047 4.3047,-2.3594 -0.14062,2.5 z m -9.1641,0.27734 3.75,-9.0273 5,-1.9453 -1.9453,4.8594 -5.2773,10.141 -5.6953,3.75 z m -5,9.0273 3.332,1.3906 -10.277,6.25 -8.6133,9.1641 -2.6406,2.082 c -0.41797,-0.27734 -1.8047,-1.1094 -2.6406,-1.5273 l 3.75,-2.2227 9.582,-12.082 z m -16.668,10.418 7.082,-5.6953 -3.8906,5 -4.7227,3.0547 -2.2227,0.97266 -1.3906,-1.25 z m -5.418,2.6367 0.97266,0.83203 -6.3867,3.1953 -0.55859,-1.9453 z m -6.1094,3.4727 0.27734,0.69531 -0.97266,0.55469 1.25,1.668 -5.1406,1.5273 -1.1094,-2.6406 z m -5.2773,4.7227 -0.41797,0.14062 0.41797,2.7773 6.668,-0.97266 v -0.14062 l 0.14062,0.27734 -0.55469,0.41797 3.1953,2.6406 -11.805,-1.9453 -12.641,2.3594 14.445,-7.2227 z m -8.0586,8.0547 -9.582,1.1094 -0.41797,-0.83203 4.4453,-1.1094 6.668,0.55469 z m -10.969,3.332 14.027,-3.4727 3.4727,0.27734 8.6094,-1.3906 -1.3906,1.3906 -28.8869999,5.5586 z m -1.8085999,3.75 1.3906,-1.3906 24.4449999,-4.8594 -2.5,2.5 0.27734,0.41797 z m 24.0269999,-3.75 4.7227,-4.8594 2.082,-0.27734 1.5273,0.41797 0.41797,6.668 -7.3594,0.27734 z m 9.4453,1.9453 -0.41406,-6.3867 2.3594,0.69531 3.75,2.6406 4.8594,-6.5273 1.9453,0.14063 -0.41797,0.69531 -2.918,2.918 -4.582,7.3594 z m 12.777,12.363 1.8047,1.25 -3.7461,-1.25 2.082,1.668 -4.168,-1.9453 c -0.14063,0 -0.27734,-0.14062 -0.41797,-0.14062 l -2.2227,-0.14062 2.082,-0.41797 1.5273,-0.41797 5.5547,1.3906 z m -3.332,-2.0859 -0.97266,0.27734 -4.0273,-6.3906 4.3047,1.8047 z m -0.55469,-4.7227 -4.8594,-2.082 5.5547,-8.8906 2.6406,-2.7773 -1.2539,10.141 z m 19.859,6.668 1.9453,0.83203 -4.582,-0.55469 1.3906,0.97266 -3.4727,-1.1094 -1.5273,-0.27734 0.97266,-0.27734 1.3906,-0.69531 6.668,0.97266 z m -4.3047,-1.668 -0.83203,0.41797 -5.418,-4.4453 -1.668,-5.5547 5.9727,6.25 z m -1.8047,-9.4414 -0.14062,5.2773 -6.1094,-6.3906 7.5,-3.4727 5.9727,-6.1094 -1.8086,4.582 z m 12.082,-10.559 -5.832,3.75 1.8047,-4.7227 4.582,-4.7227 0.14062,-10.555 3.1953,-5 1.8047,14.859 z m 4.7227,-20.414 3.4727,6.9453 -1.9453,5.9727 z m 3.332,5.1367 -3.75,-7.3594 -3.332,5.2773 -0.14062,-16.805 2.3594,-5.1406 3.1953,-1.1094 -0.69531,6.1094 z"
       id="path2" />
    <path
       style="fill:#bde0fe;stroke-width:0.160333;fill-opacity:1"
       d="m 75.285088,63.444783 c -0.825617,-2.266958 -1.557712,-4.195868 -1.626879,-4.286465 -0.06917,-0.0906 -1.176423,-0.590611 -2.46057,-1.11114 -1.284147,-0.520529 -2.334812,-0.995206 -2.334812,-1.054838 0,-0.232085 6.035538,-4.011988 9.499703,-5.949421 l 3.647565,-2.040004 v 3.420239 3.420239 l -2.56966,5.819282 c -1.413313,3.200605 -2.588688,5.83831 -2.611943,5.861566 -0.02326,0.02326 -0.717788,-1.8125 -1.543404,-4.079458 z"
       id="path954"
       transform="translate(-5,-10)" />
    <path
       style="fill:#bde0fe;fill-opacity:1;stroke-width:0.160333"
       d="m 87.873982,63.099156 c -0.939723,-1.856406 -1.736088,-3.375284 -1.7697,-3.375284 -0.03361,0 -0.770143,1.125539 -1.636735,2.501197 l -1.575623,2.501199 -0.09441,-8.15292 -0.09441,-8.15292 1.158845,-2.565321 1.158845,-2.565321 1.340549,-0.514867 c 1.678184,-0.644545 1.790831,-0.650333 1.680954,-0.08638 -0.04725,0.242503 -0.209341,1.595309 -0.360206,3.006236 l -0.274301,2.56532 1.134955,9.058789 c 0.624226,4.982334 1.113549,9.080562 1.087385,9.107172 -0.02616,0.02661 -0.816435,-1.470495 -1.756157,-3.3269 z"
       id="path1030"
       transform="translate(-5,-10)" />
    <path
       style="fill:#bde0fe;fill-opacity:1;stroke-width:0.160333"
       d="m 77.489701,48.00049 c 3.156071,-6.084099 2.585982,-5.313496 4.863399,-6.573975 l 1.981817,-1.096873 0.04697,1.019835 c 0.04436,0.963242 -0.0203,1.174574 -1.165243,3.808287 l -1.212212,2.788452 -2.987296,1.680099 c -1.643013,0.924054 -3.058937,1.707575 -3.146498,1.741158 -0.08756,0.03358 0.641017,-1.48156 1.619064,-3.366983 z"
       id="path1069"
       transform="translate(-5,-10)" />
    <path
       style="fill:#bde0fe;fill-opacity:1;stroke-width:0.160333"
       d="m 69.183492,55.507381 c 0,-0.02631 0.850609,-1.635873 1.890242,-3.576796 1.270709,-2.37233 2.48782,-4.970982 3.713502,-7.9287 1.002794,-2.419861 1.901814,-4.4813 1.997823,-4.580977 0.224836,-0.233424 4.437124,-1.86262 4.54274,-1.757005 0.200788,0.200788 -2.035988,5.131032 -4.368179,9.628226 l -2.56532,4.946741 -2.531292,1.658178 c -2.354106,1.542108 -2.679516,1.737674 -2.679516,1.610333 z"
       id="path1108"
       transform="translate(-5,-10)" />
    <path
       style="fill:#bde0fe;fill-opacity:1;stroke-width:0.160333"
       d="m 85.157009,40.724466 c 0.05889,-0.837738 0.05813,-1.523159 -0.0017,-1.523159 -0.05982,0 -1.032315,0.505047 -2.161104,1.122327 -1.12879,0.617281 -2.092157,1.122328 -2.140815,1.122328 -0.04866,0 0.344735,-1.121601 0.874207,-2.492448 0.529473,-1.370846 0.922848,-2.532276 0.874168,-2.580956 -0.04868,-0.04868 -1.220085,0.355182 -2.603123,0.89747 -1.383038,0.542289 -2.551556,0.949038 -2.596708,0.903886 -0.04515,-0.04515 0.78479,-1.614365 1.844313,-3.487142 l 1.926406,-3.405048 3.325736,-1.153558 3.325735,-1.153557 -0.101199,0.968222 c -0.05566,0.532522 -0.1012,1.196896 -0.1012,1.476387 0,0.463833 -0.08501,0.548793 -0.974423,0.973896 -0.535934,0.256153 -1.010787,0.524568 -1.055231,0.596479 -0.06186,0.100089 1.347516,2.363733 1.471691,2.363733 0.01472,0 0.446179,-0.1443 0.958795,-0.320665 0.512616,-0.176366 1.069771,-0.320666 1.238123,-0.320666 0.446747,0 3.491687,0.835756 3.491687,0.958377 0,0.05728 -0.577197,0.270928 -1.28266,0.474775 -1.326862,0.383403 -1.540486,0.548314 -0.921913,0.711687 0.325066,0.08585 1.563243,1.910342 1.563243,2.303481 0,0.318447 -3.802753,2.273503 -5.203876,2.675395 -0.789834,0.226553 -1.530824,0.411915 -1.646645,0.411915 -0.166625,0 -0.188234,-0.317952 -0.103516,-1.523159 z"
       id="path1147"
       transform="translate(-5,-10)" />
    <path
       style="fill:#bde0fe;fill-opacity:1;stroke-width:0.160333"
       d="m 85.216746,40.6443 c 0,-0.793647 -0.04721,-1.442993 -0.104911,-1.442993 -0.0577,0 -0.995646,0.46493 -2.084323,1.033178 -1.088676,0.568248 -1.980597,0.983108 -1.982047,0.921912 -0.0014,-0.0612 0.370989,-1.139734 0.827639,-2.396752 0.45665,-1.257016 0.782715,-2.333043 0.724588,-2.391169 -0.08617,-0.08617 -1.393,0.361597 -4.903766,1.680223 -0.238782,0.08969 0.972768,-2.258119 2.622202,-5.081438 l 0.972471,-1.664569 2.966152,-1.021874 c 1.631384,-0.562031 3.076729,-1.05744 3.211877,-1.10091 0.209183,-0.06728 0.236256,0.09379 0.182051,1.083118 -0.03502,0.639184 -0.130151,1.288512 -0.211399,1.442951 -0.08125,0.154439 -0.500776,0.459703 -0.932283,0.678364 -0.431508,0.218662 -0.831097,0.472865 -0.887976,0.564898 -0.109721,0.177532 1.189024,2.404087 1.402299,2.404087 0.06901,0 0.616181,-0.135982 1.215931,-0.302181 l 1.090456,-0.302181 1.432752,0.37681 c 0.788014,0.207245 1.486865,0.379301 1.553002,0.382347 0.06614,0.003 0.12025,0.06349 0.12025,0.134311 0,0.07082 -0.505048,0.291435 -1.122328,0.490244 -1.175684,0.378654 -1.33267,0.539789 -0.802383,0.82359 0.387561,0.207416 1.443713,1.739329 1.443713,2.094058 0,0.433826 -3.415313,2.224605 -5.323333,2.791226 -1.437194,0.426801 -1.410634,0.449344 -1.410634,-1.19725 z"
       id="path1186"
       transform="translate(-5,-10)" />
    <path
       style="fill:#bde0fe;fill-opacity:1;stroke-width:0.160333"
       d="m 91.327713,34.299757 c -1.004022,-0.2969 -1.83821,-0.560092 -1.853751,-0.584871 -0.01554,-0.02478 -0.292891,-0.413478 -0.616334,-0.863777 l -0.588076,-0.818725 0.09971,-1.293005 c 0.05484,-0.711153 0.149689,-1.373874 0.210775,-1.472713 0.07347,-0.11888 0.789144,0.188088 2.114353,0.906894 l 2.003288,1.086602 0.437836,1.577631 c 0.240809,0.867697 0.477285,1.680434 0.5255,1.806083 0.12614,0.328715 -0.241197,0.274539 -2.333301,-0.344119 z"
       id="path1264"
       transform="translate(-5,-10)" />
    <path
       style="fill:#bde0fe;fill-opacity:1;stroke-width:0.0801663"
       d="m 94.17492,39.052119 -1.383276,-0.251644 -0.446703,-0.668536 c -0.245687,-0.367695 -0.429497,-0.685744 -0.408466,-0.706774 0.0866,-0.0866 3.74197,1.737153 3.74197,1.866961 0,0.03649 0.133739,0.05784 -1.503525,-0.240007 z"
       id="path1303"
       transform="translate(-5,-10)" />
    <path
       style="fill:#bde0fe;fill-opacity:1;stroke-width:0.0801663"
       d="m 96.520191,38.855953 c -0.517317,-0.340078 -1.472376,-0.828095 -2.692616,-1.375876 l -1.890953,-0.848872 1.103756,-0.324505 1.103756,-0.324504 1.377659,1.171154 c 1.276361,1.085041 1.394719,1.208737 1.609672,1.682271 0.127608,0.281113 0.222648,0.519265 0.211201,0.529225 -0.01145,0.01 -0.381561,-0.219041 -0.822475,-0.508893 z"
       id="path1342"
       transform="translate(-5,-10)" />
    <path
       style="fill:#bde0fe;fill-opacity:1;stroke-width:0.0801663"
       d="m 76.117875,85.994831 c 0,-0.03279 0.378645,-1.049941 0.841434,-2.260346 l 0.841434,-2.200736 0.508278,-0.523406 c 0.279553,-0.287874 1.30393,-1.345337 2.276394,-2.349919 l 1.768117,-1.826513 0.04682,-1.54047 c 0.02575,-0.847259 0.06783,-3.235161 0.09351,-5.306448 l 0.04669,-3.765976 1.553929,-2.432171 c 1.472558,-2.304811 1.556266,-2.418251 1.598572,-2.166328 0.115631,0.688558 1.734836,14.279824 1.713036,14.378852 -0.01367,0.06208 -1.287468,1.530419 -2.830669,3.262971 l -2.805819,3.150094 -1.442993,0.930121 c -3.746744,2.415068 -4.208729,2.705985 -4.208729,2.650275 z"
       id="path1381"
       transform="translate(-5,-10)" />
    <path
       style="fill:#bde0fe;fill-opacity:1;stroke-width:0.0801663"
       d="m 80.113086,69.991326 -1.736676,-4.611041 1.736676,-3.941859 1.736677,-3.941858 0.05928,1.153735 c 0.07704,1.499407 0.07704,13.316261 0,14.805869 l -0.05928,1.146196 z"
       id="path1420"
       transform="translate(-5,-10)" />
    <path
       style="fill:#bde0fe;fill-opacity:1;stroke-width:0.0801663"
       d="m 60.164787,82.723342 c 0,-0.02658 0.696636,-1.262146 1.548082,-2.745695 l 1.548082,-2.697361 2.199691,-6.277941 2.199691,-6.277942 2.667509,-2.403333 c 1.46713,-1.321834 2.71235,-2.420541 2.767157,-2.441573 0.06859,-0.02632 0.559298,1.278376 1.574622,4.186647 0.811236,2.323687 1.474975,4.264068 1.474975,4.311958 0,0.06533 -11.036503,13.294906 -11.51979,13.808896 -0.05212,0.05543 -0.939182,0.200911 -2.077439,0.340706 -2.044031,0.251039 -2.38258,0.278838 -2.38258,0.195638 z"
       id="path1459"
       transform="translate(-5,-10)" />
    <path
       style="fill:#bde0fe;fill-opacity:1;stroke-width:0.0801663"
       d="m 53.771526,80.180974 c -0.84876,-0.270928 -1.5432,-0.515814 -1.5432,-0.544194 0,-0.02838 0.718996,-0.858798 1.597769,-1.845376 l 1.59777,-1.793779 2.85491,-5.222094 2.85491,-5.222095 5.026982,-3.14914 c 2.76484,-1.732027 5.104016,-3.198436 5.198169,-3.258688 0.14844,-0.09499 0.252461,-0.08564 0.782829,0.0704 0.336404,0.09897 0.602081,0.208208 0.590394,0.242747 -0.01169,0.03454 -1.235074,1.15449 -2.718636,2.48878 l -2.697384,2.425982 -4.226005,5.892221 c -6.140527,8.561596 -7.507556,10.422595 -7.650315,10.414723 -0.06875,-0.0038 -0.819432,-0.228559 -1.668193,-0.499487 z"
       id="path1498"
       transform="translate(-5,-10)" />
    <path
       style="fill:#bde0fe;fill-opacity:1;stroke-width:0.0801663"
       d="m 48.981592,75.708154 c -0.352732,-0.218169 -0.884835,-0.52946 -1.182453,-0.691758 -0.297617,-0.162299 -0.541122,-0.317642 -0.541122,-0.34521 0,-0.02757 0.808227,-0.526525 1.79606,-1.108796 l 1.79606,-1.058673 4.717449,-5.944719 c 2.594597,-3.269596 4.753525,-5.991181 4.797616,-6.047969 0.082,-0.105613 7.273229,-3.069506 7.501142,-3.091625 0.133836,-0.01299 3.198999,1.234446 3.200196,1.30239 4.01e-4,0.02204 -2.280992,1.428097 -5.069734,3.124559 l -5.07044,3.084477 -4.314901,4.590247 c -4.062865,4.322128 -4.389404,4.648849 -5.590391,5.593522 -0.701519,0.551802 -1.303088,1.000339 -1.336821,0.996751 -0.03373,-0.0036 -0.34993,-0.185027 -0.702661,-0.403196 z"
       id="path1537"
       transform="translate(-5,-10)" />
    <path
       style="fill:#bde0fe;fill-opacity:1;stroke-width:0.0801663"
       d="m 88.030041,74.432091 c -0.09559,-0.571693 -1.418237,-11.961353 -1.39207,-11.987519 0.01499,-0.01499 0.763745,1.447107 1.663891,3.249114 l 1.63663,3.276376 -0.379091,1.18896 c -1.231493,3.862385 -1.481316,4.560396 -1.52936,4.273069 z"
       id="path1576"
       transform="translate(-5,-10)" />
    <path
       style="fill:#bde0fe;fill-opacity:1;stroke-width:0.0801663"
       d="m 71.174972,85.918201 c 0.02792,-0.826714 0.09347,-3.559295 0.145666,-6.072401 l 0.09491,-4.569283 2.782644,-3.271563 2.782644,-3.271563 0.463987,-1.130263 c 0.403812,-0.983678 0.47322,-1.105246 0.535176,-0.937361 0.03915,0.106097 0.902191,2.387353 1.917862,5.069457 l 1.846673,4.876554 -1.031285,1.055751 c -0.567207,0.580662 -2.938592,3.012809 -5.269744,5.40477 -2.331152,2.391961 -4.256645,4.34902 -4.278873,4.34902 -0.02223,0 -0.01757,-0.676403 0.01034,-1.503118 z"
       id="path1615"
       transform="translate(-5,-10)" />
    <path
       style="fill:#bde0fe;fill-opacity:1;stroke-width:0.0801663"
       d="m 57.702496,81.585266 c -1.245509,-0.08441 -1.764698,-0.147145 -1.727058,-0.20868 0.24462,-0.399914 10.228663,-14.477711 10.251481,-14.454893 0.01638,0.01638 -0.783828,2.299646 -1.77823,5.073934 l -1.808003,5.04416 -1.410649,2.344863 c -1.162567,1.93249 -1.440194,2.342793 -1.578656,2.333087 -0.0924,-0.0065 -0.969402,-0.06609 -1.948885,-0.132471 z"
       id="path1654"
       transform="translate(-5,-10)" />
    <path
       style="fill:#bde0fe;fill-opacity:1;stroke-width:0.0801663"
       d="m 58.80196,93.323397 c 0,-0.0144 0.270561,-2.155733 0.601247,-4.758522 0.330686,-2.60279 0.601247,-4.782769 0.601247,-4.844398 0,-0.0853 0.454672,-0.176032 1.903949,-0.379966 1.047172,-0.147352 2.145614,-0.30363 2.440983,-0.347286 l 0.537034,-0.07937 2.910115,-3.384878 2.910116,-3.384877 0.02416,0.688343 c 0.03763,1.072399 -0.218908,11.097087 -0.2855,11.156289 -0.04614,0.04102 -5.848177,2.713503 -11.062142,5.09534 -0.319663,0.146028 -0.581205,0.253726 -0.581205,0.239328 z"
       id="path1693"
       transform="translate(-5,-10)" />
    <path
       style="fill:#bde0fe;fill-opacity:1;stroke-width:0.0801663"
       d="m 53.510986,96.355054 c -1.256606,-0.545347 -2.278131,-1.02167 -2.270056,-1.058497 0.0081,-0.03683 1.237389,-2.02303 2.731808,-4.413784 l 2.717125,-4.346826 1.236422,-1.309341 c 0.790107,-0.836704 1.244325,-1.262899 1.258314,-1.180681 0.01204,0.07076 -0.248081,2.299419 -0.578048,4.952569 l -0.599939,4.823909 -1.022934,1.769767 c -0.562614,0.973372 -1.060064,1.766315 -1.105444,1.762095 -0.04538,-0.0042 -1.110642,-0.453865 -2.367248,-0.999211 z"
       id="path1732"
       transform="translate(-5,-10)" />
    <path
       style="fill:#bde0fe;fill-opacity:1;stroke-width:0.0801663"
       d="m 51.186164,86.970799 c -0.727509,-0.505399 -1.371813,-0.948137 -1.431787,-0.983863 -0.155994,-0.09292 3.959418,-5.160476 4.14675,-5.106141 0.07202,0.02089 0.347389,0.0966 0.611937,0.168255 0.264549,0.07165 0.528079,0.145475 0.585622,0.16405 0.07404,0.0239 0.03008,0.142125 -0.150384,0.404415 -0.181324,0.263546 -0.227335,0.387745 -0.159235,0.429833 0.05268,0.03256 0.514698,0.08312 1.026717,0.112361 0.512019,0.02924 0.945039,0.06727 0.962267,0.08449 0.0517,0.0517 -4.102187,5.653909 -4.188977,5.649539 -0.04409,-0.0022 -0.675401,-0.417546 -1.40291,-0.922944 z"
       id="path1771"
       transform="translate(-5,-10)" />
    <path
       style="fill:#bde0fe;fill-opacity:1;stroke-width:0.0801663"
       d="m 46.992417,84.98412 c -1.005863,-0.317072 -1.826083,-0.610891 -1.82271,-0.652932 0.0034,-0.04204 1.094685,-1.468706 2.42514,-3.170369 l 2.419008,-3.093932 0.98826,0.39802 0.988261,0.398019 -0.442189,0.50366 c -0.243204,0.277013 -0.442189,0.535873 -0.442189,0.575244 0,0.03937 0.432898,0.212519 0.961995,0.384774 0.529098,0.172255 0.961995,0.342854 0.961995,0.37911 0,0.124815 -4.011875,4.87177 -4.110238,4.863341 -0.05417,-0.0046 -0.92147,-0.267863 -1.927333,-0.584935 z"
       id="path1810"
       transform="translate(-5,-10)" />
    <path
       style="fill:#bde0fe;fill-opacity:1;stroke-width:0.0801663"
       d="m 52.108076,78.196142 c -0.176365,-0.08572 -0.797472,-0.38309 -1.380236,-0.660815 L 49.668269,77.030371 51.1959,75.840195 c 1.644226,-1.281016 1.591975,-1.228806 5.961021,-5.956288 1.145482,-1.239456 2.096513,-2.239737 2.113403,-2.222846 0.01689,0.01689 -0.949558,1.788139 -2.147664,3.936108 l -2.178375,3.905397 -1.208068,1.409941 c -0.664438,0.775467 -1.230435,1.41659 -1.257772,1.424718 -0.02734,0.0081 -0.194003,-0.05536 -0.370369,-0.141083 z"
       id="path1849"
       transform="translate(-5,-10)" />
    <path
       style="fill:#bde0fe;fill-opacity:1;stroke-width:0.0801663"
       d="m 46.897269,73.028066 c -0.396823,-0.330615 -0.731573,-0.63061 -0.743888,-0.666654 -0.01232,-0.03605 0.857099,-0.428037 1.932033,-0.871094 1.864054,-0.768311 2.022122,-0.850792 3.418474,-1.78378 0.805227,-0.538021 1.450954,-0.944783 1.43495,-0.903915 -0.016,0.04087 -0.567962,0.747808 -1.226573,1.570979 l -1.197474,1.496674 -1.428177,0.881222 c -0.785497,0.484672 -1.437103,0.880427 -1.448013,0.879455 -0.01091,-9.72e-4 -0.344509,-0.272271 -0.741332,-0.602887 z"
       id="path1888"
       transform="translate(-5,-10)" />
    <path
       style="fill:#bde0fe;fill-opacity:1;stroke-width:0.0801663"
       d="m 46.82833,70.404933 -0.630103,-0.580111 2.540547,-1.02528 2.540546,-1.025281 3.245684,-2.61016 c 1.785125,-1.435588 3.257596,-2.597578 3.272156,-2.582201 0.01456,0.01538 -0.743427,1.017765 -1.684414,2.227529 L 54.40186,67.009 52.052474,68.527563 c -1.837456,1.18767 -2.583308,1.621097 -3.42292,1.989117 -0.590444,0.258804 -1.095492,0.47006 -1.122328,0.469458 -0.02684,-6.41e-4 -0.33234,-0.262144 -0.678896,-0.581205 z"
       id="path1927"
       transform="translate(-5,-10)" />
    <path
       style="fill:#bde0fe;fill-opacity:1;stroke-width:0.0801663"
       d="m 40.418339,74.213926 c -0.06034,-0.103628 -0.455453,-1.527779 -0.455453,-1.641628 0,-0.07046 1.024946,-0.464476 2.931725,-1.127021 l 2.931725,-1.018681 0.438593,0.378653 0.438593,0.378654 -3.069695,1.540713 c -1.688331,0.847392 -3.094621,1.542675 -3.125087,1.545074 -0.03047,0.0024 -0.07115,-0.0227 -0.0904,-0.05576 z"
       id="path1966"
       transform="translate(-5,-10)" />
    <path
       style="fill:#bde0fe;fill-opacity:1;stroke-width:0.0801663"
       d="m 40.496958,76.183134 c -0.257404,-0.357531 -0.482292,-0.689833 -0.499752,-0.738448 -0.01749,-0.0487 1.158295,-0.694333 2.618578,-1.437876 l 2.650325,-1.349485 0.529877,0.472335 c 0.291433,0.259784 0.540108,0.506304 0.552613,0.547822 0.01651,0.05482 -5.021619,3.016361 -5.339596,3.138757 -0.02422,0.0093 -0.254641,-0.275574 -0.512045,-0.633105 z"
       id="path2005"
       transform="translate(-5,-10)" />
    <path
       style="fill:#bde0fe;fill-opacity:1;stroke-width:0.0801663"
       d="m 40.855708,79.233465 c -0.501005,-0.57488 -0.879791,-1.072721 -0.841746,-1.106313 0.06135,-0.05417 5.341308,-3.053165 5.771412,-3.278138 0.14433,-0.0755 0.268428,-0.03466 0.801662,0.263801 0.346994,0.194218 0.698076,0.401602 0.780183,0.460855 0.136405,0.09844 -0.09379,0.304657 -2.668141,2.390249 -1.549584,1.255385 -2.843306,2.289778 -2.874938,2.298651 -0.03163,0.0089 -0.467426,-0.454224 -0.968432,-1.029105 z"
       id="path2044"
       transform="translate(-5,-10)" />
    <path
       style="fill:#bde0fe;fill-opacity:1;stroke-width:0.0801663"
       d="m 43.128125,82.470329 -1.524489,-1.261896 3.196926,-2.585362 c 1.758308,-1.42195 3.227738,-2.585363 3.265399,-2.585363 0.03766,0 0.279577,0.136442 0.537591,0.303204 l 0.469115,0.303204 -0.386244,0.311173 c -0.212435,0.171144 -0.386245,0.334667 -0.386245,0.363384 0,0.02872 0.234133,0.134867 0.520296,0.235891 0.364946,0.128837 0.502577,0.213571 0.460956,0.283793 -0.137528,0.232026 -4.540066,5.89525 -4.582401,5.894591 -0.02553,-4.01e-4 -0.732436,-0.568576 -1.570904,-1.262619 z"
       id="path2083"
       transform="translate(-5,-10)" />
    <path
       style="fill:#bde0fe;fill-opacity:1;stroke-width:0.0801663"
       d="m 34.904521,80.024638 c -0.06101,-0.407107 -0.111244,-0.771896 -0.11164,-0.81064 -7e-4,-0.0686 3.973142,-1.400181 4.203291,-1.408471 0.08166,-0.0029 0.0711,0.02833 -0.03603,0.106664 -0.141991,0.103827 -0.09507,0.170905 0.74299,1.062203 0.492004,0.523258 0.850929,0.960094 0.797612,0.970746 -0.05332,0.01065 -1.233297,0.181671 -2.622178,0.380042 -1.38888,0.198371 -2.601261,0.378444 -2.694179,0.400163 -0.156852,0.03666 -0.17688,-0.01348 -0.279863,-0.700707 z"
       id="path2122"
       transform="translate(-5,-10)" />
    <path
       style="fill:#bde0fe;fill-opacity:1;stroke-width:0.0801663"
       d="m 34.983396,77.821408 c -0.432614,-1.005609 -0.879797,-2.123692 -0.857457,-2.143886 0.01369,-0.01237 1.269474,-0.416389 2.790629,-0.897808 l 2.765736,-0.875307 0.100208,0.234109 c 0.15434,0.360573 0.131467,0.404878 -0.340426,0.659427 -0.242349,0.130728 -0.440761,0.266484 -0.440915,0.30168 -1.52e-4,0.0352 0.268141,0.418433 0.596211,0.851638 l 0.59649,0.787646 -2.460356,0.731867 c -1.353196,0.402527 -2.488695,0.731768 -2.52333,0.731646 -0.03464,-1.22e-4 -0.136691,-0.171578 -0.22679,-0.381012 z"
       id="path2161"
       transform="translate(-5,-10)" />
    <path
       style="fill:#bde0fe;fill-opacity:1;stroke-width:0.0801663"
       d="m 26.846287,80.477118 c 3.830778,-1.918524 6.992516,-3.458737 7.026084,-3.422696 0.05295,0.05686 0.478876,1.383321 0.478876,1.491385 0,0.02191 -0.08388,0.06089 -0.186406,0.08662 l -0.186405,0.04678 0.204586,1.404899 c 0.203267,1.395842 0.20589,1.404885 0.406863,1.402703 0.111252,-0.0012 1.636251,-0.2121 3.388886,-0.468648 1.752635,-0.256549 3.186609,-0.44758 3.186609,-0.424515 0,0.02307 -0.117243,0.141039 -0.26054,0.262164 -0.310265,0.262259 -0.464749,0.08174 1.336979,1.562306 0.772984,0.635198 1.30507,1.125142 1.236312,1.138395 -0.06639,0.0128 -2.310565,-0.338363 -4.987055,-0.780354 -2.67649,-0.441992 -5.21865,-0.859633 -5.649243,-0.92809 l -0.782899,-0.124469 -6.017817,1.125281 c -3.3098,0.618904 -6.049782,1.123294 -6.08885,1.120867 -0.03907,-0.0024 3.063241,-1.574114 6.89402,-3.492638 z"
       id="path2200"
       transform="translate(-5,-10)" />
    <path
       style="fill:#bde0fe;fill-opacity:1;stroke-width:0.0801663"
       d="m 26.117076,85.501341 c -3.624919,-0.292946 -6.607275,-0.54914 -6.627456,-0.569321 -0.02018,-0.02018 2.776716,-0.544043 6.215327,-1.164137 l 6.25202,-1.127444 5.425911,0.864703 c 2.984251,0.475586 5.480023,0.869201 5.54616,0.874701 0.06614,0.0055 -2.116389,0.365581 -4.850059,0.800182 -2.73367,0.4346 -5.060496,0.804529 -5.170725,0.822063 -0.110228,0.01753 -3.166259,-0.207802 -6.791178,-0.500747 z"
       id="path2239"
       transform="translate(-5,-10)" />
    <path
       style="fill:#bde0fe;fill-opacity:1;stroke-width:0.0801663"
       d="m 11.784442,92.092095 c 0.04409,-0.04273 0.88304,-0.530913 1.86433,-1.084859 l 1.784165,-1.007175 7.014494,-1.738812 7.014495,-1.738812 1.743206,0.13922 1.743206,0.13922 4.0697,-0.658034 c 2.238335,-0.361919 4.105844,-0.645986 4.150021,-0.631261 0.04418,0.01473 -0.199897,0.300176 -0.542384,0.634335 l -0.622706,0.60756 -13.908848,2.673211 c -7.649866,1.470266 -14.017072,2.688933 -14.149347,2.70815 -0.156314,0.02271 -0.212437,0.0077 -0.160332,-0.04274 z"
       id="path2278"
       transform="translate(-5,-10)" />
    <path
       style="fill:#bde0fe;fill-opacity:1;stroke-width:0.0801663"
       d="m 14.430536,92.963465 0.640723,-0.630656 11.987307,-2.375579 c 6.593019,-1.306568 12.039866,-2.375579 12.104105,-2.375579 0.06424,0 -0.418672,0.536363 -1.073133,1.191918 -1.104247,1.10609 -1.183081,1.20472 -1.09479,1.369693 0.05233,0.09778 0.0832,0.187086 0.06861,0.198466 -0.01459,0.01138 -1.866353,0.279685 -4.115016,0.596232 -2.248664,0.316547 -7.406117,1.04368 -11.461008,1.615851 -4.05489,0.572171 -7.44565,1.040311 -7.535022,1.040311 -0.122689,0 -0.0055,-0.154491 0.478228,-0.630657 z"
       id="path2317"
       transform="translate(-5,-10)" />
    <path
       style="fill:#bde0fe;fill-opacity:1;stroke-width:0.0801663"
       d="m 38.371128,91.068404 -0.669845,-1.09223 0.589532,-0.616056 c 0.324243,-0.338831 1.383245,-1.430339 2.353337,-2.425574 l 1.763806,-1.809518 1.01057,-0.13011 1.010571,-0.13011 0.704002,0.19369 c 0.387201,0.106529 0.725525,0.215213 0.751831,0.24152 0.05087,0.05087 0.399434,5.273721 0.406755,6.094693 l 0.0043,0.486158 -2.865945,0.09778 c -1.576269,0.05378 -3.208655,0.116729 -3.627523,0.139884 l -0.76158,0.0421 z"
       id="path2356"
       transform="translate(-5,-10)" />
    <path
       style="fill:#bde0fe;fill-opacity:1;stroke-width:0.0801663"
       d="m 49.302257,92.614823 c -1.190469,-0.399379 -2.169874,-0.730223 -2.176456,-0.735209 -0.0203,-0.01538 -0.419617,-6.258006 -0.401465,-6.276158 0.0094,-0.0094 0.521105,0.130878 1.137159,0.311694 l 1.120097,0.328755 1.860937,1.310204 c 1.023515,0.720611 1.889311,1.309816 1.92399,1.309343 0.03468,-4.72e-4 1.145298,-1.461577 2.468042,-3.246899 l 2.404988,-3.246041 0.841746,0.04976 c 0.46296,0.02737 0.871871,0.07741 0.908692,0.111203 0.132405,0.121512 -0.35694,0.704731 -1.748579,2.084019 l -1.415472,1.40291 -2.287743,3.667607 c -1.258258,2.017184 -2.329076,3.664759 -2.379595,3.661278 -0.05052,-0.0035 -1.065872,-0.333093 -2.256341,-0.732471 z"
       id="path2395"
       transform="translate(-5,-10)" />
    <path
       style="fill:#bde0fe;fill-opacity:1;stroke-width:0.0801663"
       d="m 66.558047,95.065314 c -1.620361,-1.694645 -2.944885,-3.106731 -2.943388,-3.137969 0.0015,-0.03124 1.669958,-0.826429 3.70769,-1.767089 l 3.704967,-1.710292 2.840983,-2.91755 c 1.562541,-1.604652 2.850985,-2.907548 2.863209,-2.895324 0.01222,0.01222 -0.355938,0.976433 -0.818138,2.142687 l -0.840363,2.120461 -2.696489,3.038372 -2.696489,3.038371 -0.06775,2.412935 c -0.03726,1.327114 -0.07684,2.490253 -0.08794,2.584753 -0.01576,0.134164 -0.665819,-0.503419 -2.966292,-2.909355 z"
       id="path2434"
       transform="translate(-5,-10)" />
    <path
       style="fill:#bde0fe;fill-opacity:1;stroke-width:0.0801663"
       d="m 53.64345,99.355404 c -1.051477,-1.675683 -1.895579,-3.062894 -1.875783,-3.08269 0.0198,-0.0198 0.932649,0.339564 2.028561,0.798577 l 1.992568,0.83457 0.300064,1.872486 c 0.165036,1.029863 0.320446,1.983863 0.345357,2.119983 0.04723,0.25806 0.0046,0.28467 -0.758742,0.47395 -0.08369,0.0208 -0.70147,-0.89644 -2.032025,-3.016876 z"
       id="path2473"
       transform="translate(-5,-10)" />
    <path
       style="fill:#bde0fe;fill-opacity:1;stroke-width:0.0801663"
       d="m 68.089652,100.67799 c -1.426595,-1.168729 -2.63791,-2.167786 -2.691812,-2.220128 -0.105748,-0.102685 -1.655554,-5.181145 -1.598541,-5.238157 0.01892,-0.01892 1.31924,1.312273 2.889604,2.958204 l 2.855207,2.992602 0.921977,1.579389 c 0.507088,0.86867 0.921978,1.60895 0.921978,1.64506 0,0.0361 -0.158536,0.14269 -0.352303,0.23683 l -0.352302,0.17116 z"
       id="path2512"
       transform="translate(-5,-10)" />
    <path
       style="fill:#bde0fe;fill-opacity:1;stroke-width:0.0801663"
       d="m 57.559383,104.74781 c -2.024066,-0.94455 -2.097479,-0.97098 -2.717575,-0.97851 -0.268992,-0.003 -0.651413,-0.0306 -0.849824,-0.0608 -0.354565,-0.0539 -0.347008,-0.0575 0.440914,-0.20671 0.440915,-0.0835 1.153933,-0.25004 1.584485,-0.37003 l 0.782823,-0.21818 2.624244,0.66281 2.624244,0.6628 -1.122328,0.0286 -1.122328,0.0286 0.702252,0.47352 c 0.386239,0.26044 0.690361,0.48541 0.675828,0.49994 -0.01453,0.0145 -0.726849,-0.20774 -1.582924,-0.49394 -0.856074,-0.28621 -1.5899,-0.50924 -1.630725,-0.49563 -0.04082,0.0136 0.211178,0.25413 0.560006,0.5345 0.788955,0.63413 0.888544,0.72488 0.791703,0.72145 -0.04252,-0.001 -0.834875,-0.35626 -1.760795,-0.78835 z"
       id="path2551"
       transform="translate(-5,-10)" />
    <path
       style="fill:#60b4fd;fill-opacity:1;stroke-width:0.0801663"
       d="m 72.710808,104.72588 c -0.661372,-0.21923 -1.599317,-0.48014 -2.084323,-0.5798 l -0.881829,-0.18119 0.388612,-0.0979 c 0.213736,-0.0539 0.708552,-0.25863 1.09959,-0.45502 l 0.71098,-0.35708 3.024093,0.44217 c 1.663252,0.24319 3.04132,0.45939 3.062375,0.48045 0.02106,0.0211 -0.301424,0.0414 -0.716618,0.0453 -0.415194,0.004 -0.935273,0.0313 -1.15573,0.0609 l -0.400832,0.0539 0.751828,0.31987 c 0.413506,0.17593 0.684067,0.32928 0.601247,0.34078 -0.08282,0.0115 -0.998339,-0.0828 -2.034488,-0.20953 -1.036149,-0.12675 -1.901644,-0.21462 -1.923323,-0.19527 -0.02168,0.0193 0.0144,0.0659 0.08017,0.1035 0.345869,0.19762 0.904565,0.64023 0.800738,0.63436 -0.066,-0.004 -0.661115,-0.18616 -1.322487,-0.4054 z"
       id="path2590"
       transform="translate(-5,-10)" />
    <path
       style="fill:#60b4fd;fill-opacity:1;stroke-width:0.0801663"
       d="m 58.886965,93.048588 c 0.0027,-0.118825 0.26495,-2.270211 0.582864,-4.780857 l 0.578025,-4.564811 0.238841,-0.06149 c 0.131362,-0.03382 1.227903,-0.205218 2.436758,-0.380888 2.065344,-0.300135 2.207991,-0.33162 2.364905,-0.52199 0.09184,-0.111424 1.375493,-1.606477 2.852557,-3.32234 l 2.68557,-3.119751 0.02602,1.333657 c 0.02665,1.366016 -0.108905,7.836647 -0.197837,9.44343 l -0.04952,0.894807 -0.891408,0.41718 c -1.06335,0.497649 -9.607742,4.423933 -10.210737,4.691996 l -0.420873,0.187101 z"
       id="path2666"
       transform="translate(-5,-10)" />
    <path
       style="fill:#60b4fd;fill-opacity:1;stroke-width:0.0801663"
       d="m 54.472981,96.731102 c -2.183038,-0.949681 -3.126484,-1.390769 -3.126484,-1.461718 0,-0.08973 0.209815,-0.432809 3.027808,-4.950973 l 2.36807,-3.796791 1.170083,-1.204667 c 0.721434,-0.742756 1.179229,-1.158422 1.193934,-1.084058 0.02091,0.105755 -0.425341,3.926419 -0.952939,8.158733 l -0.174887,1.402909 -0.763916,1.322744 c -0.928388,1.60753 -1.293163,2.166095 -1.410234,2.159432 -0.04887,-0.0028 -0.648017,-0.248306 -1.331435,-0.545611 z"
       id="path2705"
       transform="translate(-5,-10)" />
    <path
       style="fill:#60b4fd;fill-opacity:1;stroke-width:0.0801663"
       d="m 49.28652,92.574321 -2.10006,-0.696146 -0.04224,-0.284396 c -0.06989,-0.470518 -0.392601,-5.857269 -0.353255,-5.896615 0.02006,-0.02006 0.503123,0.09552 1.07347,0.256841 l 1.036994,0.293316 1.836347,1.279203 c 1.009991,0.703562 1.897215,1.29512 1.971609,1.314575 0.100923,0.02639 0.743897,-0.782203 2.532715,-3.185106 l 2.397453,-3.220476 0.826684,0.03945 c 0.454676,0.0217 0.845403,0.05817 0.868283,0.08105 0.101303,0.101304 -0.250778,0.513452 -1.656611,1.939238 l -1.501843,1.523159 -1.826651,2.926069 c -2.181436,3.494392 -2.734238,4.329471 -2.864691,4.327484 -0.05398,-8.25e-4 -1.043167,-0.31476 -2.1982,-0.697641 z"
       id="path2744"
       transform="translate(-5,-10)" />
    <path
       style="fill:#60b4fd;fill-opacity:1;stroke-width:0.0801663"
       d="m 38.896563,91.85122 c -0.868396,-1.396322 -1.104112,-1.813622 -1.071883,-1.89761 0.07944,-0.207024 4.571812,-4.766561 4.733113,-4.80388 0.09396,-0.02174 0.554964,-0.08503 1.024461,-0.140651 0.773135,-0.09159 0.905426,-0.08726 1.402909,0.04592 0.923587,0.247252 0.881257,0.202557 0.938886,0.99135 0.07201,0.985692 0.274951,4.164883 0.321416,5.035249 l 0.0392,0.734211 -0.816024,0.04631 c -0.448813,0.02547 -1.934343,0.08397 -3.301178,0.13001 -1.366835,0.04604 -2.61978,0.100965 -2.784322,0.122065 -0.275771,0.03536 -0.313822,0.0148 -0.486574,-0.262974 z"
       id="path2783"
       transform="translate(-5,-10)" />
    <path
       style="fill:#60b4fd;fill-opacity:1;stroke-width:0.0801663"
       d="m 68.01783,96.505243 c -2.357044,-2.393727 -4.341791,-4.530525 -4.271805,-4.599065 0.06043,-0.05918 3.699155,-1.76837 6.228725,-2.925767 l 1.031757,-0.472077 2.769132,-2.828574 c 1.523024,-1.555716 2.783025,-2.814683 2.800003,-2.797704 0.01698,0.01698 -0.319687,0.920606 -0.748146,2.008061 l -0.779018,1.977191 -2.703086,3.049137 -2.703086,3.049136 -0.05279,2.218219 c -0.02904,1.220021 -0.07816,2.337755 -0.109158,2.483854 l -0.05636,0.265633 z"
       id="path2822"
       transform="translate(-5,-10)" />
    <path
       style="fill:#60b4fd;fill-opacity:1;stroke-width:0.0801663"
       d="m 14.52157,92.95062 0.572638,-0.580559 3.956756,-0.78789 c 6.190549,-1.232693 19.309732,-3.816828 19.708325,-3.882022 l 0.359644,-0.05882 -1.10704,1.143858 c -0.915322,0.945763 -1.099192,1.175135 -1.061715,1.324453 0.03516,0.140111 0.005,0.190637 -0.134433,0.225392 -0.332737,0.08292 -21.385801,3.043612 -22.345733,3.14248 l -0.521081,0.05367 z"
       id="path2861"
       transform="translate(-5,-10)" />
    <path
       style="fill:#7fc2fd;fill-opacity:1;stroke-width:0.0801663"
       d="m 11.984858,92.035557 c 0,-0.04251 2.979851,-1.742798 3.372313,-1.924225 0.151389,-0.06998 3.395724,-0.898799 7.209634,-1.841812 l 6.934383,-1.714569 1.683492,0.142519 1.683491,0.142518 3.687649,-0.586709 c 2.028206,-0.322691 3.88606,-0.61073 4.128563,-0.640088 l 0.440914,-0.05338 -0.57274,0.58089 -0.57274,0.580889 -4.116987,0.7921 c -9.285698,1.786549 -23.768587,4.55727 -23.821399,4.55727 -0.03112,0 -0.05657,-0.01593 -0.05657,-0.03541 z"
       id="path2900"
       transform="translate(-5,-10)" />
    <path
       style="fill:#7fc2fd;fill-opacity:1;stroke-width:0.0801663"
       d="m 14.631087,92.915331 0.520338,-0.518458 5.691806,-1.127985 c 12.886231,-2.553756 17.849845,-3.526904 17.989233,-3.526904 0.05401,0 -0.35497,0.488135 -0.908847,1.084745 -0.724429,0.780321 -1.007049,1.140288 -1.007049,1.28266 0,0.108854 -0.03223,0.197916 -0.07163,0.197916 -0.0394,0 -0.932248,0.125552 -1.984115,0.279005 -6.365882,0.928696 -20.187885,2.847479 -20.511883,2.847479 -0.235062,0 -0.231353,-0.0068 0.282146,-0.518458 z"
       id="path2976"
       transform="translate(-5,-10)" />
    <path
       style="fill:#7fc2fd;fill-opacity:1;stroke-width:0.0801663"
       d="m 12.666271,91.660377 c 0.30864,-0.18017 1.0405,-0.595724 1.626355,-0.923453 1.254053,-0.701519 0.836132,-0.581126 9.476673,-2.730006 l 5.651723,-1.405569 1.763658,0.133943 1.763658,0.133943 3.807897,-0.605562 c 2.094344,-0.333059 3.897751,-0.605663 4.007572,-0.605787 0.179748,-2.03e-4 0.147678,0.05177 -0.321387,0.520835 l -0.52106,0.52106 -7.534908,1.446196 c -13.164522,2.526704 -20.087622,3.844862 -20.185927,3.843401 -0.05248,-7.8e-4 0.157106,-0.148831 0.465746,-0.329001 z"
       id="path3015"
       transform="translate(-5,-10)" />
    <path
       style="fill:#7fc2fd;fill-opacity:1;stroke-width:0.0801663"
       d="m 51.205015,86.938475 c -0.711882,-0.486021 -1.316544,-0.919617 -1.343693,-0.963546 -0.08127,-0.131503 1.493664,-2.178366 3.143227,-4.085083 0.882633,-1.020228 0.838088,-0.999639 1.651267,-0.763241 l 0.458574,0.133311 -0.211182,0.360354 c -0.121895,0.207998 -0.181226,0.390017 -0.14033,0.430513 0.03897,0.03859 0.449637,0.095 0.912597,0.125353 0.462961,0.03036 0.884771,0.07784 0.937356,0.105523 0.128653,0.06772 -3.877012,5.540491 -4.055233,5.540491 -0.03204,0 -0.640701,-0.397654 -1.352583,-0.883675 z"
       id="path3054"
       transform="translate(-5,-10)" />
    <path
       style="fill:#7fc2fd;fill-opacity:1;stroke-width:0.0801663"
       d="m 60.396172,82.390885 c 0.08496,-0.165343 0.772026,-1.379487 1.526806,-2.698099 l 1.372328,-2.397476 2.182514,-6.25238 2.182513,-6.252382 2.324822,-2.093094 c 1.278652,-1.151202 2.50265,-2.247337 2.719994,-2.435856 l 0.395173,-0.342761 0.189779,0.463681 c 0.274411,0.670464 0.873134,2.341364 1.914035,5.341643 l 0.913586,2.633306 -0.699264,0.853927 c -1.037211,1.266621 -8.553209,10.277674 -9.781184,11.726821 l -1.061715,1.252941 -0.862601,0.132023 c -1.298142,0.198684 -2.73787,0.36833 -3.125881,0.36833 h -0.345383 z"
       id="path3093"
       transform="translate(-5,-10)" />
    <path
       style="fill:#7fc2fd;fill-opacity:1;stroke-width:0.0801663"
       d="m 57.32961,81.523546 c -0.699564,-0.05863 -1.281996,-0.117446 -1.294295,-0.130693 -0.0123,-0.01325 0.755087,-1.12437 1.7053,-2.469159 3.25505,-4.606708 7.981785,-11.263306 8.140229,-11.463777 l 0.1584,-0.200415 L 65.981794,67.5 c -0.0316,0.132275 -0.795909,2.314802 -1.698468,4.85006 l -1.641017,4.60956 -1.011651,1.683492 c -0.556409,0.925921 -1.203228,1.981109 -1.437376,2.344864 l -0.425724,0.661371 -0.583007,-0.0096 c -0.320654,-0.0053 -1.155377,-0.05757 -1.854941,-0.116204 z"
       id="path3132"
       transform="translate(-5,-10)" />
    <path
       style="fill:#7fc2fd;fill-opacity:1;stroke-width:0.0801663"
       d="m 71.203969,87.210502 c -0.02777,-0.02777 -0.03449,-0.199123 -0.01493,-0.38079 0.01955,-0.181668 0.07272,-2.350495 0.118156,-4.819616 0.04543,-2.469122 0.103756,-4.998435 0.129607,-5.620696 l 0.047,-1.131384 2.754255,-3.237678 2.754255,-3.237677 0.40567,-0.961995 c 0.223119,-0.529098 0.435293,-1.008629 0.471499,-1.065626 0.0772,-0.121535 3.821075,9.702043 3.758544,9.862072 -0.03554,0.09095 -10.299094,10.643874 -10.352012,10.643874 -0.01186,0 -0.04428,-0.02272 -0.07204,-0.05048 z"
       id="path3171"
       transform="translate(-5,-10)" />
    <path
       style="fill:#d0e9fe;fill-opacity:1;stroke-width:0.0801663"
       d="m 76.229281,85.774181 c 0.0335,-0.08613 0.360654,-0.950378 0.727003,-1.920547 0.366349,-0.970169 0.719439,-1.890077 0.784644,-2.04424 0.06928,-0.163787 1.053489,-1.246638 2.367816,-2.605118 l 2.249261,-2.324822 0.0501,-0.801663 c 0.02755,-0.440914 0.07678,-2.83989 0.109386,-5.331057 l 0.05929,-4.529394 1.236475,-1.92399 c 1.353404,-2.105937 1.766496,-2.710038 1.817963,-2.658571 0.05324,0.05324 1.477523,11.811289 1.677695,13.850058 l 0.05197,0.529373 -0.962285,1.114035 c -0.529258,0.61272 -1.792136,2.045987 -2.806399,3.185039 l -1.844112,2.071004 -2.434318,1.564752 c -3.088715,1.985392 -3.164195,2.030054 -3.084491,1.825141 z"
       id="path3210"
       transform="translate(-5,-10)" />
    <path
       style="fill:#d0e9fe;fill-opacity:1;stroke-width:0.160333"
       d="m 80.116482,69.803157 -1.653115,-4.418088 1.653115,-3.771057 1.653115,-3.771057 0.04279,4.066943 c 0.02353,2.236819 0.02353,5.921934 0,8.189145 l -0.04279,4.122202 z"
       id="path3286"
       transform="translate(-5,-10)" />
    <path
       style="fill:#d0e9fe;fill-opacity:1;stroke-width:0.160333"
       d=""
       id="path3325"
       transform="translate(-5,-10)" />
    <path
       style="fill:#d0e9fe;fill-opacity:1;stroke-width:0.160333"
       d="m 75.286697,63.245326 c -1.05997,-2.857451 -1.589964,-4.08392 -1.833072,-4.241946 -0.188092,-0.122265 -1.207781,-0.591841 -2.265976,-1.043501 -1.058195,-0.451662 -1.982358,-0.878705 -2.053696,-0.948987 -0.206988,-0.203923 4.976522,-3.470787 9.990157,-6.296212 l 2.805819,-1.581214 0.04327,3.268733 0.04327,3.268734 -2.511051,5.674035 c -1.381077,3.120719 -2.559781,5.729378 -2.619341,5.797019 -0.05956,0.06764 -0.77928,-1.685855 -1.599377,-3.896661 z"
       id="path3364"
       transform="translate(-5,-10)" />
    <path
       style="fill:#d0e9fe;fill-opacity:1;stroke-width:0.160333"
       d="m 87.912361,63.010689 c -0.766076,-1.499109 -1.497896,-2.867358 -1.626268,-3.040553 -0.219734,-0.296458 -0.302995,-0.207261 -1.421799,1.52316 -0.653618,1.010932 -1.335058,2.076721 -1.514313,2.368421 l -0.325917,0.530364 -0.106153,-4.36431 C 82.859527,57.6274 82.811758,54.02389 82.811758,52.019969 v -3.643492 l 1.10254,-2.463179 c 0.980248,-2.189965 1.162533,-2.491604 1.643409,-2.719443 0.9075,-0.429975 2.211408,-0.852294 2.314172,-0.74953 0.0534,0.0534 -0.0475,1.375154 -0.224216,2.937226 l -0.32131,2.840131 1.034835,8.276333 c 0.56916,4.551982 1.014407,8.492781 0.989437,8.75733 -0.03801,0.402766 -0.271941,0.03768 -1.438264,-2.244656 z"
       id="path3403"
       transform="translate(-5,-10)" />
    <path
       style="fill:#d0e9fe;fill-opacity:1;stroke-width:0.160333"
       d="m 88.663896,64.333814 c -0.264549,-0.506843 -0.539368,-0.921703 -0.610709,-0.921912 -0.07134,-2.1e-4 -0.08512,-0.07253 -0.03062,-0.160714 0.0545,-0.08818 0.01843,-0.160333 -0.08017,-0.160333 -0.09859,0 -0.134667,-0.07215 -0.08017,-0.160332 0.0545,-0.08818 0.01843,-0.160333 -0.08017,-0.160333 -0.09859,0 -0.134666,-0.07215 -0.08017,-0.160332 0.0545,-0.08818 0.02268,-0.160333 -0.0707,-0.160333 -0.09339,0 -0.152137,-0.05411 -0.130555,-0.120249 0.06645,-0.203621 -1.06819,-2.275472 -1.29373,-2.362356 -0.198899,-0.07662 -0.669501,0.256349 -0.669501,0.473699 0,0.05408 -0.147091,0.256209 -0.32687,0.449177 -0.179778,0.19297 -0.367974,0.514627 -0.418212,0.714793 -0.05024,0.200167 -0.155671,0.363939 -0.234294,0.363939 -0.07862,0 -0.142951,0.108224 -0.142951,0.240498 0,0.132275 -0.05659,0.240499 -0.125764,0.240499 -0.130092,0 -0.765967,0.980283 -0.728015,1.122328 0.01178,0.04409 -0.07298,0.16674 -0.188366,0.272549 -0.366282,0.3359 -0.434395,-0.452809 -0.480466,-5.563523 -0.02424,-2.689578 -0.05575,-5.972387 -0.07,-7.29513 -0.01426,-1.322744 -0.01395,-2.477138 6.71e-4,-2.565321 0.01462,-0.08818 0.01805,-0.214445 0.0076,-0.280582 -0.01044,-0.06614 0.03867,-0.12025 0.109137,-0.12025 0.128893,0 0.513253,-0.919063 0.495396,-1.184568 -0.0053,-0.07832 0.05269,-0.186548 0.128791,-0.240499 0.169808,-0.12038 0.710844,-1.326478 0.683264,-1.523159 -0.01098,-0.07832 0.04865,-0.186548 0.132519,-0.240499 0.08387,-0.05395 0.305269,-0.399482 0.492002,-0.767847 0.186733,-0.368366 0.485024,-0.715938 0.662869,-0.772384 0.177844,-0.05645 0.323354,-0.169916 0.323354,-0.252157 0,-0.08224 0.05411,-0.135783 0.120249,-0.118985 0.216067,0.05488 1.162411,-0.213446 1.162411,-0.32959 0,-0.06228 0.144299,-0.113237 0.320665,-0.113237 0.264557,0 0.323987,0.113218 0.339652,0.647057 0.01044,0.355881 4.92e-4,0.719206 -0.02211,0.807389 -0.0226,0.08818 -0.06582,0.448931 -0.09603,0.801662 -0.03021,0.352732 -0.104035,1.038154 -0.164049,1.52316 -0.06001,0.485005 -0.105518,1.350801 -0.101119,1.92399 0.0076,0.985815 0.04213,1.382979 0.261679,3.006607 0.0507,0.374983 0.128266,0.970385 0.172357,1.323116 l 0.160333,1.282661 c 0.187438,1.499505 0.252899,2.036962 0.317294,2.605094 0.03751,0.330925 0.104989,0.872047 0.149956,1.202494 0.04497,0.330446 0.121097,0.96156 0.169178,1.402475 0.04808,0.440914 0.1189,1.054186 0.157375,1.362826 0.03848,0.30864 0.11,0.885838 0.158943,1.282661 0.04894,0.396823 0.08868,0.96331 0.08831,1.258859 -3.68e-4,0.295549 0.05831,0.620222 0.130398,0.721496 0.07209,0.101274 0.09288,0.508807 0.0462,0.90563 l -0.08487,0.721497 z"
       id="path3481"
       transform="translate(-5,-10)" />
    <path
       style="fill:#d0e9fe;fill-opacity:1;stroke-width:0.160333"
       d="m 88.608774,64.344212 c -0.268313,-0.468889 -0.860965,-1.590097 -1.317005,-2.491573 -0.456041,-0.901477 -0.921228,-1.715455 -1.033751,-1.808841 -0.153567,-0.127448 -0.326372,-0.01603 -0.69294,0.446805 -0.268594,0.339128 -0.576654,0.810395 -0.684577,1.04726 -0.107923,0.236866 -0.256792,0.430665 -0.330821,0.430665 -0.07403,0 -0.134596,0.09704 -0.134596,0.215649 0,0.118607 -0.142458,0.344572 -0.316572,0.502143 -0.174115,0.157572 -0.364008,0.435949 -0.421985,0.618618 -0.05798,0.18267 -0.19711,0.423823 -0.309185,0.535899 -0.368047,0.368046 -0.458268,-0.241134 -0.479134,-3.235136 -0.01106,-1.587292 -0.03691,-5.0098 -0.05745,-7.605574 -0.04041,-5.108629 -0.09657,-4.688488 0.883217,-6.607486 0.209243,-0.409819 0.380442,-0.8364 0.380442,-0.947958 0,-0.575164 1.563682,-2.535693 2.033802,-2.549962 0.104488,-0.0032 0.393086,-0.08812 0.64133,-0.188778 0.878847,-0.35635 1.010791,-0.303876 1.031503,0.410222 0.01044,0.360041 0.0038,0.726769 -0.0147,0.814952 -0.241868,1.151231 -0.30854,5.709134 -0.104366,7.134798 0.154523,1.078968 0.201297,1.437846 0.334352,2.56532 0.05724,0.485006 0.131282,1.098278 0.164547,1.362827 0.03327,0.264549 0.104755,0.841746 0.158868,1.28266 0.05411,0.440915 0.128169,1.018112 0.164568,1.282661 0.06296,0.457581 0.114216,0.890432 0.322758,2.725653 0.0501,0.440914 0.127728,1.090261 0.1725,1.442993 0.212051,1.670596 0.2838,3.28194 0.152005,3.413733 -0.03024,0.03024 -0.274501,-0.328662 -0.542814,-0.79755 z"
       id="path3520"
       transform="translate(-5,-10)" />
    <path
       style="fill:#d0e9fe;fill-opacity:1;stroke-width:0.160333"
       d="m 76.189191,50.785333 c 0.05574,-0.15432 0.937304,-1.902057 1.959042,-3.883859 2.137455,-4.145889 2.439237,-4.513411 4.656094,-5.670354 l 1.48693,-0.776006 -0.06566,1.176837 c -0.05745,1.029777 -0.20499,1.49557 -1.180664,3.727455 l -1.115008,2.550616 -2.805819,1.576043 c -1.543201,0.866824 -2.857668,1.5769 -2.921037,1.577946 -0.06337,10e-4 -0.06962,-0.124358 -0.01388,-0.278678 z"
       id="path3559"
       transform="translate(-5,-10)" />
    <path
       style="fill:#60b4fd;fill-opacity:1;stroke-width:0.160333"
       d="m 69.530879,55.106598 c 0.0294,-0.07038 0.976309,-1.964308 2.104254,-4.20873 1.127946,-2.244421 2.751971,-5.740207 3.608946,-7.768414 l 1.558135,-3.687649 2.140296,-0.851115 c 1.177162,-0.468114 2.181471,-0.80994 2.231797,-0.759613 0.197651,0.19765 -2.533571,6.098277 -5.198342,11.230681 l -1.581665,3.046318 -2.324822,1.554809 c -2.213141,1.480116 -2.659923,1.734203 -2.538599,1.443713 z"
       id="path3598"
       transform="translate(-5,-10)" />
    <path
       style="fill:#7fc2fd;fill-opacity:1;stroke-width:0.0566861"
       d="m 16.645047,87.343115 c -0.100794,-0.2044 -0.167389,-0.387762 -0.147988,-0.407469 0.0194,-0.01971 1.004556,-0.278556 2.189233,-0.575218 l 2.153958,-0.539384 3.142579,0.261229 c 1.728419,0.143676 3.155262,0.273912 3.170762,0.289412 0.04475,0.04475 -1.025396,0.261179 -1.616497,0.326928 -1.701724,0.189286 -8.441077,0.968706 -8.563336,0.990368 -0.130847,0.02318 -0.163846,-0.01154 -0.328711,-0.345866 z"
       id="path12566"
       transform="translate(-5,-10)" />
    <path
       style="fill:#7fc2fd;fill-opacity:1;stroke-width:0.113372"
       d="m 76.468266,66.166411 c -0.20907,-0.506382 -0.42486,-0.920694 -0.479534,-0.920694 -0.05467,0 -0.07024,-0.04719 -0.03459,-0.104876 0.05947,-0.09623 -0.13761,-0.669247 -0.275872,-0.802102 -0.03245,-0.03118 -0.06184,-0.107703 -0.06532,-0.170058 -0.01573,-0.282033 -0.198499,-0.736919 -0.296089,-0.736919 -0.05927,0 -0.07909,-0.04641 -0.04403,-0.103131 0.03506,-0.05672 -0.04636,-0.350073 -0.180915,-0.65189 -0.134559,-0.301818 -0.262534,-0.641895 -0.284388,-0.755729 -0.02185,-0.113832 -0.100785,-0.317902 -0.175402,-0.453489 -0.07462,-0.135585 -0.144821,-0.299801 -0.156009,-0.364925 -0.01119,-0.06512 -0.123147,-0.345718 -0.248796,-0.623546 -0.125649,-0.277829 -0.304135,-0.688019 -0.396634,-0.911534 -0.115443,-0.278955 -0.339984,-0.507073 -0.716065,-0.727471 -0.301336,-0.176595 -0.613571,-0.321082 -0.693855,-0.321082 -0.08028,0 -0.145971,-0.03698 -0.145971,-0.08219 0,-0.07587 -0.567712,-0.262737 -0.667558,-0.21973 -0.0242,0.01043 -0.07522,-0.02946 -0.113372,-0.08863 -0.03815,-0.05917 -0.566782,-0.325901 -1.174741,-0.592736 -0.607958,-0.266836 -1.105379,-0.518404 -1.105379,-0.559039 0,-0.113864 0.960946,-0.816475 2.182416,-1.595708 0.607958,-0.387845 1.105379,-0.741763 1.105379,-0.786484 0,-0.04472 0.06534,-0.08131 0.145209,-0.08131 0.197658,0 0.761769,-0.378416 0.761769,-0.511009 0,-0.05886 0.04916,-0.07664 0.109237,-0.03951 0.06008,0.03713 0.20463,-0.02363 0.321221,-0.135024 0.116591,-0.111396 0.262708,-0.212359 0.324704,-0.224364 0.198228,-0.03838 2.079143,-1.193904 2.079143,-1.277298 0,-0.04413 0.06377,-0.0807 0.141716,-0.08127 0.186026,-0.0014 3.032707,-1.627239 3.032707,-1.732129 0,-0.04444 0.06377,-0.08186 0.141715,-0.08316 0.193492,-0.0032 1.67224,-0.829084 1.67224,-0.933905 0,-0.04624 0.06377,-0.0865 0.141716,-0.08946 0.07794,-0.003 0.230996,-0.04244 0.340116,-0.08771 0.184211,-0.07643 0.199347,0.05842 0.211629,1.885481 0.0073,1.082291 0.03024,2.592765 0.05103,3.356611 0.02079,0.763845 -0.0067,1.38881 -0.06112,1.38881 -0.10154,0 -0.408217,0.782664 -0.366494,0.93532 0.01278,0.04677 -0.02382,0.08503 -0.08134,0.08503 -0.105629,0 -0.415161,0.777946 -0.372149,0.93532 0.01278,0.04677 -0.02382,0.08503 -0.08134,0.08503 -0.08978,0 -0.302678,0.491138 -0.368592,0.850291 -0.01144,0.06235 -0.08822,0.180789 -0.17062,0.263186 -0.134656,0.134655 -0.200159,0.381621 -0.163239,0.615449 0.0074,0.04677 -0.0406,0.08503 -0.106638,0.08503 -0.06603,0 -0.08853,0.05102 -0.04999,0.113373 0.03854,0.06235 0.02103,0.113372 -0.0389,0.113372 -0.130439,0 -0.367893,0.632448 -0.27306,0.727281 0.03648,0.03648 0.01076,0.06632 -0.05715,0.06632 -0.119357,0 -0.438226,0.76269 -0.391044,0.935321 0.01278,0.04677 -0.02159,0.08503 -0.07638,0.08503 -0.111188,0 -0.391662,0.617792 -0.391662,0.862704 0,0.08671 -0.03856,0.157646 -0.08568,0.157646 -0.08702,0 -0.336457,0.653378 -0.319768,0.837617 0.005,0.05538 -0.04427,0.133698 -0.109537,0.174031 -0.154093,0.09524 -0.497335,0.915144 -0.384061,0.917416 0.0476,9.07e-4 0.02476,0.04101 -0.05077,0.089 -0.167946,0.106731 -0.523469,0.928926 -0.402721,0.931347 0.0476,9.07e-4 0.02957,0.03922 -0.04007,0.08503 -0.06964,0.04581 -0.252248,0.331799 -0.405791,0.635528 l -0.279169,0.552233 z"
       id="path17205"
       transform="translate(-5,-10)" />
    <path
       style="fill:#7fc2fd;fill-opacity:1;stroke-width:0.113372"
       d="m 53.871053,80.140541 c -1.433604,-0.471121 -1.55399,-0.531475 -1.404874,-0.704314 0.0897,-0.103972 0.798901,-0.908406 1.576001,-1.787632 l 1.412908,-1.598592 2.810292,-5.147056 c 1.545661,-2.83088 2.8685,-5.20702 2.939644,-5.280312 0.07114,-0.07329 2.421538,-1.56962 5.2231,-3.325176 l 5.093749,-3.191919 0.492754,0.137962 c 0.271015,0.07588 0.514408,0.173 0.540875,0.215824 0.02647,0.04282 -1.139106,1.145455 -2.590158,2.450294 l -2.638279,2.372433 -2.882972,4.014101 c -6.04278,8.413651 -7.907481,10.975647 -8.891701,12.216705 -0.08889,0.112082 -0.452015,0.03167 -1.681339,-0.372318 z"
       id="path17244"
       transform="translate(-5,-10)" />
    <path
       style="fill:#7fc2fd;fill-opacity:1;stroke-width:0.113372"
       d="m 51.08199,77.653604 c -0.72879,-0.349465 -1.249776,-0.662363 -1.190408,-0.714945 0.05806,-0.05143 0.615746,-0.490971 1.239293,-0.976763 1.505661,-1.173028 1.783806,-1.445363 4.95769,-4.85413 1.497539,-1.608364 2.743595,-2.903502 2.769013,-2.878083 0.06001,0.06001 -3.755427,6.943413 -4.096021,7.389593 -0.37232,0.487743 -2.232833,2.602986 -2.314744,2.631665 -0.03786,0.01326 -0.652034,-0.255544 -1.364823,-0.597337 z"
       id="path17283"
       transform="translate(-5,-10)" />
    <path
       style="fill:#60b4fd;fill-opacity:1;stroke-width:0.113372"
       d="m 47.106161,84.949281 c -0.966498,-0.312401 -1.777175,-0.58668 -1.801503,-0.60951 -0.02433,-0.02283 0.177098,-0.336212 0.447613,-0.696404 0.581364,-0.774089 4.062873,-5.258038 4.195703,-5.403783 0.05208,-0.05715 0.487679,0.05899 1.008181,0.268805 l 0.916473,0.369431 -0.406297,0.495831 c -0.223464,0.272708 -0.37705,0.543156 -0.341302,0.600997 0.03575,0.05784 0.3833,0.211956 0.77234,0.34248 0.992771,0.333077 1.058059,0.382913 0.864131,0.659616 -0.244194,0.348424 -3.577949,4.277814 -3.747241,4.416752 -0.11266,0.09246 -0.595519,-0.01995 -1.908098,-0.444215 z"
       id="path17322"
       transform="translate(-5,-10)" />
    <path
       style="fill:#60b4fd;fill-opacity:1;stroke-width:0.113372"
       d="m 88.659522,64.393932 c -0.29869,-0.532187 -0.588069,-0.995421 -0.643065,-1.029411 -0.055,-0.03399 -0.07064,-0.109291 -0.03477,-0.167338 0.03587,-0.05804 0.01875,-0.105538 -0.03805,-0.105538 -0.0568,0 -0.271543,-0.369877 -0.477198,-0.821949 -0.487907,-1.072517 -1.22877,-2.352473 -1.361656,-2.352473 -0.126267,0 -0.873594,1.002945 -1.24604,1.67224 -0.14747,0.265007 -0.3038,0.481832 -0.347401,0.481832 -0.0436,0 -0.109251,0.08928 -0.14589,0.198401 -0.07995,0.238097 -0.285205,0.558165 -0.555032,0.865482 -0.109121,0.124282 -0.198402,0.293372 -0.198402,0.375757 0,0.08238 -0.09942,0.234918 -0.220936,0.338963 -0.121516,0.104044 -0.195031,0.231089 -0.163368,0.28232 0.03166,0.05123 0.0095,0.09315 -0.04917,0.09315 -0.163528,0 -0.286839,-1.535178 -0.309621,-3.854656 -0.08401,-8.553227 -0.0655,-12.278237 0.06139,-12.356661 0.07382,-0.04562 0.12869,-0.128262 0.12194,-0.183645 -0.01317,-0.108072 0.168186,-0.510869 0.696164,-1.546193 0.182843,-0.35854 0.302619,-0.65189 0.266171,-0.65189 -0.03645,0 0.06282,-0.254741 0.220589,-0.566091 0.157773,-0.31135 0.275755,-0.579192 0.262182,-0.595205 -0.04052,-0.04781 0.388484,-0.562127 0.856453,-1.026766 0.401558,-0.3987 0.761992,-0.609575 1.205886,-0.705513 0.09353,-0.02021 0.170058,-0.04456 0.170058,-0.0541 0,-0.02836 0.314928,-0.109945 0.708577,-0.183568 l 0.36846,-0.06891 0.01342,0.721444 c 0.0074,0.396794 3.48e-4,0.772462 -0.01564,0.834816 -0.01598,0.06235 -0.04505,0.317443 -0.0646,0.566862 -0.01954,0.249419 -0.07265,0.861629 -0.118019,1.360466 -0.15256,1.677569 -0.102356,3.828983 0.128312,5.498553 0.03015,0.218242 0.08551,0.651891 0.123019,0.963664 0.03751,0.311774 0.08733,0.694405 0.110714,0.850292 0.02338,0.155887 0.07094,0.589536 0.105679,0.963664 0.03474,0.374128 0.09475,0.833286 0.133361,1.02035 0.03861,0.187064 0.086,0.518678 0.105313,0.73692 0.03583,0.404857 0.09912,0.948149 0.204712,1.757269 0.03255,0.249419 0.08872,0.708577 0.124812,1.02035 0.0361,0.311774 0.09107,0.770931 0.122162,1.02035 0.03109,0.249419 0.07825,0.644923 0.104803,0.878898 0.02655,0.233975 0.07711,0.642115 0.112345,0.906978 0.03524,0.264862 0.06068,0.649437 0.05652,0.854609 -0.0042,0.205172 0.02691,0.428804 0.06903,0.49696 0.114837,0.18581 0.213656,2.343121 0.111987,2.444789 -0.01768,0.01768 -0.276528,-0.403279 -0.575217,-0.935466 z"
       id="path22234"
       transform="translate(-5,-10)" />
    <path
       style="fill:#7fc2fd;fill-opacity:1;stroke-width:0.113372"
       d="m 76.324098,85.809574 c -0.04031,-0.04031 -0.02228,-0.168624 0.04007,-0.285134 0.06236,-0.116512 0.07982,-0.211838 0.03882,-0.211838 -0.04101,0 -0.01105,-0.07653 0.06658,-0.170059 0.07762,-0.09353 0.108204,-0.170058 0.06795,-0.170058 -0.04025,0 0.0086,-0.124853 0.108613,-0.277454 0.09999,-0.152599 0.174103,-0.292897 0.164702,-0.311773 -0.0094,-0.01888 0.04258,-0.187373 0.115507,-0.374437 0.07293,-0.187064 0.142742,-0.391134 0.155138,-0.453489 0.0124,-0.06236 0.08359,-0.224307 0.158205,-0.359892 0.07462,-0.135586 0.151184,-0.339656 0.170149,-0.453489 0.01897,-0.113834 0.09073,-0.309004 0.159475,-0.433713 0.06875,-0.12471 0.123515,-0.270771 0.12171,-0.324581 -0.0056,-0.166481 1.941682,-2.329241 3.341779,-3.711597 1.056403,-1.043016 1.335183,-1.383267 1.346904,-1.643897 0.0081,-0.180759 0.02787,-0.558232 0.04387,-0.838829 0.016,-0.280596 0.05663,-2.566671 0.09029,-5.080166 l 0.06121,-4.569992 0.291731,-0.382479 c 0.160452,-0.210363 0.291731,-0.4369 0.291731,-0.503415 0,-0.06651 0.05102,-0.120937 0.113373,-0.120937 0.06235,0 0.113372,-0.07653 0.113372,-0.170058 0,-0.09353 0.05102,-0.170059 0.113372,-0.170059 0.06236,0 0.113372,-0.05315 0.113372,-0.118112 0,-0.06496 0.100271,-0.225741 0.222824,-0.357287 0.122553,-0.131545 0.196069,-0.282464 0.163368,-0.335376 -0.0327,-0.05291 -0.0054,-0.0962 0.06061,-0.0962 0.06604,0 0.120063,-0.07653 0.120063,-0.170059 0,-0.09353 0.05102,-0.170058 0.113373,-0.170058 0.06235,0 0.113372,-0.07227 0.113372,-0.160611 0,-0.08834 0.0418,-0.177616 0.09289,-0.198401 0.05109,-0.02078 0.317198,-0.369405 0.59135,-0.77471 l 0.498457,-0.73692 0.09366,0.510175 c 0.05151,0.280596 0.117881,0.714245 0.14748,0.963664 0.0296,0.249419 0.07577,0.63205 0.102599,0.850292 0.02683,0.218241 0.07596,0.626381 0.109174,0.906978 0.06037,0.509988 0.09791,0.806105 0.237136,1.870641 0.04078,0.311774 0.09085,0.719914 0.11128,0.906978 0.07466,0.683707 0.168569,1.484723 0.225952,1.927328 0.03234,0.249419 0.08335,0.683068 0.113372,0.963664 0.03002,0.280596 0.08104,0.714245 0.113372,0.963664 0.03234,0.249419 0.08335,0.683068 0.113373,0.963664 0.03002,0.280596 0.08098,0.714245 0.113239,0.963664 0.03226,0.249419 0.08437,0.708576 0.1158,1.02035 0.03143,0.311773 0.0779,0.766534 0.103281,1.010581 0.04992,0.480029 -0.07385,0.734841 -0.659594,1.357968 -0.322362,0.342936 -0.565283,0.619261 -1.555622,1.769537 -0.187896,0.218242 -0.529674,0.607739 -0.759506,0.865548 -0.229831,0.25781 -0.672963,0.7615 -0.984736,1.119312 -0.91564,1.050845 -2.11197,2.209913 -2.280961,2.209913 -0.0861,0 -0.156542,0.05102 -0.156542,0.113372 0,0.06235 -0.07653,0.113372 -0.170059,0.113372 -0.09353,0 -0.170058,0.05102 -0.170058,0.113372 0,0.06235 -0.07653,0.113373 -0.170058,0.113373 -0.09353,0 -0.170059,0.04549 -0.170059,0.101081 0,0.0556 -0.127543,0.133093 -0.28343,0.172218 -0.155887,0.03913 -0.283431,0.121183 -0.283431,0.182349 0,0.06117 -0.07653,0.111213 -0.170058,0.111213 -0.09353,0 -0.170058,0.05102 -0.170058,0.113372 0,0.06235 -0.07653,0.113372 -0.170059,0.113372 -0.09353,0 -0.170058,0.05102 -0.170058,0.113372 0,0.06236 -0.07653,0.113373 -0.170058,0.113373 -0.09353,0 -0.170059,0.05102 -0.170059,0.113372 0,0.06235 -0.03826,0.101673 -0.08503,0.08737 -0.118392,-0.0362 -0.821949,0.395146 -0.821949,0.503931 0,0.04891 -0.07653,0.08893 -0.170058,0.08893 -0.09353,0 -0.170058,0.05952 -0.170058,0.132268 0,0.07275 -0.03251,0.09976 -0.07223,0.06003 -0.06899,-0.06899 -0.707605,0.319503 -0.84249,0.512515 -0.03544,0.05071 -0.09741,0.05921 -0.137726,0.0189 z"
       id="path22273"
       transform="translate(-5,-10)" />
    <path
       style="fill:#60b4fd;fill-opacity:1;stroke-width:0.160333"
       d="m 81.552146,73.672803 c -0.02617,-0.04409 -0.07097,-0.18839 -0.09956,-0.320665 -0.02859,-0.132274 -0.142379,-0.456948 -0.252868,-0.721496 -0.110489,-0.264549 -0.218713,-0.553148 -0.240499,-0.64133 -0.02179,-0.08818 -0.13001,-0.376782 -0.240499,-0.641331 -0.110489,-0.264548 -0.216882,-0.553393 -0.236429,-0.641878 -0.01955,-0.08848 -0.455269,-1.278953 -0.96827,-2.645487 -0.513001,-1.366533 -0.92349,-2.592831 -0.912199,-2.725105 0.01129,-0.132274 0.708298,-1.791716 1.548902,-3.687648 l 1.528371,-3.44715 0.0076,2.404988 c 0.0051,1.613751 0.05876,2.325865 0.163045,2.164489 0.102919,-0.159256 0.155422,0.951056 0.155422,3.286818 0,2.295859 -0.05332,3.443353 -0.152726,3.286817 -0.101928,-0.160507 -0.169358,0.53276 -0.202729,2.084323 -0.0275,1.278652 -0.07141,2.288747 -0.09758,2.244655 z m 0.24681,-5.160703 c -0.05118,-0.127903 -0.08917,-0.08991 -0.09687,0.09687 -0.007,0.169017 0.03093,0.263714 0.08421,0.210437 0.05328,-0.05328 0.05897,-0.191564 0.01266,-0.307304 z m 0,-5.290974 c -0.05118,-0.127903 -0.08917,-0.08991 -0.09687,0.09687 -0.007,0.169017 0.03093,0.263714 0.08421,0.210437 0.05328,-0.05328 0.05897,-0.191564 0.01266,-0.307304 z"
       id="path26093"
       transform="translate(-5,-10)" />
    <path
       style="fill:#60b4fd;fill-opacity:1;stroke-width:0.0400831"
       d="m 59.122625,105.44059 c -0.04409,-0.0182 -0.756569,-0.34419 -1.583284,-0.72441 -2.032773,-0.93492 -1.991735,-0.92075 -2.7999,-0.96673 -0.360499,-0.0205 -0.721247,-0.0517 -0.801663,-0.0693 l -0.14621,-0.032 0.240499,-0.0476 c 0.7124,-0.14087 1.590898,-0.34297 2.111256,-0.4857 0.323453,-0.0887 0.62107,-0.16153 0.661371,-0.1618 0.0403,-2.8e-4 1.203659,0.28381 2.585238,0.63131 l 2.511962,0.6318 -0.908637,0.0286 c -0.49975,0.0157 -0.977928,0.0337 -1.062616,0.0401 -0.153555,0.0115 -0.15214,0.0128 0.512449,0.46776 0.366536,0.25092 0.659831,0.46282 0.651766,0.47088 -0.0081,0.008 -0.509228,-0.14616 -1.113696,-0.34273 -2.122613,-0.69025 -2.143628,-0.69529 -1.91858,-0.46001 0.07597,0.0794 0.367381,0.3325 0.647573,0.56237 0.590981,0.48486 0.65758,0.55873 0.412472,0.45753 z"
       id="path31780"
       transform="translate(-5,-10)" />
    <path
       style="fill:#0376db;fill-opacity:0;stroke-width:0.0400831"
       d="m 55.655434,97.204267 c -0.871875,-0.322003 -4.288896,-1.871089 -4.288896,-1.944345 0,-0.05293 0.597327,-1.031708 2.178547,-3.569749 0.817212,-1.311721 1.878555,-3.01531 2.358539,-3.785754 l 0.872698,-1.400806 1.042336,-1.051168 c 0.573285,-0.578142 1.094978,-1.088652 1.159319,-1.134466 l 0.116982,-0.0833 -0.01671,0.150326 c -0.0092,0.08268 -0.06253,0.574206 -0.118528,1.092281 -0.111158,1.028347 -0.410599,3.54887 -0.76429,6.433343 l -0.226087,1.843824 -0.42289,0.741538 c -0.929619,1.630087 -1.640468,2.77082 -1.721713,2.762912 -0.01596,-0.0016 -0.09215,-0.02614 -0.169309,-0.05464 z"
       id="path33416"
       transform="translate(-5,-10)" />
    <path
       style="fill:#0376db;fill-opacity:0;stroke-width:0.0400831"
       d="m 68.274271,100.80232 c -1.307678,-1.072943 -2.489295,-2.042454 -2.625816,-2.154471 l -0.248219,-0.203668 -0.240174,-0.721496 c -0.476003,-1.429943 -1.354561,-4.375572 -1.316424,-4.413709 0.02444,-0.02444 1.459581,1.445038 3.676404,3.764361 l 1.984115,2.075856 0.721931,1.234877 c 0.397062,0.67918 0.81878,1.4097 0.937152,1.62337 0.205856,0.3716 0.211941,0.39097 0.139856,0.44524 -0.133698,0.10064 -0.525625,0.30044 -0.589364,0.30044 -0.03403,0 -1.131783,-0.87786 -2.439461,-1.9508 z"
       id="path41370"
       transform="translate(-5,-10)" />
    <path
       style="fill:#0376db;fill-opacity:0;stroke-width:0.0400831"
       d="m 68.274271,100.80232 c -1.307678,-1.072943 -2.489295,-2.042454 -2.625816,-2.154471 l -0.248219,-0.203668 -0.240174,-0.721496 c -0.476003,-1.429943 -1.354561,-4.375572 -1.316424,-4.413709 0.02444,-0.02444 1.459581,1.445038 3.676404,3.764361 l 1.984115,2.075856 0.721931,1.234877 c 0.397062,0.67918 0.81878,1.4097 0.937152,1.62337 0.205856,0.3716 0.211941,0.39097 0.139856,0.44524 -0.133698,0.10064 -0.525625,0.30044 -0.589364,0.30044 -0.03403,0 -1.131783,-0.87786 -2.439461,-1.9508 z"
       id="path41409"
       transform="translate(-5,-10)" />
    <path
       style="fill:#0376db;fill-opacity:0;stroke-width:0.0400831"
       d="m 68.274271,100.80232 c -1.307678,-1.072943 -2.489295,-2.042454 -2.625816,-2.154471 l -0.248219,-0.203668 -0.240174,-0.721496 c -0.476003,-1.429943 -1.354561,-4.375572 -1.316424,-4.413709 0.02444,-0.02444 1.459581,1.445038 3.676404,3.764361 l 1.984115,2.075856 0.721931,1.234877 c 0.397062,0.67918 0.81878,1.4097 0.937152,1.62337 0.205856,0.3716 0.211941,0.39097 0.139856,0.44524 -0.133698,0.10064 -0.525625,0.30044 -0.589364,0.30044 -0.03403,0 -1.131783,-0.87786 -2.439461,-1.9508 z"
       id="path41448"
       transform="translate(-5,-10)" />
    <path
       style="fill:#0376db;fill-opacity:0;stroke-width:0.0400831"
       d="m 68.274271,100.80232 c -1.307678,-1.072943 -2.489295,-2.042454 -2.625816,-2.154471 l -0.248219,-0.203668 -0.240174,-0.721496 c -0.476003,-1.429943 -1.354561,-4.375572 -1.316424,-4.413709 0.02444,-0.02444 1.459581,1.445038 3.676404,3.764361 l 1.984115,2.075856 0.721931,1.234877 c 0.397062,0.67918 0.81878,1.4097 0.937152,1.62337 0.205856,0.3716 0.211941,0.39097 0.139856,0.44524 -0.133698,0.10064 -0.525625,0.30044 -0.589364,0.30044 -0.03403,0 -1.131783,-0.87786 -2.439461,-1.9508 z"
       id="path41487"
       transform="translate(-5,-10)" />
    <path
       style="fill:#0376db;fill-opacity:0;stroke-width:0.0400831"
       d="m 68.274271,100.80232 c -1.307678,-1.072943 -2.489295,-2.042454 -2.625816,-2.154471 l -0.248219,-0.203668 -0.240174,-0.721496 c -0.476003,-1.429943 -1.354561,-4.375572 -1.316424,-4.413709 0.02444,-0.02444 1.459581,1.445038 3.676404,3.764361 l 1.984115,2.075856 0.721931,1.234877 c 0.397062,0.67918 0.81878,1.4097 0.937152,1.62337 0.205856,0.3716 0.211941,0.39097 0.139856,0.44524 -0.133698,0.10064 -0.525625,0.30044 -0.589364,0.30044 -0.03403,0 -1.131783,-0.87786 -2.439461,-1.9508 z"
       id="path41526"
       transform="translate(-5,-10)" />
    <path
       style="fill:#0376db;fill-opacity:0;stroke-width:0.0400831"
       d="m 68.274271,100.80232 c -1.307678,-1.072943 -2.489295,-2.042454 -2.625816,-2.154471 l -0.248219,-0.203668 -0.240174,-0.721496 c -0.476003,-1.429943 -1.354561,-4.375572 -1.316424,-4.413709 0.02444,-0.02444 1.459581,1.445038 3.676404,3.764361 l 1.984115,2.075856 0.721931,1.234877 c 0.397062,0.67918 0.81878,1.4097 0.937152,1.62337 0.205856,0.3716 0.211941,0.39097 0.139856,0.44524 -0.133698,0.10064 -0.525625,0.30044 -0.589364,0.30044 -0.03403,0 -1.131783,-0.87786 -2.439461,-1.9508 z"
       id="path41565"
       transform="translate(-5,-10)" />
    <path
       style="fill:#0376db;fill-opacity:0;stroke-width:0.0400831"
       d="m 68.274271,100.80232 c -1.307678,-1.072943 -2.489295,-2.042454 -2.625816,-2.154471 l -0.248219,-0.203668 -0.240174,-0.721496 c -0.476003,-1.429943 -1.354561,-4.375572 -1.316424,-4.413709 0.02444,-0.02444 1.459581,1.445038 3.676404,3.764361 l 1.984115,2.075856 0.721931,1.234877 c 0.397062,0.67918 0.81878,1.4097 0.937152,1.62337 0.205856,0.3716 0.211941,0.39097 0.139856,0.44524 -0.133698,0.10064 -0.525625,0.30044 -0.589364,0.30044 -0.03403,0 -1.131783,-0.87786 -2.439461,-1.9508 z"
       id="path41604"
       transform="translate(-5,-10)" />
    <path
       style="fill:#0376db;fill-opacity:0;stroke-width:0.0400831"
       d="m 55.655434,97.204267 c -0.871875,-0.322003 -4.288896,-1.871089 -4.288896,-1.944345 0,-0.05293 0.597327,-1.031708 2.178547,-3.569749 0.817212,-1.311721 1.878555,-3.01531 2.358539,-3.785754 l 0.872698,-1.400806 1.042336,-1.051168 c 0.573285,-0.578142 1.094978,-1.088652 1.159319,-1.134466 l 0.116982,-0.0833 -0.01671,0.150326 c -0.0092,0.08268 -0.06253,0.574206 -0.118528,1.092281 -0.111158,1.028347 -0.410599,3.54887 -0.76429,6.433343 l -0.226087,1.843824 -0.42289,0.741538 c -0.929619,1.630087 -1.640468,2.77082 -1.721713,2.762912 -0.01596,-0.0016 -0.09215,-0.02614 -0.169309,-0.05464 z"
       id="path41643"
       transform="translate(-5,-10)" />
    <path
       style="fill:#0376db;fill-opacity:0;stroke-width:0.0400831"
       d="m 55.655434,97.204267 c -0.871875,-0.322003 -4.288896,-1.871089 -4.288896,-1.944345 0,-0.05293 0.597327,-1.031708 2.178547,-3.569749 0.817212,-1.311721 1.878555,-3.01531 2.358539,-3.785754 l 0.872698,-1.400806 1.042336,-1.051168 c 0.573285,-0.578142 1.094978,-1.088652 1.159319,-1.134466 l 0.116982,-0.0833 -0.01671,0.150326 c -0.0092,0.08268 -0.06253,0.574206 -0.118528,1.092281 -0.111158,1.028347 -0.410599,3.54887 -0.76429,6.433343 l -0.226087,1.843824 -0.42289,0.741538 c -0.929619,1.630087 -1.640468,2.77082 -1.721713,2.762912 -0.01596,-0.0016 -0.09215,-0.02614 -0.169309,-0.05464 z"
       id="path41682"
       transform="translate(-5,-10)" />
    <path
       style="fill:#0376db;fill-opacity:0;stroke-width:0.0400831"
       d="m 58.920896,92.907012 c 0.05038,-0.547998 1.137226,-9.160204 1.158713,-9.181691 0.04292,-0.04291 0.585086,-0.135209 2.41,-0.410255 1.942596,-0.292783 2.344467,-0.367357 2.488611,-0.461804 0.04621,-0.03028 1.182092,-1.332659 2.524181,-2.89418 1.34209,-1.561521 2.585027,-3.006624 2.762082,-3.21134 l 0.321919,-0.372211 0.03141,0.592668 c 0.05793,1.092986 -0.06789,7.740262 -0.197621,10.440663 l -0.02636,0.548707 -2.148371,0.991176 c -3.713653,1.713337 -9.184898,4.219716 -9.270967,4.247033 -0.08015,0.02544 -0.08171,0.01704 -0.0536,-0.288766 z"
       id="path41721"
       transform="translate(-5,-10)" />
    <path
       style="fill:#0376db;fill-opacity:0;stroke-width:0.113372"
       d="m 68.075627,100.58672 c -2.570845,-2.12003 -2.648913,-2.196675 -2.85524,-2.803173 -0.508904,-1.495926 -1.235756,-3.982738 -1.19757,-4.097297 0.02294,-0.06881 1.257044,1.128427 2.742461,2.660525 2.42384,2.500013 2.770069,2.905379 3.376737,3.953505 0.371789,0.64232 0.796498,1.37557 0.9438,1.62944 l 0.26782,0.46158 -0.317448,0.18752 -0.317448,0.18752 z"
       id="path41877"
       transform="translate(-5,-10)" />
    <path
       style="fill:#0376db;fill-opacity:0;stroke-width:0.113372"
       d="m 68.075627,100.58672 c -2.570845,-2.12003 -2.648913,-2.196675 -2.85524,-2.803173 -0.508904,-1.495926 -1.235756,-3.982738 -1.19757,-4.097297 0.02294,-0.06881 1.257044,1.128427 2.742461,2.660525 2.42384,2.500013 2.770069,2.905379 3.376737,3.953505 0.371789,0.64232 0.796498,1.37557 0.9438,1.62944 l 0.26782,0.46158 -0.317448,0.18752 -0.317448,0.18752 z"
       id="path41916"
       transform="translate(-5,-10)" />
  </g>
</svg>
