<svg width="512" height="512" viewBox="0 0 512 512" fill="none" xmlns="http://www.w3.org/2000/svg">
<path d="M103.796 265.365C103.058 268.174 101.296 272.765 97.3057 275.584C94.0332 277.892 89.7479 278.652 84.5424 277.859C85.929 272.775 88.3727 269.174 91.8164 267.13C96.0218 264.628 100.932 264.887 103.796 265.365Z" fill="white"/>
<path d="M129.494 283.735C128.755 286.539 126.994 291.134 123.003 293.953C119.731 296.257 115.446 297.032 110.24 296.224C111.627 291.144 114.07 287.541 117.514 285.495C121.72 282.993 126.63 283.257 129.494 283.735Z" fill="white"/>
<path d="M127.255 255.991C127.22 260.877 124.459 264.946 122.573 267.151C120.548 265.059 117.526 261.184 117.185 256.308C116.889 252.307 118.457 248.25 121.834 244.214C125.459 248.023 127.289 251.977 127.255 255.991Z" fill="white"/>
<path d="M96.0219 252.307C93.795 250.444 90.3956 246.887 89.5553 242.077C88.8606 238.123 89.9976 233.93 92.942 229.566C96.942 232.987 99.1588 236.723 99.5454 240.726C99.9991 245.59 97.6695 249.921 96.0219 252.307Z" fill="white"/>
<path d="M69.8005 247.091C67.2213 248.398 62.6179 250.125 57.8561 249.013C53.9573 248.091 50.5365 245.396 47.6834 240.963C52.4124 238.633 56.7305 238.078 60.5494 239.294C65.1985 240.784 68.2556 244.638 69.8005 247.091Z" fill="white"/>
<path d="M123.003 293.953C119.731 296.257 115.446 297.032 110.24 296.224C111.627 291.144 114.07 287.541 117.514 285.495C121.72 282.993 126.63 283.257 129.494 283.735C128.755 286.539 126.994 291.134 123.003 293.953ZM122.573 267.151C120.548 265.059 117.526 261.184 117.185 256.308C116.889 252.307 118.457 248.25 121.834 244.214C125.459 248.023 127.289 251.977 127.255 255.991C127.22 260.877 124.459 264.946 122.573 267.151ZM97.3057 275.584C94.0332 277.892 89.7479 278.652 84.5424 277.859C85.929 272.775 88.3727 269.174 91.8164 267.13C96.0218 264.628 100.932 264.887 103.796 265.365C103.058 268.174 101.296 272.765 97.3057 275.584ZM89.5553 242.077C88.8606 238.123 89.9975 233.93 92.9419 229.566C96.942 232.987 99.1588 236.723 99.5454 240.726C99.999 245.591 97.6695 249.921 96.0218 252.307C93.795 250.444 90.3955 246.887 89.5553 242.077ZM57.8561 249.013C53.9573 248.091 50.5365 245.397 47.6834 240.963C52.4124 238.633 56.7305 238.078 60.5494 239.294C65.1985 240.784 68.2556 244.638 69.8005 247.091C67.2213 248.398 62.6179 250.126 57.8561 249.013ZM126.481 271.311C128.936 268.561 132.869 263.094 132.938 256.093C133.006 249.659 129.858 243.578 123.596 238.02L121.583 236.238L119.685 238.148C113.787 244.09 111.036 250.364 111.513 256.773C111.684 259.014 112.252 261.06 113.013 262.912C112.07 262.378 111.116 261.845 110.149 261.32L110.16 261.228L109.787 261.104C106.728 259.435 103.545 257.799 100.227 256.184C102.398 253.252 105.854 247.328 105.206 240.237C104.614 233.839 100.863 228.108 94.056 223.222L91.8734 221.656L90.1801 223.744C84.929 230.271 82.8377 236.782 83.9632 243.114C84.4397 245.794 85.4625 248.124 86.6908 250.137C83.1672 248.716 79.5081 247.339 75.7463 246.021C74.3926 243.395 70.1643 236.431 62.334 233.893C56.2184 231.929 49.468 233.123 42.2967 237.454L40 238.837L41.2511 241.215C45.1826 248.615 50.3539 253.103 56.6164 254.559C58.1285 254.91 59.6064 255.06 61.0387 255.06C66.732 255.06 71.5509 252.705 73.8476 251.364C81.3484 253.99 88.3499 256.874 94.8506 259.936C92.8963 260.367 90.8962 261.071 88.9633 262.218C83.4283 265.479 79.8605 271.323 78.3369 279.561L77.8476 282.197L80.4625 282.836C83.2699 283.515 85.9176 283.859 88.4069 283.859C93.1117 283.859 97.2044 282.632 100.637 280.188C105.774 276.541 108.115 271.026 109.149 267.345C115.128 270.731 120.594 274.233 125.573 277.746C122.242 277.768 118.333 278.414 114.661 280.572C109.126 283.848 105.558 289.676 104.035 297.93L103.545 300.567L106.16 301.203C108.968 301.885 111.615 302.214 114.093 302.214C118.798 302.214 122.902 300.997 126.334 298.555C131.869 294.621 134.153 288.519 135.063 284.882C157.442 302.838 167.057 319.035 167.205 319.309L172.127 316.467C171.365 315.127 158.181 292.851 126.481 271.311Z" fill="#383738"/>
<path d="M330.095 404.516C336.914 407.266 341.814 412.565 347.223 418.415C355.258 427.1 364.362 436.956 383.184 442.193C387.172 443.297 391.207 443.866 395.232 444.011L339.597 401.017C336.527 402.255 333.356 403.423 330.095 404.516Z" fill="white"/>
<path d="M344.791 398.823L402.97 443.786C408.802 443.252 414.518 441.944 419.94 440.181L354.633 394.104C351.529 395.707 348.246 397.299 344.791 398.823Z" fill="white"/>
<path d="M359.486 391.515L425.591 438.158C430.261 436.328 434.636 434.228 438.591 432.088L368.864 386.011C366.057 387.764 362.908 389.627 359.486 391.515Z" fill="white"/>
<path d="M373.375 383.105L443.401 429.386C449.23 425.92 453.788 422.655 456.482 420.61L382.716 376.466C381.014 377.784 377.797 380.172 373.375 383.105Z" fill="white"/>
<path d="M185.672 299.759C187.58 306.443 192.433 323.527 198.57 345.665C214.404 402.858 268.21 407.971 298.861 405.914C335.095 403.505 368.456 380.888 378.159 373.737L364.226 365.396C340.175 378.014 317.617 384.342 296.771 384.342C283.939 384.342 271.755 381.954 260.288 377.171C216.346 358.837 196.378 311.522 191.138 296.952C189.763 298.099 188.159 298.986 186.5 299.534C186.228 299.625 185.944 299.691 185.672 299.759Z" fill="white"/>
<path d="M278.859 304.624C284.881 310.5 302.406 326.617 318.059 331.615C330.628 335.618 341.198 332.697 346.781 330.367L316.477 316.204C302.841 310.34 291.998 300.782 288.619 297.624C284.836 300.691 281.415 303.02 278.859 304.624Z" fill="white"/>
<path d="M292.396 294.417C296.761 298.408 310.945 310.49 326.899 314.627C346.255 319.648 359.659 312.592 365.75 308.123L336.402 302.671C316.138 299.679 297.078 291.441 296.045 290.985C294.814 292.189 293.598 293.336 292.396 294.417Z" fill="white"/>
<path d="M299.682 287.179C306.172 289.815 330.333 299.022 350.634 298.839C366.534 298.668 376.91 290.257 381.741 285.167H347.757C347.008 285.167 346.27 285.177 345.529 285.177C325.845 285.177 305.339 282.993 304.046 282.859L304.159 281.813C302.702 283.709 301.204 285.495 299.682 287.179Z" fill="white"/>
<path d="M306.797 278.198C316.4 279.119 354.563 282.402 371.603 278.037C385.003 274.609 392.821 263.014 396.185 256.718L360.008 263.628L359.975 263.445C340.245 267.13 317.207 269.745 311.533 270.358C310.079 273.13 308.49 275.745 306.797 278.198Z" fill="white"/>
<path d="M314.033 265.14C326.119 263.74 360.853 259.457 378.137 254.238C395.356 249.046 404.573 235.259 408.565 227.473C407.188 228.031 405.767 228.576 404.325 229.098C370.83 241.168 323.708 255.126 316.912 257.127C316.105 259.924 315.126 262.583 314.033 265.14Z" fill="white"/>
<path d="M318.285 251.602C330.628 247.941 372.282 235.419 402.652 224.486C435.4 212.686 447.969 190.296 452.082 180.385L409.201 198.162C375.091 214.085 328.208 235.087 319.684 238.907C319.673 239.258 319.661 239.612 319.651 239.977C319.511 244.034 319.038 247.909 318.285 251.602Z" fill="white"/>
<path d="M319.242 217.766C319.593 222.71 319.785 227.963 319.764 233.483C335.004 226.655 396.9 198.867 426.974 184.306C449.558 173.373 457.845 149.617 460.518 138.914L440.205 151.586C439.047 152.459 437.865 153.323 436.626 154.163C431.031 157.925 423.439 162.509 414.78 167.464L414.635 167.556C396.991 177.646 374.945 189.295 356.419 198.878C337.892 208.458 322.865 215.963 319.242 217.766Z" fill="white"/>
<path d="M240.999 222.12C249.455 258.321 248.114 273.301 247.227 277.88C251.341 281.848 255.297 285.937 259.104 290.28C262.367 285.247 264.55 279.404 265.993 273.414C267.688 266.435 268.435 259.183 268.709 251.909C268.833 248.271 268.823 244.638 268.812 240.897C268.801 237.18 268.812 233.462 268.856 229.733C269.016 222.269 269.231 214.743 270.493 207.149C271.132 203.366 272.04 199.546 273.461 195.854C274.253 193.751 275.254 191.706 276.394 189.741C266.483 172.383 247.034 159.437 240.033 155.153C237.828 163.052 232.839 187.148 240.999 222.12Z" fill="white"/>
<path d="M241.658 150.392C243.488 151.473 246.488 153.334 250.126 155.879C254.343 148.243 267.3 123.955 270.755 107.736C273.3 95.7905 270.675 86.6421 268.458 81.6292L241.658 150.392Z" fill="white"/>
<path d="M254.126 158.801C256.798 160.814 259.651 163.122 262.527 165.69C266.31 160.255 276.006 145.789 282.28 131.343C287.517 119.284 283.621 107.236 280.801 101.064L272.084 120.544C266.515 136.083 257.297 153.119 254.126 158.801Z" fill="white"/>
<path d="M266.15 169.075C268.866 171.716 271.54 174.589 274.016 177.667C277.609 173.815 287.043 163.019 293.872 149.165C299.554 137.65 296.702 126.65 294.463 121.033L286.063 134.932C279.311 149.912 269.608 164.178 266.15 169.075Z" fill="white"/>
<path d="M277.029 181.634C277.846 182.805 278.644 183.989 279.391 185.205C281.732 182.134 284.417 179.385 287.269 176.941C290.19 174.417 293.259 172.146 296.373 169.998C297.428 169.268 298.498 168.579 299.565 167.884C308.944 158.414 307.286 147.108 305.397 141.105L295.497 156.596C288.35 169.293 279.925 178.603 277.029 181.634Z" fill="white"/>
<path d="M149.38 294.347C149.369 296.472 149.426 298.624 149.54 300.749L163.758 291.532L164.917 290.779L166.202 291.404C167.667 291.915 169.328 292.462 170.907 292.905C172.497 293.351 174.101 293.734 175.691 294.019C178.863 294.552 182.045 294.712 184.75 293.965C187.468 293.248 189.569 291.484 191.035 288.848C192.547 286.211 193.662 283.019 195.218 279.517C195.593 280.404 195.854 281.314 196.082 282.246C196.241 283.166 196.389 284.119 196.412 285.076C196.401 286.029 196.422 287.007 196.218 287.972C196.127 288.461 196.082 288.95 195.934 289.428C195.786 289.917 195.65 290.407 195.479 290.882C195.275 291.393 195.037 291.905 194.786 292.404C197.57 300.724 216.904 353.768 262.21 372.648C290.234 384.332 322.879 380.888 359.282 362.43L314.297 335.494C297.169 329.082 279.391 312.124 274.447 307.18C274.323 307.239 274.253 307.271 274.243 307.283L273.936 306.669C273.494 306.216 273.22 305.932 273.129 305.841L273.403 305.577L272.073 302.875C272.482 302.681 313.34 282.052 314.74 239.806C315.901 205.082 308.066 180.136 304.919 171.634C303.18 172.723 301.464 173.837 299.758 174.977C293.791 179.066 288.065 183.489 283.905 188.999C281.814 191.738 280.129 194.74 278.881 197.958C277.621 201.186 276.776 204.604 276.163 208.118C275.54 211.63 275.189 215.232 274.936 218.868C274.667 222.495 274.538 226.177 274.425 229.85C274.334 233.532 274.278 237.212 274.243 240.92C274.22 244.589 274.199 248.362 274.016 252.138C273.639 259.662 272.789 267.221 270.912 274.642C269.027 282.019 266.106 289.37 261.241 295.611C260.649 296.407 259.945 297.112 259.31 297.86C258.582 298.544 257.912 299.27 257.127 299.895C255.615 301.18 253.933 302.294 252.148 303.17C250.364 304.055 248.478 304.715 246.545 305.066C244.602 305.373 242.623 305.522 240.738 305.055C247.193 302.896 252.091 299.022 256.104 294.304C251.773 289.304 247.069 284.451 242.215 279.868C237.067 275.017 231.679 270.424 226.03 266.21C223.188 264.127 220.314 262.083 217.337 260.231C215.87 259.263 214.335 258.412 212.834 257.504C211.301 256.685 209.789 255.786 208.221 255.034C205.118 253.431 201.901 252.113 198.65 250.933C195.388 249.783 192.047 248.954 188.683 248.362C185.318 247.85 181.92 247.705 178.567 247.92C175.238 248.227 171.987 248.99 168.998 250.308C166.008 251.628 163.315 253.534 161.029 255.9C158.746 258.263 156.87 261.06 155.382 264.084C152.392 270.164 150.813 276.993 150.005 283.892C149.607 287.358 149.403 290.849 149.38 294.347Z" fill="white"/>
<path d="M316.093 193.74C317.172 199.265 318.139 205.539 318.807 212.493C330.472 206.674 379.159 182.192 412.165 163.3L437.467 147.506C456.15 133.195 462.869 113.682 465.142 104.18L445.07 118.09L445.059 118.079C442.685 119.966 440.25 121.749 437.795 123.477C436.034 124.751 434.238 125.978 432.441 127.194C430.648 128.421 428.83 129.594 427.022 130.784C419.758 135.513 412.392 140.038 404.983 144.471C390.152 153.323 375.138 161.814 360.031 170.155C345.463 178.168 330.832 186.034 316.093 193.74Z" fill="white"/>
<path d="M309.192 168.998C310.536 172.43 312.888 179.191 315.035 188.74C329.322 181.272 343.527 173.621 357.657 165.85C372.729 157.541 387.709 149.062 402.459 140.253C409.836 135.842 417.154 131.343 424.338 126.672C426.124 125.488 427.932 124.331 429.692 123.115C431.467 121.932 433.227 120.715 434.954 119.477C438.445 117.023 441.852 114.463 445.012 111.746C445.796 111.067 446.615 110.405 447.32 109.679C448.036 108.963 448.82 108.27 449.39 107.521L450.333 106.428L451.231 105.143C451.833 104.281 452.447 103.427 453.027 102.565C455.321 99.0516 457.381 95.3925 459.174 91.6093C460.97 87.8219 462.461 83.9003 463.677 79.9017C464.269 77.8888 464.812 75.8774 465.233 73.8317C465.28 73.6492 465.313 73.4551 465.346 73.2626C460.809 76.4138 456.277 79.5365 451.709 82.6407C445.548 86.789 439.354 90.8904 433.146 94.9617C420.726 103.099 408.232 111.11 395.598 118.919C382.936 126.682 370.205 134.33 357.306 141.707C354.099 143.584 350.85 145.391 347.61 147.222L337.904 152.651C331.424 156.256 324.946 159.847 318.537 163.52C315.4 165.313 312.285 167.132 309.192 168.998Z" fill="white"/>
<path d="M149.38 294.347C149.403 290.849 149.607 287.358 150.005 283.892C150.813 276.993 152.392 270.164 155.382 264.084C156.87 261.06 158.746 258.262 161.029 255.9C163.315 253.533 166.008 251.628 168.998 250.308C171.987 248.99 175.238 248.227 178.567 247.92C181.92 247.705 185.318 247.85 188.683 248.362C192.047 248.954 195.388 249.783 198.65 250.933C201.901 252.113 205.118 253.431 208.221 255.034C209.789 255.786 211.301 256.685 212.834 257.504C214.335 258.412 215.87 259.262 217.337 260.231C220.314 262.083 223.188 264.127 226.03 266.21C231.679 270.424 237.067 275.017 242.215 279.868C247.069 284.451 251.773 289.304 256.104 294.304C252.091 299.022 247.193 302.896 240.738 305.055C242.623 305.522 244.602 305.373 246.545 305.066C248.478 304.715 250.364 304.054 252.149 303.17C253.933 302.294 255.615 301.18 257.127 299.895C257.912 299.27 258.582 298.544 259.31 297.86C259.945 297.112 260.649 296.407 261.241 295.611C266.106 289.37 269.027 282.019 270.912 274.642C272.789 267.221 273.639 259.662 274.016 252.138C274.199 248.362 274.22 244.589 274.243 240.92C274.279 237.212 274.334 233.532 274.425 229.85C274.538 226.177 274.667 222.495 274.936 218.868C275.189 215.232 275.54 211.63 276.163 208.118C276.776 204.604 277.621 201.186 278.881 197.958C280.129 194.74 281.814 191.738 283.905 188.999C288.065 183.489 293.791 179.066 299.758 174.977C301.464 173.837 303.18 172.723 304.919 171.634C308.066 180.136 315.901 205.082 314.74 239.806C313.34 282.051 272.482 302.681 272.073 302.875L273.403 305.577L273.129 305.84C273.22 305.932 273.494 306.216 273.936 306.669L274.243 307.283C274.253 307.271 274.323 307.239 274.447 307.18C279.391 312.124 297.169 329.082 314.297 335.494L359.282 362.43C322.879 380.888 290.234 384.332 262.21 372.648C216.904 353.768 197.57 300.724 194.786 292.404C195.037 291.905 195.275 291.393 195.479 290.882C195.65 290.407 195.786 289.917 195.934 289.428C196.082 288.95 196.127 288.461 196.218 287.972C196.422 287.007 196.401 286.029 196.412 285.076C196.389 284.119 196.241 283.166 196.082 282.245C195.854 281.314 195.593 280.404 195.218 279.517C193.662 283.019 192.548 286.211 191.035 288.848C189.569 291.484 187.468 293.248 184.75 293.965C182.045 294.712 178.863 294.552 175.691 294.019C174.101 293.733 172.497 293.351 170.907 292.905C169.328 292.462 167.667 291.915 166.202 291.404L164.917 290.779L163.758 291.532L149.54 300.749C149.426 298.624 149.369 296.473 149.38 294.347ZM185.672 299.759C185.944 299.691 186.228 299.625 186.5 299.534C188.159 298.986 189.763 298.099 191.138 296.952C196.378 311.523 216.347 358.837 260.288 377.171C271.755 381.954 283.939 384.342 296.771 384.342C317.617 384.342 340.175 378.014 364.226 365.396L378.159 373.737C368.456 380.888 335.095 403.505 298.861 405.914C268.21 407.971 214.404 402.858 198.57 345.665C192.433 323.527 187.58 306.443 185.672 299.759ZM330.095 404.516C333.356 403.423 336.527 402.255 339.597 401.017L395.232 444.011C391.207 443.866 387.172 443.297 383.184 442.193C364.362 436.956 355.258 427.1 347.223 418.415C341.814 412.565 336.914 407.266 330.095 404.516ZM344.791 398.823C348.246 397.299 351.529 395.707 354.633 394.104L419.94 440.181C414.518 441.944 408.802 443.252 402.97 443.786L344.791 398.823ZM425.591 438.158L359.486 391.515C362.908 389.627 366.057 387.764 368.864 386.011L438.591 432.088C434.636 434.228 430.261 436.328 425.591 438.158ZM443.401 429.386L373.375 383.105C377.797 380.172 381.014 377.784 382.716 376.466L456.482 420.61C453.788 422.655 449.23 425.92 443.401 429.386ZM318.059 331.615C302.406 326.617 284.881 310.5 278.859 304.624C281.415 303.02 284.836 300.691 288.62 297.624C291.998 300.782 302.841 310.34 316.477 316.204L346.781 330.367C341.198 332.697 330.628 335.618 318.059 331.615ZM326.899 314.627C310.945 310.49 296.761 298.408 292.396 294.417C293.598 293.336 294.814 292.189 296.045 290.985C297.078 291.441 316.138 299.679 336.402 302.671L365.75 308.123C359.659 312.592 346.255 319.648 326.899 314.627ZM350.634 298.839C330.333 299.022 306.172 289.815 299.682 287.179C301.204 285.495 302.702 283.709 304.159 281.813L304.046 282.859C305.339 282.993 325.845 285.177 345.529 285.177C346.27 285.177 347.008 285.167 347.757 285.167H381.741C376.91 290.257 366.535 298.668 350.634 298.839ZM371.603 278.037C354.563 282.402 316.4 279.119 306.797 278.198C308.49 275.745 310.079 273.13 311.533 270.358C317.207 269.745 340.245 267.13 359.975 263.445L360.008 263.628L396.185 256.718C392.821 263.014 385.003 274.609 371.603 278.037ZM378.137 254.238C360.853 259.457 326.119 263.74 314.033 265.14C315.126 262.583 316.105 259.924 316.912 257.127C323.708 255.126 370.83 241.168 404.325 229.098C405.767 228.576 407.188 228.031 408.565 227.473C404.573 235.259 395.356 249.046 378.137 254.238ZM402.652 224.486C372.282 235.419 330.628 247.941 318.285 251.602C319.038 247.909 319.511 244.034 319.651 239.977C319.661 239.612 319.673 239.258 319.684 238.907C328.208 235.087 375.091 214.085 409.201 198.162L452.082 180.385C447.969 190.296 435.4 212.686 402.652 224.486ZM426.974 184.306C396.9 198.867 335.004 226.655 319.764 233.483C319.785 227.963 319.593 222.71 319.242 217.766C322.865 215.963 337.892 208.458 356.419 198.878C374.945 189.295 396.991 177.646 414.635 167.556L414.78 167.464C423.439 162.509 431.031 157.925 436.626 154.163C437.865 153.323 439.047 152.459 440.206 151.586L460.518 138.914C457.845 149.617 449.558 173.373 426.974 184.306ZM437.467 147.506L412.165 163.3C379.159 182.192 330.471 206.674 318.807 212.493C318.139 205.539 317.172 199.265 316.093 193.74C330.832 186.034 345.463 178.168 360.031 170.155C375.138 161.814 390.152 153.323 404.983 144.471C412.392 140.038 419.757 135.513 427.021 130.784C428.83 129.594 430.648 128.421 432.441 127.194C434.238 125.978 436.034 124.751 437.795 123.477C440.25 121.749 442.685 119.966 445.059 118.079L445.07 118.09L465.141 104.18C462.869 113.682 456.15 133.195 437.467 147.506ZM453.027 102.565C452.447 103.427 451.833 104.281 451.231 105.143L450.333 106.428L449.39 107.521C448.82 108.27 448.036 108.963 447.32 109.679C446.615 110.405 445.796 111.067 445.012 111.746C441.852 114.463 438.445 117.023 434.954 119.477C433.227 120.715 431.466 121.932 429.692 123.115C427.932 124.331 426.124 125.488 424.338 126.672C417.154 131.343 409.836 135.842 402.459 140.253C387.709 149.062 372.729 157.541 357.657 165.85C343.527 173.621 329.322 181.272 315.035 188.74C312.888 179.191 310.536 172.43 309.192 168.998C312.285 167.132 315.4 165.313 318.537 163.52C324.946 159.847 331.424 156.256 337.904 152.651L347.61 147.222C350.85 145.391 354.099 143.584 357.306 141.707C370.205 134.33 382.935 126.682 395.598 118.919C408.232 111.11 420.726 103.099 433.146 94.9617C439.354 90.8904 445.548 86.789 451.709 82.6407C456.277 79.5365 460.809 76.4138 465.346 73.2626C465.313 73.4551 465.28 73.6492 465.233 73.8317C464.812 75.8774 464.268 77.8888 463.676 79.9017C462.461 83.9003 460.97 87.8219 459.174 91.6093C457.381 95.3925 455.321 99.0516 453.027 102.565ZM299.565 167.884C298.498 168.579 297.428 169.268 296.373 169.998C293.259 172.146 290.19 174.417 287.269 176.941C284.417 179.385 281.732 182.134 279.391 185.205C278.644 183.989 277.846 182.805 277.029 181.634C279.925 178.603 288.35 169.293 295.497 156.596L305.397 141.105C307.286 147.108 308.944 158.414 299.565 167.884ZM293.872 149.165C287.043 163.019 277.609 173.815 274.016 177.667C271.54 174.589 268.866 171.715 266.15 169.075C269.608 164.178 279.311 149.912 286.063 134.932L294.463 121.033C296.702 126.65 299.554 137.65 293.872 149.165ZM282.28 131.343C276.006 145.789 266.31 160.255 262.527 165.69C259.651 163.122 256.798 160.814 254.126 158.801C257.297 153.119 266.515 136.083 272.084 120.544L280.801 101.064C283.621 107.236 287.517 119.284 282.28 131.343ZM270.755 107.736C267.3 123.955 254.343 148.243 250.126 155.879C246.488 153.334 243.488 151.473 241.658 150.392L268.458 81.6292C270.675 86.6421 273.3 95.7905 270.755 107.736ZM240.033 155.153C247.034 159.437 266.482 172.383 276.394 189.741C275.254 191.706 274.253 193.751 273.461 195.854C272.04 199.546 271.132 203.366 270.492 207.149C269.231 214.743 269.016 222.269 268.856 229.733C268.812 233.462 268.801 237.18 268.812 240.897C268.823 244.638 268.834 248.271 268.709 251.909C268.435 259.183 267.688 266.435 265.993 273.414C264.549 279.404 262.367 285.247 259.104 290.28C255.297 285.937 251.341 281.848 247.227 277.88C248.114 273.301 249.455 258.321 240.999 222.12C232.839 187.148 237.827 163.052 240.033 155.153ZM144.47 294.314C144.459 297.996 144.573 301.589 144.971 305.351L145.39 309.294L148.744 307.112L165.179 296.462C166.475 297.156 167.758 297.725 169.111 298.247C170.873 298.92 172.68 299.464 174.566 299.862C176.545 300.271 178.636 300.52 180.761 300.475C182.523 306.625 187.5 324.093 193.831 346.972C200.492 371.024 214.381 388.684 235.123 399.48C249.945 407.201 268.22 411.188 288.474 411.188C291.988 411.188 295.567 411.064 299.193 410.827C306.329 410.348 313.319 409.132 320.049 407.449C330.65 407.733 336.392 413.927 343.619 421.746C351.679 430.463 361.703 441.309 381.866 446.923C387.095 448.377 392.344 449 397.539 449C430.579 449 460.926 423.441 462.391 422.191L464.985 419.974L383.786 371.386L328.868 338.503C329.537 338.528 330.186 338.551 330.832 338.551C344.221 338.551 353.256 332.642 353.746 332.31L357.372 329.888L338.904 321.263C339.266 321.273 339.641 321.273 339.997 321.273C360.67 321.273 372.455 308.966 373.047 308.331L376.102 305.054L361.758 302.385C379.707 298.043 388.57 284.711 389.015 284.041L391.471 280.254H379.74C395.823 272.458 402.448 255.081 402.754 254.252L404.278 250.17L393.65 252.192C407.732 242.599 413.849 228.371 415.325 224.449C451.016 206.982 458.276 177.919 458.597 176.58L459.685 171.905L444.069 178.383C462.789 160.734 466.336 135.411 466.507 134.103L467.176 128.955L455.537 136.217C468.983 118.364 470.995 100.03 471.097 98.9973L471.619 93.7092L458.823 102.577C460.572 99.7021 462.176 96.7435 463.618 93.6978C465.517 89.6992 467.084 85.5508 468.38 81.3111C469.005 79.1856 469.585 77.0386 470.042 74.8546C470.505 72.6477 470.882 70.5379 471.097 68.1384L471.565 63L467.256 65.9544H467.244C461.142 70.0913 454.949 74.1599 448.751 78.207C442.568 82.2897 436.364 86.2997 430.123 90.3026C417.669 98.2927 405.095 106.112 392.459 113.816C379.843 121.544 367.148 129.147 354.305 136.481C351.109 138.343 347.87 140.129 344.656 141.948L334.959 147.367C328.482 150.961 321.981 154.551 315.524 158.246C313.511 159.393 311.511 160.551 309.513 161.734C315.056 148.222 308.169 134.787 308.066 134.604L306.102 130.875L302.078 137.172C302.874 124.601 297.122 115.113 296.794 114.577L294.668 111.169L289.804 119.226C290.052 105.52 283.04 94.7092 282.652 94.1186L280.187 90.4039L276.734 98.1315C276.802 83.5822 270.378 74.7989 270.039 74.3539L267.391 70.8189L237.328 147.981L237.317 147.969L236.328 150.551L236.317 150.584V150.595C235.885 151.731 225.849 178.828 236.214 223.234C243.044 252.499 243.307 267.334 242.806 273.743C238.374 269.719 233.782 265.866 228.963 262.275C226.03 260.114 223.064 258.014 219.962 256.083C218.438 255.081 216.836 254.184 215.268 253.241C213.653 252.375 212.084 251.445 210.425 250.648C203.879 247.339 196.856 244.75 189.456 243.509C185.739 242.943 181.954 242.772 178.158 243.034C174.362 243.362 170.555 244.25 166.997 245.817C163.44 247.387 160.178 249.695 157.496 252.489C154.801 255.287 152.654 258.515 150.982 261.9C147.641 268.708 145.982 276.052 145.129 283.337C144.71 286.985 144.493 290.655 144.47 294.314Z" fill="#383738"/>
<path d="M95.0123 251.296C94.4745 250.801 93.6087 249.867 93.0883 249.22C89.983 245.36 88.8586 241.328 89.7027 237.082C90.1045 235.06 91.2055 232.412 92.4391 230.5L92.9614 229.69L93.7221 230.362C96.2194 232.568 98.3726 235.902 99.1006 238.688C99.521 240.297 99.6175 242.617 99.3338 244.294C98.9627 246.488 97.8345 249.34 96.5054 251.445C96.2445 251.858 96.0219 252.196 96.0106 252.196C95.9994 252.196 95.5501 251.791 95.0123 251.296Z" fill="#B2F7EF"/>
<path d="M59.3973 249.205C56.9494 248.922 54.4944 247.877 52.4276 246.238C50.9902 245.098 48.2464 241.981 47.9114 241.108C47.8549 240.961 48.1579 240.79 49.3377 240.305C57.1175 237.107 63.6183 238.886 68.6536 245.592C69.1917 246.309 69.632 246.936 69.632 246.985C69.632 247.255 66.7463 248.377 64.9583 248.801C62.878 249.295 61.216 249.416 59.3973 249.205Z" fill="#B2F7EF"/>
<path d="M121.823 266.209C119.543 263.66 117.915 260.466 117.406 257.547C117.128 255.953 117.226 253.613 117.635 252.074C118.217 249.883 119.35 247.616 120.904 245.535L121.817 244.311L122.507 245.07C124.511 247.276 126.129 250.157 126.769 252.66C127.721 256.381 126.95 260.472 124.581 264.276C124.042 265.14 122.687 266.953 122.58 266.953C122.529 266.953 122.188 266.619 121.823 266.209Z" fill="#B2F7EF"/>
<path d="M87.1861 278.071C87.0552 278.05 86.4896 278 85.9293 277.959C85.3689 277.918 84.8456 277.844 84.7662 277.795C84.5933 277.689 85.3152 275.501 86.035 273.95C87.5794 270.622 89.88 268.156 92.7796 266.718C94.9696 265.632 97.1662 265.168 100.099 265.171C101.704 265.172 103.501 265.318 103.641 265.457C103.725 265.542 103.183 267.194 102.66 268.442C100.602 273.353 97.1867 276.454 92.5792 277.595C90.9218 278.005 88.2661 278.239 87.1861 278.071Z" fill="#B2F7EF"/>
<path d="M111.406 296.332C110.85 296.266 110.377 296.194 110.355 296.172C110.333 296.15 110.536 295.474 110.804 294.67C111.713 291.954 113.068 289.599 114.717 287.874C115.935 286.598 116.928 285.867 118.486 285.101C120.691 284.016 123.049 283.495 125.761 283.496C127.044 283.496 129.241 283.685 129.367 283.806C129.472 283.908 128.522 286.542 127.958 287.71C127.635 288.379 127.035 289.431 126.623 290.049C125.758 291.347 123.942 293.229 122.846 293.964C121.314 294.991 119.388 295.784 117.471 296.175C116.361 296.402 112.774 296.495 111.406 296.332Z" fill="#B2F7EF"/>
<path d="M290.088 379.03C261.096 376.772 236.925 361.999 216.669 334.155C209.105 323.757 201.431 309.489 196.755 297.125L194.995 292.473L195.69 290.729C196.212 289.417 196.39 288.191 196.406 285.787C196.427 282.79 195.814 279.391 195.254 279.391C195.119 279.391 194.434 280.792 193.731 282.505C190.875 289.465 189.189 291.828 186.069 293.238C184.494 293.951 183.852 294.031 179.934 294.003C175.29 293.97 171.395 293.179 166.855 291.345L164.883 290.549L157.429 295.384L149.975 300.22L149.701 299.315C149.325 298.078 149.716 287.431 150.297 283.094C153.038 262.606 161.352 251.245 175.558 248.576C179.814 247.776 187.018 248.057 191.884 249.212C198.796 250.852 205.738 253.697 212.951 257.845C225.533 265.081 239.829 276.88 251.873 289.968L255.876 294.317L253.586 296.629C252.326 297.901 250.213 299.691 248.889 300.608C246.476 302.279 241.931 304.637 241.123 304.637C240.095 304.637 240.816 305.238 242.041 305.403C247.229 306.098 254.24 303.16 259.108 298.25C269.017 288.255 274.331 269.231 274.362 243.647C274.371 235.38 274.912 220.476 275.379 215.63C277.282 195.85 282.83 186.771 300.214 174.989C302.681 173.317 304.763 172.013 304.841 172.091C305.202 172.452 307.816 181.077 309.03 185.914C314.359 207.139 316.254 235.075 313.376 249.989C311.409 260.179 306.218 271.067 299.018 280.098C292.876 287.804 283.631 295.82 274.922 300.991C272.788 302.258 272.004 302.9 272.129 303.274C272.225 303.561 272.5 304.382 272.74 305.098C273.068 306.076 274.258 307.404 277.534 310.442C290.346 322.327 302.294 330.739 312.247 334.882C313.53 335.416 324.538 341.833 336.71 349.142L358.84 362.431L354.101 364.702C342.562 370.231 329.615 374.674 318.161 377.035C309.861 378.747 297.617 379.617 290.088 379.03Z" fill="#B2F7EF"/>
<path d="M275.869 405.602C239.663 401.982 215.217 385.99 203.15 358.031C200.78 352.541 199.867 349.603 193.777 327.863C190.899 317.588 187.955 307.103 187.236 304.562L185.928 299.943L187.003 299.588C187.594 299.393 188.756 298.803 189.585 298.278L191.092 297.322L192.04 299.885C196.765 312.661 205.529 328.57 214.115 339.959C231.278 362.724 253.018 377.499 276.595 382.423C287.771 384.757 300.832 385.037 313.401 383.212C327.343 381.187 343.689 375.799 359.249 368.098L364.198 365.648L370.693 369.499C374.266 371.616 377.316 373.474 377.471 373.626C377.822 373.972 366.636 381.435 360.527 384.931C344.788 393.939 329.387 400.145 314.655 403.418C306.129 405.312 302.319 405.682 290.175 405.798C283.973 405.857 277.535 405.768 275.869 405.602Z" fill="#B2F7EF"/>
<path d="M327.202 333.227C316.296 332.262 304.76 326.42 290.307 314.543C286.252 311.211 279.402 305.025 279.406 304.7C279.408 304.573 280.338 303.87 281.474 303.139C282.609 302.407 284.671 300.94 286.055 299.878L288.572 297.949L291.646 300.567C297.211 305.308 302.931 309.313 308.927 312.665C310.555 313.575 319.46 317.841 328.717 322.147C337.974 326.452 345.679 330.093 345.84 330.238C346.231 330.59 341.447 332.079 337.932 332.699C334.173 333.362 330.675 333.534 327.202 333.227Z" fill="#B2F7EF"/>
<path d="M333.093 315.729C324.046 314.321 314.781 310.459 305.36 304.168C300.866 301.167 295.126 296.752 293.63 295.145L292.877 294.336L294.471 292.787L296.066 291.238L299.768 292.715C309.112 296.443 322.775 300.41 332.083 302.097C351.647 305.644 364.903 308.166 364.903 308.341C364.903 308.747 359.636 311.666 356.756 312.855C351.423 315.058 347.678 315.787 341.003 315.923C337.764 315.989 334.204 315.902 333.093 315.729Z" fill="#B2F7EF"/>
<path d="M340.379 298.043C330.178 296.808 317.809 293.662 305.409 289.147C302.884 288.228 300.676 287.334 300.502 287.16C300.151 286.809 303.555 282.666 303.979 282.928C304.29 283.12 318.262 284.299 326.024 284.789C329.171 284.988 342.875 285.239 356.476 285.347L381.205 285.544L379.197 287.358C373.075 292.887 365.028 296.781 357.05 298.075C353.255 298.69 345.604 298.676 340.379 298.043Z" fill="#B2F7EF"/>
<path d="M333.093 279.835C324.919 279.498 307.755 278.234 307.469 277.947C307.391 277.869 308.158 276.482 309.173 274.864C310.188 273.247 311.111 271.635 311.223 271.282C311.475 270.488 311.086 270.562 321.648 269.3C332.39 268.016 342.294 266.612 351.607 265.053C355.495 264.402 359.206 263.814 359.854 263.747C360.502 263.679 368.725 262.153 378.127 260.355C387.529 258.557 395.301 257.165 395.397 257.262C395.638 257.502 393.784 260.513 391.516 263.565C386.243 270.663 378.838 275.942 371.461 277.864C368.596 278.61 363.331 279.325 357.834 279.713C353.469 280.021 339.304 280.091 333.093 279.835Z" fill="#B2F7EF"/>
<path d="M314.586 264.328C314.722 264.004 315.358 262.283 316 260.503L317.166 257.267L329.001 253.701C354.236 246.096 388.395 235.05 402.435 229.954C405.398 228.879 407.867 228.033 407.923 228.074C407.978 228.115 407.348 229.292 406.521 230.69C400.967 240.085 392.167 248.197 383.321 252.076C376.051 255.265 359.863 258.717 336.627 262.035C329.989 262.983 315.132 264.917 314.487 264.917C314.405 264.917 314.45 264.652 314.586 264.328Z" fill="#B2F7EF"/>
<path d="M318.598 250.825C318.913 249.797 319.797 242.338 319.797 240.709V239.088L330.484 234.279C352.068 224.566 377.95 212.807 394.188 205.335C409.784 198.159 450.868 180.78 451.275 181.187C451.588 181.5 448.208 187.868 445.783 191.535C442.636 196.293 440.622 198.763 436.341 203.116C428.22 211.373 418.218 217.965 406.643 222.692C396.276 226.925 359.834 238.868 327.276 248.704C320.325 250.804 318.465 251.258 318.598 250.825Z" fill="#B2F7EF"/>
<path d="M319.797 228.089C319.797 225.258 319.702 221.815 319.585 220.438L319.374 217.934L331.283 211.921C381.966 186.327 421 164.988 436.666 154.31C439.2 152.582 444.351 149.245 448.111 146.895C451.871 144.545 456.125 141.885 457.564 140.984C460.638 139.059 460.569 138.711 458.41 145.249C454.217 157.943 446.829 169.422 438.174 176.688C432.436 181.505 428.689 183.479 400.079 196.753C383.224 204.572 337.538 225.354 323.079 231.778L319.797 233.237V228.089Z" fill="#B2F7EF"/>
<path d="M318.506 208.282C318.277 206.199 317.698 202.102 317.22 199.178C316.741 196.253 316.406 193.82 316.474 193.77C316.543 193.721 321.295 191.203 327.034 188.175C377.842 161.371 421.98 135.486 441.314 121.154C450.517 114.333 464.371 104.964 464.478 105.49C464.682 106.48 461.476 115.292 459.205 119.987C454.319 130.087 447.984 138.434 440.335 144.852C437.316 147.385 416.676 160.474 407.316 165.791C397.299 171.481 377.345 182.214 358.507 192.043C349.864 196.553 319.316 212.068 319.079 212.068C318.992 212.068 318.735 210.364 318.506 208.282Z" fill="#7BDFF2"/>
<path d="M314.076 184.033C313.473 181.587 312.195 177.218 311.236 174.326L309.494 169.066L311.027 168.137C314.241 166.191 324.529 160.352 338.311 152.654C374.088 132.668 400.542 116.598 436.097 93.2526C442.762 88.8763 451.905 82.7585 456.415 79.6575C460.925 76.5565 464.703 74.1075 464.811 74.2154C465.061 74.4649 463.101 81.2822 461.626 85.2958C459.87 90.0758 456.118 97.3491 452.839 102.333C450.567 105.784 449.099 107.587 446.736 109.828C436.862 119.191 411.237 135.545 370.794 158.294C357.011 166.047 343.25 173.524 318.242 186.846L315.173 188.481L314.076 184.033Z" fill="#7BDFF2"/>
<path d="M319.741 226.038C319.71 222.243 319.672 218.893 319.657 218.595C319.637 218.218 321.786 216.948 326.697 214.434C330.585 212.444 340.658 207.289 349.082 202.979C391.33 181.364 418.685 166.2 437.107 154.184C448.961 146.451 459.478 139.908 459.698 140.127C460.083 140.512 456.69 149.746 454.476 154.339C448.301 167.151 440.535 176.055 430.55 181.769C423.993 185.521 405.274 194.327 362.042 213.994C339.463 224.266 320.202 232.939 319.967 232.939C319.873 232.939 319.772 229.833 319.741 226.038Z" fill="#7BDFF2"/>
<path d="M318.897 250.022C319.128 249.064 319.774 243.067 319.883 240.868L319.965 239.205L331.073 234.189C337.183 231.431 352.861 224.315 365.913 218.377C398.933 203.354 405.961 200.206 418.088 195.007C438.06 186.444 450.697 181.282 450.986 181.571C451.497 182.082 445.411 192.157 441.815 196.753C439.157 200.15 431.557 207.594 428.005 210.281C418.07 217.794 410.928 221.274 392 227.822C372.753 234.481 321.108 250.779 319.254 250.779C318.864 250.779 318.765 250.568 318.897 250.022Z" fill="#7BDFF2"/>
<path d="M314.768 264.374C314.779 264.21 315.347 262.576 316.03 260.743L317.272 257.411L330.232 253.469C354.914 245.963 381.76 237.309 398.841 231.353C403.344 229.783 407.111 228.582 407.213 228.684C407.469 228.94 405.908 231.57 403.534 234.882C398.205 242.313 389.942 249.157 382.686 252.149C374.131 255.677 355.934 259.304 328.044 263.041C316.982 264.523 314.743 264.747 314.768 264.374Z" fill="#7BDFF2"/>
<path d="M326.697 279.375C316.999 278.739 308.171 277.982 307.961 277.767C307.792 277.595 311.218 271.364 311.803 270.778C311.865 270.717 316.226 270.128 321.494 269.47C340.956 267.039 354.03 264.982 376.18 260.87C397.212 256.964 395.373 257.225 394.851 258.22C392.397 262.895 386.171 269.851 381.877 272.717C376.601 276.237 372.709 277.684 365.576 278.781C361.579 279.395 359.229 279.49 346.053 279.57C337.814 279.62 329.104 279.532 326.697 279.375Z" fill="#7BDFF2"/>
<path d="M337.806 297.525C332.326 296.703 325.756 295.258 319.531 293.504C314.89 292.197 304.484 288.749 301.859 287.648L300.584 287.113L301.18 286.103C301.508 285.548 302.239 284.645 302.805 284.097L303.833 283.101L309.038 283.592C322.641 284.874 328.927 285.131 354.255 285.439C368.486 285.612 380.195 285.819 380.275 285.899C380.527 286.151 376.957 289.126 374.126 291.023C369.118 294.38 362.625 296.994 357.049 297.899C353.51 298.474 342.734 298.264 337.806 297.525Z" fill="#7BDFF2"/>
<path d="M329.727 314.939C320.092 312.644 311.164 308.283 301.158 300.987C298.961 299.384 296.26 297.24 295.157 296.222L293.152 294.37L294.661 292.902L296.169 291.433L299.82 292.865C312.631 297.888 322.212 300.413 343.191 304.295C351.152 305.768 359.159 307.28 360.985 307.656C362.81 308.032 364.401 308.345 364.519 308.35C365.449 308.396 357.819 312.334 354.47 313.537C349.97 315.154 348.003 315.441 340.33 315.596C333.585 315.732 332.864 315.687 329.727 314.939Z" fill="#7BDFF2"/>
<path d="M325.358 332.874C316.531 331.589 306.325 326.644 295.455 318.387C291.507 315.388 285.356 310.179 282.246 307.201C279.961 305.014 279.653 304.592 280.133 304.301C280.443 304.114 282.469 302.666 284.636 301.084L288.577 298.208L290.133 299.518C297.484 305.703 304.52 310.561 310.602 313.65C312.79 314.761 319.502 317.978 325.519 320.799C345.254 330.051 345.604 330.227 344.988 330.576C343.958 331.16 338.173 332.546 335.29 332.9C331.996 333.303 328.24 333.294 325.358 332.874Z" fill="#7BDFF2"/>
<path d="M288.997 378.833C288.441 378.755 286.169 378.447 283.947 378.148C277.016 377.217 268.997 375.018 262.123 372.164C245.925 365.439 230.595 352.652 217.488 334.932C209.881 324.649 202.116 310.403 197.029 297.4L195.186 292.687L195.807 290.836C196.813 287.837 196.501 279.864 195.362 279.485C195.166 279.419 194.206 281.151 193.228 283.334C191.045 288.204 189.466 290.648 187.578 292.079C185.473 293.674 183.959 293.975 179.092 293.764C174.775 293.576 171.078 292.802 166.805 291.188L164.784 290.425L157.548 295.131C153.568 297.719 150.198 299.772 150.06 299.692C149.921 299.613 149.808 297.474 149.81 294.94C149.822 275.015 155.176 260.149 164.814 253.271C169.651 249.82 174.479 248.428 181.617 248.426C189.329 248.425 195.189 249.755 203.887 253.483C218.498 259.744 236.15 273.3 252.258 290.63L255.665 294.295L252.601 297.194C249.431 300.193 245.29 302.915 242.123 304.081C239.964 304.877 240.195 305.354 242.843 305.574C248.225 306.02 255.887 302.29 260.46 296.997C267.929 288.353 272.582 274.318 273.996 256.165C274.176 253.851 274.413 247.489 274.522 242.027C275.031 216.559 275.824 208.377 278.588 200.119C281.734 190.716 287.962 183.573 300.414 175.083C302.621 173.579 304.527 172.348 304.65 172.348C304.923 172.348 307.28 179.873 308.656 185.139C310.703 192.974 312.359 202.601 313.636 214.088C314.386 220.837 314.487 241.908 313.791 246.571C311.542 261.639 303.771 276.135 291.747 287.694C286.613 292.63 283.309 295.262 277.131 299.34C274.251 301.241 271.998 302.953 271.998 303.24C271.998 304.724 273.663 306.908 277.669 310.678C288.473 320.844 299.115 328.62 308.689 333.343C314.82 336.368 320.484 339.624 341.611 352.268L358.485 362.366L354.541 364.289C340.062 371.349 323.145 376.58 309.53 378.207C305.375 378.704 291.151 379.138 288.997 378.833Z" fill="#7BDFF2"/>
<path d="M253.243 283.786L247.448 277.805L247.812 274.643C248.893 265.239 246.759 247.474 241.873 225.196C239.462 214.204 238.772 210.513 238.005 204.502C235.88 187.848 236.348 172.272 239.386 158.615L240.082 155.486L241.389 156.259C242.108 156.684 244.479 158.273 246.659 159.789C258.112 167.755 267.957 177.309 273.928 186.252L276.131 189.552L274.775 192.479C272.934 196.452 272.493 197.682 271.529 201.528C269.44 209.862 268.986 215.652 268.63 238.493C268.282 260.844 267.958 264.614 265.572 274.131C264.461 278.564 262.933 282.748 261.127 286.301C259.082 290.327 259.804 290.557 253.243 283.786Z" fill="#7BDFF2"/>
<path d="M270.206 172.994L266.564 168.939L270.572 162.817C276.54 153.704 279.532 148.559 283.447 140.677C286.826 133.875 294.291 121.404 294.626 122.002C294.77 122.259 295.3 123.96 295.805 125.782C296.631 128.762 296.723 129.649 296.73 134.647C296.738 140.776 296.38 142.741 294.401 147.439C291.391 154.583 283.184 166.976 276.29 174.789C275.187 176.038 274.187 177.058 274.067 177.055C273.947 177.051 272.21 175.224 270.206 172.994Z" fill="#7BDFF2"/>
<path d="M258.598 162.108C256.504 160.375 254.713 158.879 254.618 158.783C254.522 158.688 255.421 156.816 256.616 154.623C261.629 145.42 266.937 134.17 270.488 125.222C272.233 120.825 280.296 102.394 280.644 102.006C281.102 101.495 283.469 108.532 284.15 112.431C285.039 117.517 284.616 123.864 283.071 128.649C281.569 133.299 274.757 146.316 269.186 155.181C266.948 158.743 262.6 165.285 262.481 165.269C262.439 165.263 260.691 163.841 258.598 162.108Z" fill="#7BDFF2"/>
<path d="M246.129 152.997C244.027 151.63 242.229 150.433 242.132 150.337C242.036 150.241 247.921 134.86 255.21 116.158L268.463 82.153L269.256 84.2482C270.371 87.1925 271.287 91.819 271.538 95.7685C272.168 105.668 268.611 117.82 259.35 137.408C256.717 142.976 250.675 154.723 250.174 155.247C250.05 155.376 248.23 154.363 246.129 152.997Z" fill="#7BDFF2"/>
<path d="M278.389 183.281L277.344 181.762L278.289 180.643C278.809 180.027 280.212 178.401 281.406 177.03C285.012 172.888 290.3 165.538 293.934 159.617C299.771 150.106 305.263 141.684 305.441 141.972C306.076 143 306.732 148.608 306.572 151.646C306.168 159.314 302.749 165.496 296.633 169.617C290.332 173.863 284.203 179.072 281.044 182.866L279.434 184.801L278.389 183.281Z" fill="#7BDFF2"/>
<path d="M275.027 405.383C241.079 401.624 217.908 387.263 205.354 362.198C201.479 354.461 201.035 353.092 192.045 321.137C187.828 306.147 186.248 300.064 186.547 299.964C186.778 299.887 187.874 299.343 188.984 298.755L191.002 297.685L192.96 302.592C196.979 312.665 204.825 327.123 211.199 336.2C217.173 344.709 225.557 354.041 232.782 360.226C249.342 374.402 267.091 382.177 287.314 384.115C293.151 384.674 306.928 384.311 312.728 383.445C327.59 381.226 341.925 376.578 358.229 368.69L364.178 365.811L370.6 369.632C374.132 371.734 377.021 373.567 377.021 373.706C377.021 374.347 365.94 381.664 358.955 385.636C353.709 388.619 342.588 394.008 337.236 396.16C324.856 401.14 311.448 404.55 301.344 405.289C297.275 405.587 277.506 405.657 275.027 405.383Z" fill="#7BDFF2"/>
<path d="M437.416 425.167C434.098 422.992 419.872 413.595 405.802 404.285C391.731 394.975 378.818 386.45 377.105 385.34C373.997 383.326 373.619 382.948 374.412 382.641C374.644 382.551 376.611 381.18 378.783 379.593L382.733 376.708L419.441 398.685L456.15 420.661L452.519 423.207C450.522 424.607 447.664 426.511 446.168 427.437L443.447 429.121L437.416 425.167Z" fill="#7BDFF2"/>
<path d="M423.103 436.153C421.733 435.173 407.018 424.785 390.401 413.069C373.785 401.353 360.195 391.665 360.2 391.541C360.219 391.09 368.684 386.392 369.154 386.573C369.42 386.675 375.427 390.587 382.502 395.267C389.578 399.948 405.002 410.137 416.779 417.911L438.192 432.045L435.629 433.365C433.472 434.476 425.938 437.936 425.676 437.936C425.631 437.936 424.473 437.134 423.103 436.153Z" fill="white"/>
<path d="M374.323 421.387C358.496 409.156 345.519 399.053 345.484 398.935C345.449 398.817 347.462 397.741 349.958 396.544C354 394.605 354.572 394.416 355.201 394.809C356.168 395.413 418.86 439.626 419.204 439.946C419.69 440.399 409.423 442.857 404.618 443.44L403.097 443.624L374.323 421.387Z" fill="#7BDFF2"/>
<path d="M390.149 443.429C380.529 441.858 371.462 438.318 363.725 433.112C358.705 429.735 355.517 426.785 344.198 415.04C339.337 409.996 336.225 407.415 332.792 405.58L330.808 404.52L335.136 402.907C337.515 402.019 339.62 401.388 339.812 401.504C340.243 401.763 393.559 442.942 394.003 443.359C394.322 443.658 391.828 443.703 390.149 443.429Z" fill="white"/>
<path d="M270.315 404.537C269.574 404.362 266.545 403.763 263.582 403.204C238.668 398.507 219.039 385.46 207.965 366.237C204.59 360.378 202.018 354.324 199.813 347.05C197.693 340.055 189.205 309.94 187.644 303.879L186.669 300.092L188.804 299.074L190.939 298.056L192.508 302.188C195.029 308.83 203.11 324.235 208 331.72C226.458 359.973 250.451 377.495 278.502 383.203C283.132 384.146 287.366 384.398 297.58 384.341C308.973 384.276 311.84 384.032 319.271 382.489C330.041 380.254 341.469 376.519 351.438 371.974C355.697 370.033 360.417 367.969 361.928 367.388L364.675 366.33L370.5 369.902C373.703 371.866 376.136 373.777 375.907 374.148C374.804 375.933 359.923 384.826 349.082 390.178C336.89 396.198 325.956 400.274 314.748 402.979C309.432 404.262 306.416 404.467 290.175 404.648C279.992 404.761 271.055 404.711 270.315 404.537Z" fill="#7BDFF2"/>
<path d="M384.086 442.01C370.562 438.463 363.731 434.11 349.082 419.707C342.787 413.518 336.201 407.554 334.446 406.452L331.255 404.45L335.291 402.979C337.511 402.169 339.687 401.729 340.126 402C341.338 402.749 391.351 441.34 392.481 442.399C393.329 443.192 393.14 443.317 391.135 443.285C389.852 443.264 386.68 442.691 384.086 442.01Z" fill="white"/>
<path d="M266.275 403.904C246.758 400.334 230.525 392.391 219.296 380.917C212 373.462 206.939 365.891 203.041 356.605C201.278 352.404 193.354 325.544 188.93 308.773L186.642 300.101L188.735 299.109L190.828 298.118L193.611 304.667C202.236 324.963 213.98 342.361 228.356 356.139C243.236 370.399 258.389 378.674 277.383 382.91C285.753 384.777 306.642 384.902 316.094 383.143C329.065 380.729 342.479 376.276 356.082 369.87C359.932 368.057 363.53 366.574 364.077 366.574C365.687 366.574 376.363 373.41 375.907 374.148C374.804 375.933 359.923 384.826 349.082 390.178C336.887 396.199 325.523 400.438 314.596 403.04C309.511 404.251 306.113 404.478 290.175 404.668C276.039 404.837 270.387 404.656 266.275 403.904Z" fill="white"/>
<path d="M318.221 203.82C317.606 199.47 317.103 195.439 317.103 194.863C317.104 194.235 319.335 192.637 322.658 190.883C376.473 162.489 418.585 137.844 442.324 120.854C455.857 111.169 463.867 105.912 463.867 106.716C463.867 107.11 462.797 110.204 461.489 113.592C457.625 123.597 452.681 131.608 445.65 139.256C436.179 149.559 404.102 168.319 338.587 201.872L319.339 211.73L318.221 203.82Z" fill="white"/>
<path d="M319.614 245.962C319.82 243.613 320.216 241.085 320.495 240.344C321.159 238.58 403.225 201.285 438.422 186.753C444.606 184.199 449.832 182.11 450.035 182.11C450.91 182.11 450.14 183.595 445.823 190.226C437.09 203.642 423.386 214.965 408.043 221.441C396.678 226.238 329.187 248.368 321.555 249.8L319.24 250.234L319.614 245.962Z" fill="white"/>
<path d="M320.47 278.677C319.544 278.551 316.447 278.256 313.586 278.022L308.386 277.596L310.063 274.286C310.986 272.465 311.942 270.976 312.189 270.976C312.435 270.976 319.473 270.055 327.83 268.929C344.739 266.65 356.15 264.804 377.958 260.817C386.064 259.335 393.144 258.212 393.691 258.322C394.389 258.462 393.564 259.954 390.919 263.331C385.012 270.877 379.072 275.069 370.79 277.538C367.948 278.385 362.86 278.622 344.706 278.748C332.302 278.835 321.396 278.803 320.47 278.677Z" fill="white"/>
<path d="M328.759 314.379C318.886 311.719 308.777 306.494 299.109 299.055C293.573 294.795 293.256 294.332 294.866 292.875C296.125 291.736 296.32 291.735 299.071 292.854C310.503 297.505 322.409 300.608 345.894 305.058C356.109 306.994 362.811 308.562 362.674 308.984C362.301 310.13 352.458 314.076 348.258 314.764C342.702 315.674 332.843 315.479 328.759 314.379Z" fill="white"/>
<path d="M258.857 161.845C257.013 160.326 255.399 158.984 255.27 158.862C255.142 158.74 257.443 153.848 260.385 147.991C263.326 142.133 269.002 129.691 272.998 120.341C276.994 110.992 280.48 103.342 280.745 103.342C281.01 103.342 281.915 105.661 282.756 108.495C284.03 112.786 284.233 114.726 283.971 120.108C283.598 127.764 281.754 132.577 273.927 146.328C269.703 153.749 262.839 164.606 262.371 164.606C262.283 164.606 260.702 163.363 258.857 161.845Z" fill="white"/>
<path d="M278.717 183.174C277.638 182.095 277.873 181.643 282.173 176.55C285.833 172.215 290.787 164.995 302.098 147.516L305.532 142.208L306.003 146.605C307.142 157.236 303.936 163.89 294.337 170.819C291.204 173.081 286.556 176.935 284.009 179.383C280.981 182.293 279.149 183.606 278.717 183.174Z" fill="white"/>
</svg>
