<?xml version="1.0" encoding="UTF-8" standalone="no"?>
<!-- Created with Inkscape (http://www.inkscape.org/) -->

<svg
   width="156.1974mm"
   height="139.68832mm"
   viewBox="0 0 156.1974 139.68832"
   version="1.1"
   id="svg5"
   xml:space="preserve"
   xmlns:inkscape="http://www.inkscape.org/namespaces/inkscape"
   xmlns:sodipodi="http://sodipodi.sourceforge.net/DTD/sodipodi-0.dtd"
   xmlns="http://www.w3.org/2000/svg"
   xmlns:svg="http://www.w3.org/2000/svg"><sodipodi:namedview
     id="namedview7"
     pagecolor="#ffffff"
     bordercolor="#000000"
     borderopacity="0.25"
     inkscape:showpageshadow="2"
     inkscape:pageopacity="0.0"
     inkscape:pagecheckerboard="0"
     inkscape:deskcolor="#d1d1d1"
     inkscape:document-units="mm"
     showgrid="false" /><defs
     id="defs2" /><g
     inkscape:label="Layer 1"
     inkscape:groupmode="layer"
     id="layer1"
     transform="translate(-38.589925,-45.577716)"><g
       id="g15536"><g
         id="g13075"
         transform="matrix(0.13215938,0,0,0.13215938,-14.069386,-23.265445)"><path
           fill-rule="nonzero"
           fill="#ffffff"
           fill-opacity="1"
           d="m 573.14453,1075.0391 c -2.02344,7.6914 -6.84766,20.2617 -17.77344,27.9804 -8.96093,6.3203 -20.69531,8.4024 -34.94922,6.2305 3.79688,-13.9219 10.48829,-23.7812 19.91797,-29.3789 11.51563,-6.8516 24.96094,-6.1406 32.80469,-4.832"
           id="path12948" /><path
           fill-rule="nonzero"
           fill="#ffffff"
           fill-opacity="1"
           d="m 643.51172,1125.3398 c -2.02344,7.6797 -6.84766,20.2618 -17.77344,27.9805 -8.96094,6.3086 -20.69531,8.4297 -34.94922,6.2188 3.79688,-13.9102 10.48828,-23.7774 19.91797,-29.3789 11.51563,-6.8516 24.96094,-6.1289 32.80469,-4.8204"
           id="path12950" /><path
           fill-rule="nonzero"
           fill="#ffffff"
           fill-opacity="1"
           d="m 637.37891,1049.3711 c -0.0937,13.3789 -7.65625,24.5195 -12.82032,30.5586 -5.54297,-5.7305 -13.82031,-16.3399 -14.7539,-29.6914 -0.8086,-10.957 3.48437,-22.0664 12.73047,-33.1172 9.92578,10.4297 14.9375,21.2578 14.84375,32.25"
           id="path12952" /><path
           fill-rule="nonzero"
           fill="#ffffff"
           fill-opacity="1"
           d="m 551.85547,1039.2813 c -6.09766,-5.1016 -15.40625,-14.8399 -17.70703,-28.0118 -1.90235,-10.8281 1.21093,-22.30856 9.27343,-34.25778 10.95313,9.36719 17.02344,19.59765 18.08204,30.55858 1.24218,13.3203 -5.13672,25.1797 -9.64844,31.711"
           id="path12954" /><path
           fill-rule="nonzero"
           fill="#ffffff"
           fill-opacity="1"
           d="m 480.05469,1025 c -7.0625,3.5781 -19.66797,8.3086 -32.70703,5.2617 -10.67579,-2.5234 -20.04297,-9.9023 -27.85547,-22.043 12.94922,-6.3789 24.77343,-7.8984 35.23047,-4.5703 12.73046,4.0821 21.10156,14.6328 25.33203,21.3516"
           id="path12956" /><path
           fill-rule="nonzero"
           fill="#383738"
           fill-opacity="1"
           d="m 625.73828,1153.3203 c -8.96094,6.3086 -20.69531,8.4297 -34.94922,6.2188 3.79688,-13.9102 10.48828,-23.7774 19.91797,-29.3789 11.51563,-6.8516 24.96094,-6.1289 32.80469,-4.8204 -2.02344,7.6797 -6.84766,20.2618 -17.77344,27.9805 z m -1.17969,-73.3906 c -5.54297,-5.7305 -13.82031,-16.3399 -14.7539,-29.6914 -0.8086,-10.957 3.48437,-22.0664 12.73047,-33.1172 9.92578,10.4297 14.9375,21.2578 14.84375,32.25 -0.0937,13.3789 -7.65625,24.5195 -12.82032,30.5586 z m -69.1875,23.0898 c -8.96093,6.3203 -20.69531,8.4024 -34.94922,6.2305 3.79688,-13.9219 10.48829,-23.7812 19.91797,-29.3789 11.51563,-6.8516 24.96094,-6.1406 32.80469,-4.832 -2.02344,7.6914 -6.84766,20.2617 -17.77344,27.9804 z m -21.22265,-91.75 c -1.90235,-10.8281 1.21093,-22.30856 9.27343,-34.25778 10.95313,9.36719 17.02344,19.59765 18.08204,30.55858 1.24218,13.3203 -5.13672,25.1797 -9.64844,31.711 -6.09766,-5.1016 -15.40625,-14.8399 -17.70703,-28.0118 z m -86.80078,18.9922 c -10.67579,-2.5234 -20.04297,-9.9023 -27.85547,-22.043 12.94922,-6.3789 24.77343,-7.8984 35.23047,-4.5703 12.73046,4.0821 21.10156,14.6328 25.33203,21.3516 -7.0625,3.5781 -19.66797,8.3086 -32.70703,5.2617 z m 187.91406,61.0586 c 6.72265,-7.5312 17.49219,-22.5 17.67969,-41.6719 0.1875,-17.6171 -8.4336,-34.2695 -25.58204,-49.4882 l -5.51171,-4.87895 -5.19532,5.23045 c -16.15234,16.2695 -23.68359,33.4492 -22.3789,51 0.46875,6.1367 2.02343,11.7383 4.10937,16.8086 -2.58203,-1.4609 -5.19531,-2.9219 -7.84375,-4.3594 l 0.0312,-0.25 -1.02344,-0.3398 c -8.375,-4.5703 -17.08984,-9.0508 -26.17578,-13.4727 5.94532,-8.0273 15.40625,-24.25 13.63282,-43.6679 -1.6211,-17.51956 -11.89063,-33.21097 -30.53125,-46.58988 l -5.97657,-4.28906 -4.63672,5.71875 c -14.3789,17.8711 -20.10546,35.69922 -17.02343,53.03909 1.30468,7.3398 4.10547,13.7187 7.46875,19.2304 -9.64844,-3.8906 -19.66797,-7.6601 -29.96875,-11.2695 -3.70703,-7.1914 -15.28516,-26.26171 -36.72657,-33.21093 -16.74609,-5.3789 -35.23046,-2.10937 -54.86718,9.75 l -6.28907,3.78903 3.42579,6.5118 c 10.76562,20.2617 24.92578,32.5507 42.07421,36.539 4.14063,0.961 8.1875,1.3711 12.10938,1.3711 15.58984,0 28.78516,-6.4492 35.07422,-10.1211 20.53906,7.1914 39.71094,15.0899 57.51172,23.4727 -5.35157,1.1797 -10.82813,3.1094 -16.1211,6.25 -15.15625,8.9297 -24.92578,24.9297 -29.09765,47.4883 l -1.33985,7.2187 7.16016,1.75 c 7.6875,1.8594 14.9375,2.8008 21.75391,2.8008 12.88281,0 24.08984,-3.3594 33.48828,-10.0508 14.0664,-9.9883 20.47656,-25.0898 23.30859,-35.168 16.37109,9.2696 31.33984,18.8594 44.97266,28.4805 -9.1211,0.059 -19.82422,1.8281 -29.87891,7.7383 -15.15625,8.9687 -24.92578,24.9297 -29.09766,47.5312 l -1.33984,7.2188 7.16016,1.7422 c 7.6875,1.8672 14.9375,2.7695 21.72265,2.7695 12.88282,0 24.1211,-3.332 33.51953,-10.0195 15.15625,-10.7735 21.41016,-27.4805 23.90235,-37.4414 61.27734,49.1679 87.60547,93.5195 88.01172,94.2695 l 13.47656,-7.7812 c -2.08594,-3.668 -38.1875,-64.668 -124.98828,-123.6485"
           id="path12958" /><path
           fill-rule="nonzero"
           fill="#ffffff"
           fill-opacity="1"
           d="m 1192.8086,1456.0703 c 18.6719,7.5313 32.0898,22.0391 46.9023,38.0586 22,23.7813 46.9297,50.7695 98.4688,65.1094 10.9219,3.0234 21.9687,4.582 32.9922,4.9805 l -152.3438,-117.7305 c -8.4062,3.3906 -17.0898,6.5898 -26.0195,9.582"
           id="path12960" /><path
           fill-rule="nonzero"
           fill="#ffffff"
           fill-opacity="1"
           d="m 1233.0508,1440.4805 159.3086,123.1211 c 15.9687,-1.461 31.6211,-5.043 46.4687,-9.8711 L 1260,1427.5586 c -8.5,4.3906 -17.4883,8.75 -26.9492,12.9219"
           id="path12962" /><path
           fill-rule="nonzero"
           fill="#ffffff"
           fill-opacity="1"
           d="m 1273.2891,1420.4688 181.0117,127.7226 c 12.789,-5.0117 24.7695,-10.7617 35.5976,-16.6211 l -190.9296,-126.1719 c -7.6875,4.8008 -16.3086,9.9024 -25.6797,15.0704"
           id="path12964" /><path
           fill-rule="nonzero"
           fill="#ffffff"
           fill-opacity="1"
           d="m 1311.3203,1397.4414 191.75,126.7305 c 15.961,-9.4922 28.4414,-18.4336 35.8203,-24.0313 l -201.9922,-120.8789 c -4.6601,3.6094 -13.4687,10.1485 -25.5781,18.1797"
           id="path12966" /><path
           fill-rule="nonzero"
           fill="#ffffff"
           fill-opacity="1"
           d="m 797.33984,1169.2188 c 5.22657,18.3007 18.51563,65.082 35.32032,125.7031 43.35546,156.6094 190.69144,170.6094 274.62114,164.9765 99.2187,-6.5976 190.5703,-68.5273 217.1406,-88.1093 l -38.1524,-22.8399 c -65.8593,34.5508 -127.6289,51.8789 -184.7109,51.8789 -35.1367,0 -68.5,-6.539 -99.8984,-19.6367 -120.32426,-50.2031 -175.00395,-179.7617 -189.35161,-219.6601 -3.76562,3.1406 -8.15625,5.5703 -12.69922,7.0703 -0.74609,0.25 -1.52343,0.4297 -2.26953,0.6172"
           id="path12968" /><path
           fill-rule="nonzero"
           fill="#ffffff"
           fill-opacity="1"
           d="m 1052.5117,1182.5391 c 16.4883,16.0898 64.4766,60.2226 107.3399,73.9101 34.4179,10.961 63.3593,2.961 78.6484,-3.4179 l -82.9805,-38.7813 c -37.3398,-16.0586 -67.0312,-42.2305 -76.2812,-50.8789 -10.3594,8.3984 -19.7266,14.7773 -26.7266,19.168"
           id="path12970" /><path
           fill-rule="nonzero"
           fill="#ffffff"
           fill-opacity="1"
           d="m 1089.5781,1154.5898 c 11.9532,10.9297 50.793,44.0118 94.4805,55.3399 53,13.75 89.7031,-5.5703 106.3828,-17.8086 l -80.3633,-14.9297 c -55.4883,-8.1914 -107.6797,-30.75 -110.5078,-32 -3.3711,3.2969 -6.6992,6.4375 -9.9922,9.3984"
           id="path12972" /><path
           fill-rule="nonzero"
           fill="#ffffff"
           fill-opacity="1"
           d="m 1109.5313,1134.7695 c 17.7695,7.2188 83.9296,32.4297 139.5195,31.9297 43.539,-0.4687 71.9492,-23.5 85.1797,-37.4375 h -93.0586 c -2.0508,0 -4.0703,0.027 -6.1016,0.027 -53.8984,0 -110.0508,-5.9805 -113.5898,-6.3477 l 0.3086,-2.8633 c -3.9883,5.1914 -8.0899,10.0821 -12.2578,14.6914"
           id="path12974" /><path
           fill-rule="nonzero"
           fill="#ffffff"
           fill-opacity="1"
           d="m 1129.0117,1110.1797 c 26.2969,2.5195 130.7969,11.5117 177.4571,-0.4414 36.6914,-9.3867 58.1015,-41.1367 67.3125,-58.3789 l -99.0625,18.9219 -0.09,-0.5 c -54.0273,10.0898 -117.1094,17.25 -132.6484,18.9296 -3.9805,7.5899 -8.3321,14.75 -12.9688,21.4688"
           id="path12976" /><path
           fill-rule="nonzero"
           fill="#ffffff"
           fill-opacity="1"
           d="m 1148.8281,1074.4219 c 33.0938,-3.8321 128.2032,-15.5625 175.5313,-29.8516 47.1523,-14.2187 72.3906,-51.96874 83.3203,-73.28905 -3.7695,1.52734 -7.6602,3.01953 -11.6094,4.44922 -91.7187,33.05073 -220.75,71.26953 -239.3594,76.75003 -2.2109,7.6601 -4.8906,14.9414 -7.8828,21.9414"
           id="path12978" /><path
           fill-rule="nonzero"
           fill="#ffffff"
           fill-opacity="1"
           d="m 1160.4688,1037.3516 c 33.8007,-10.0235 147.8593,-44.31254 231.0195,-74.25004 89.6719,-32.3125 124.0898,-93.62109 135.3515,-120.76172 l -117.4179,48.67969 c -93.4024,43.60156 -221.7813,101.10938 -245.1211,111.57027 -0.031,0.961 -0.062,1.9297 -0.09,2.9297 -0.3828,11.1094 -1.6796,21.7188 -3.7421,31.8321"
           id="path12980" /><path
           fill-rule="nonzero"
           fill="#ffffff"
           fill-opacity="1"
           d="m 1163.0898,944.69922 c 0.961,13.53906 1.4883,27.92187 1.4297,43.03906 41.7305,-18.69922 211.2188,-94.78906 293.5703,-134.66016 61.8399,-29.9375 84.5313,-94.98828 91.8516,-124.29687 l -55.6211,34.69922 c -3.1719,2.39062 -6.4101,4.75781 -9.8008,7.05859 -15.3203,10.30078 -36.1093,22.85156 -59.8203,36.42188 l -0.3984,0.25 c -48.3125,27.6289 -108.6797,59.52734 -159.4102,85.76953 -50.7304,26.23047 -91.8789,46.78125 -101.8008,51.71875"
           id="path12982" /><path
           fill-rule="nonzero"
           fill="#ffffff"
           fill-opacity="1"
           d="m 948.83984,956.62109 c 23.15625,99.12891 19.48438,140.14841 17.05469,152.68751 11.26563,10.8633 22.09766,22.0625 32.52344,33.9531 8.93363,-13.7812 14.91013,-29.7812 18.86323,-46.1836 4.6407,-19.1093 6.6875,-38.9687 7.4376,-58.8867 0.3398,-9.9609 0.3125,-19.9102 0.2812,-30.1523 -0.031,-10.17973 0,-20.35941 0.1211,-30.57035 0.4375,-20.4375 1.0273,-41.04688 4.4805,-61.83984 1.75,-10.35938 4.2382,-20.82032 8.1289,-30.92969 2.1679,-5.75781 4.9101,-11.35938 8.0312,-16.73828 -27.1406,-47.53125 -80.39451,-82.98047 -99.56639,-94.71094 -6.03906,21.62891 -19.69922,87.60937 2.64453,183.37109"
           id="path12984" /><path
           fill-rule="nonzero"
           fill="#ffffff"
           fill-opacity="1"
           d="m 950.64453,760.21094 c 5.01172,2.96093 13.22656,8.05859 23.1875,15.02734 11.54688,-20.91016 47.02737,-87.41797 56.48827,-131.82812 6.9688,-32.71094 -0.2187,-57.76172 -6.289,-71.48829 l -73.38677,188.28907"
           id="path12986" /><path
           fill-rule="nonzero"
           fill="#ffffff"
           fill-opacity="1"
           d="m 984.78516,783.23828 c 7.3164,5.51172 15.1289,11.83203 23.00394,18.86328 10.3593,-14.88281 36.9101,-54.49219 54.0898,-94.05078 14.3399,-33.01953 3.6719,-66.01172 -4.0508,-82.91016 l -23.8672,53.33985 c -15.25,42.55078 -40.49215,89.19922 -49.17574,104.75781"
           id="path12988" /><path
           fill-rule="nonzero"
           fill="#ffffff"
           fill-opacity="1"
           d="m 1017.7109,811.37109 c 7.4375,7.23047 14.7579,15.09766 21.5391,23.52735 9.8398,-10.54688 35.6719,-40.10938 54.3711,-78.04688 15.5586,-31.53125 7.75,-61.65234 1.6172,-77.03125 l -23,38.0586 c -18.4883,41.01953 -45.0586,80.08203 -54.5274,93.49218"
           id="path12990" /><path
           fill-rule="nonzero"
           fill="#ffffff"
           fill-opacity="1"
           d="m 1047.5,845.76172 c 2.2383,3.20703 4.4219,6.44922 6.4688,9.77734 6.4101,-8.41015 13.7617,-15.9375 21.5703,-22.6289 8,-6.91016 16.4023,-13.12891 24.9297,-19.01172 2.8906,-2 5.8203,-3.88672 8.7421,-5.78907 25.6797,-25.92968 21.1407,-56.89062 15.9688,-73.32812 l -27.1094,42.41797 c -19.5703,34.76953 -42.6406,60.26172 -50.5703,68.5625"
           id="path12992" /><path
           fill-rule="nonzero"
           fill="#ffffff"
           fill-opacity="1"
           d="m 697.96484,1154.3984 c -0.0312,5.8204 0.125,11.711 0.4375,17.5313 l 38.9336,-25.2383 3.17187,-2.0625 3.51953,1.7109 c 4.01172,1.3985 8.5586,2.8985 12.88282,4.1094 4.35546,1.2227 8.74609,2.2696 13.10156,3.0508 8.68359,1.4609 17.39844,1.8984 24.80469,-0.1484 7.4414,-1.961 13.19531,-6.793 17.21093,-14.0118 4.14063,-7.2187 7.19141,-15.9609 11.45313,-25.5507 1.02734,2.4297 1.74219,4.9218 2.36719,7.4726 0.43359,2.5196 0.83984,5.1289 0.90234,7.75 -0.0312,2.6094 0.0273,5.2891 -0.53125,7.9297 -0.25,1.3399 -0.37109,2.6797 -0.77734,3.9883 -0.40625,1.3398 -0.77735,2.6797 -1.2461,3.9805 -0.55859,1.3984 -1.21094,2.8007 -1.89844,4.1679 7.625,22.7813 60.56641,168.0313 184.62503,219.7305 76.7383,31.9922 166.1289,22.5625 265.8086,-27.9805 l -123.1797,-73.7578 c -46.9024,-17.5586 -95.582,-63.9922 -109.1211,-77.5312 -0.3399,0.1601 -0.5313,0.25 -0.5586,0.2812 l -0.8398,-1.6797 c -1.211,-1.2422 -1.961,-2.0195 -2.211,-2.2695 l 0.75,-0.7227 -3.6406,-7.3984 c 1.1211,-0.5312 113,-57.0195 116.832,-172.6992 3.1797,-95.08205 -18.2734,-163.39064 -26.8906,-186.67189 -4.7617,2.98046 -9.4609,6.03125 -14.1328,9.15234 -16.3399,11.19922 -32.0195,23.30859 -43.4102,38.39844 -5.7265,7.5 -10.3398,15.71875 -13.7578,24.53125 -3.4492,8.83984 -5.7617,18.19922 -7.4414,27.82031 -1.707,9.61719 -2.668,19.48047 -3.3594,29.4375 -0.7382,9.92969 -1.0898,20.01172 -1.3984,30.07031 -0.25,10.08203 -0.4023,20.16016 -0.5,30.31254 -0.062,10.0468 -0.1211,20.3789 -0.6211,30.7187 -1.0312,20.6016 -3.3594,41.3008 -8.5,61.6211 -5.1602,20.1992 -13.1602,40.3281 -26.4805,57.418 -1.6211,2.1797 -3.5508,4.1094 -5.28903,6.1601 -1.99219,1.8711 -3.82813,3.8594 -5.97656,5.5703 -4.14063,3.5196 -8.7461,6.5704 -13.63282,8.9688 -4.88672,2.4219 -10.05078,4.2305 -15.34375,5.1914 -5.32031,0.8398 -10.73828,1.25 -15.90234,-0.031 17.67578,-5.9102 31.08984,-16.5196 42.07812,-29.4375 -11.85937,-13.6915 -24.74218,-26.9805 -38.03125,-39.5313 -14.09765,-13.2812 -28.85156,-25.8594 -44.32031,-37.3984 -7.78125,-5.7032 -15.65234,-11.3008 -23.80469,-16.3711 -4.01562,-2.6524 -8.21875,-4.9805 -12.32812,-7.4688 -4.19922,-2.2422 -8.33984,-4.7031 -12.63281,-6.7617 -8.4961,-4.3906 -17.30469,-8 -26.20703,-11.2305 -8.9336,-3.1484 -18.08204,-5.4179 -27.29297,-7.039 -9.21485,-1.4024 -18.51953,-1.8008 -27.69922,-1.211 -9.11719,0.8399 -18.01953,2.9297 -26.20313,6.5391 -8.1875,3.6133 -15.5625,8.832 -21.82031,15.3125 -6.25391,6.4687 -11.39062,14.1289 -15.46484,22.4102 -8.1875,16.6484 -12.51172,35.3476 -14.72266,54.2382 -1.08984,9.4922 -1.64844,19.0508 -1.71094,28.6289"
           id="path12994" /><path
           fill-rule="nonzero"
           fill="#ffffff"
           fill-opacity="1"
           d="m 1154.4688,878.91016 c 2.9531,15.1289 5.6015,32.30859 7.4296,51.35156 31.9414,-15.9336 165.2618,-82.97266 255.6407,-134.70313 l 69.2812,-43.25 c 51.1602,-39.1875 69.5586,-92.61718 75.7813,-118.63672 l -54.961,38.08985 -0.031,-0.0312 c -6.5,5.16797 -13.168,10.05078 -19.8906,14.78125 -4.8204,3.48828 -9.7383,6.84765 -14.6602,10.17969 -4.9102,3.35937 -9.8867,6.57031 -14.8398,9.82812 -19.8907,12.94922 -40.0586,25.33984 -60.3477,37.48047 -40.6094,24.23828 -81.7227,47.48828 -123.0898,70.32812 -39.8907,21.94141 -79.9532,43.48047 -120.3125,64.58204"
           id="path12996" /><path
           fill-rule="nonzero"
           fill="#ffffff"
           fill-opacity="1"
           d="m 1135.5703,811.16016 c 3.6797,9.39843 10.1211,27.91015 16,54.05859 39.1211,-20.44922 78.0195,-41.39844 116.711,-62.67969 41.2695,-22.75 82.289,-45.96875 122.6796,-70.08984 20.1993,-12.07813 40.2383,-24.39844 59.9102,-37.1875 4.8906,-3.24219 9.8398,-6.41016 14.6602,-9.74219 4.8593,-3.23828 9.6796,-6.57031 14.4101,-9.96094 9.5586,-6.71875 18.8867,-13.73047 27.5391,-21.16797 2.1484,-1.85937 4.3906,-3.67187 6.3203,-5.66015 1.9609,-1.96094 4.1094,-3.85938 5.668,-5.91016 l 2.582,-2.99219 2.4609,-3.51953 c 1.6485,-2.35937 3.3281,-4.69922 4.918,-7.05859 6.2812,-9.62109 11.9219,-19.64063 16.832,-30 4.918,-10.37109 9,-21.10938 12.3281,-32.05859 1.6211,-5.51172 3.1094,-11.01954 4.2618,-16.6211 0.1289,-0.5 0.2187,-1.03125 0.3086,-1.55859 -12.4219,8.6289 -24.8321,17.17969 -37.3399,25.67969 -16.8711,11.35937 -33.832,22.58984 -50.832,33.73828 -34.0078,22.28125 -68.2188,44.21875 -102.8164,65.60156 -34.6719,21.25781 -69.5313,42.19922 -104.8516,62.39844 -8.7812,5.14062 -17.6797,10.08984 -26.5508,15.10156 l -26.5781,14.86719 c -17.7422,9.87109 -35.4805,19.70312 -53.0312,29.76172 -8.5899,4.91015 -17.1211,9.89062 -25.5899,15"
           id="path12998" /><path
           fill-rule="nonzero"
           fill="#383738"
           fill-opacity="1"
           d="m 697.96484,1154.3984 c 0.0625,-9.5781 0.6211,-19.1367 1.71094,-28.6289 2.21094,-18.8906 6.53516,-37.5898 14.72266,-54.2382 4.07422,-8.2813 9.21093,-15.9415 15.46484,-22.4102 6.25781,-6.4805 13.63281,-11.6992 21.82031,-15.3125 8.1836,-3.6094 17.08594,-5.6992 26.20313,-6.5391 9.17969,-0.5898 18.48437,-0.1914 27.69922,1.211 9.21093,1.6211 18.35937,3.8906 27.29297,7.039 8.90234,3.2305 17.71093,6.8399 26.20703,11.2305 4.29297,2.0586 8.43359,4.5195 12.63281,6.7617 4.10937,2.4883 8.3125,4.8164 12.32812,7.4688 8.15235,5.0703 16.02344,10.6679 23.80469,16.3711 15.46875,11.539 30.22266,24.1172 44.32031,37.3984 13.28907,12.5508 26.17188,25.8398 38.03125,39.5313 -10.98828,12.9179 -24.40234,23.5273 -42.07812,29.4375 5.16406,1.2812 10.58203,0.871 15.90234,0.031 5.29297,-0.9609 10.45703,-2.7695 15.34375,-5.1914 4.88672,-2.3984 9.49219,-5.4492 13.63282,-8.9688 2.14843,-1.7109 3.98437,-3.6992 5.97656,-5.5703 1.73823,-2.0507 3.66793,-3.9804 5.28903,-6.1601 13.3203,-17.0899 21.3203,-37.2188 26.4805,-57.418 5.1406,-20.3203 7.4688,-41.0195 8.5,-61.6211 0.5,-10.3398 0.5586,-20.6719 0.6211,-30.7187 0.098,-10.15238 0.25,-20.23051 0.5,-30.31254 0.3086,-10.05859 0.6602,-20.14062 1.3984,-30.07031 0.6914,-9.95703 1.6524,-19.82031 3.3594,-29.4375 1.6797,-9.62109 3.9922,-18.98047 7.4414,-27.82031 3.418,-8.8125 8.0313,-17.03125 13.7578,-24.53125 11.3907,-15.08985 27.0703,-27.19922 43.4102,-38.39844 4.6719,-3.12109 9.3711,-6.17188 14.1328,-9.15234 8.6172,23.28125 30.0703,91.58984 26.8906,186.67189 -3.832,115.6797 -115.7109,172.168 -116.832,172.6992 l 3.6406,7.3984 -0.75,0.7227 c 0.25,0.25 1,1.0273 2.211,2.2695 l 0.8398,1.6797 c 0.027,-0.031 0.2187,-0.1211 0.5586,-0.2812 13.5391,13.539 62.2187,59.9726 109.1211,77.5312 l 123.1797,73.7578 c -99.6797,50.543 -189.0703,59.9727 -265.8086,27.9805 -124.05862,-51.6992 -177.00003,-196.9492 -184.62503,-219.7305 0.6875,-1.3672 1.33985,-2.7695 1.89844,-4.1679 0.46875,-1.3008 0.83985,-2.6407 1.2461,-3.9805 0.40625,-1.3086 0.52734,-2.6484 0.77734,-3.9883 0.55859,-2.6406 0.5,-5.3203 0.53125,-7.9297 -0.0625,-2.6211 -0.46875,-5.2304 -0.90234,-7.75 -0.625,-2.5508 -1.33985,-5.0429 -2.36719,-7.4726 -4.26172,9.5898 -7.3125,18.332 -11.45313,25.5507 -4.01562,7.2188 -9.76953,12.0508 -17.21093,14.0118 -7.40625,2.0468 -16.1211,1.6093 -24.80469,0.1484 -4.35547,-0.7812 -8.7461,-1.8281 -13.10156,-3.0508 -4.32422,-1.2109 -8.8711,-2.7109 -12.88282,-4.1094 l -3.51953,-1.7109 -3.17187,2.0625 -38.9336,25.2383 c -0.3125,-5.8203 -0.46875,-11.7109 -0.4375,-17.5313 z m 99.375,14.8204 c 0.7461,-0.1875 1.52344,-0.3672 2.26953,-0.6172 4.54297,-1.5 8.9336,-3.9297 12.69922,-7.0703 14.34766,39.8984 69.02735,169.457 189.35161,219.6601 31.3984,13.0977 64.7617,19.6367 99.8984,19.6367 57.082,0 118.8516,-17.3281 184.7109,-51.8789 l 38.1524,22.8399 c -26.5703,19.582 -117.9219,81.5117 -217.1406,88.1093 -83.9297,5.6329 -231.26568,-8.3671 -274.62114,-164.9765 -16.80469,-60.6211 -30.09375,-107.4024 -35.32032,-125.7031 z m 395.46876,286.8515 c 8.9297,-2.9922 17.6133,-6.1914 26.0195,-9.582 l 152.3438,117.7305 c -11.0235,-0.3985 -22.0703,-1.9571 -32.9922,-4.9805 -51.5391,-14.3399 -76.4688,-41.3281 -98.4688,-65.1094 -14.8125,-16.0195 -28.2304,-30.5273 -46.9023,-38.0586 z m 40.2422,-15.5898 c 9.4609,-4.1719 18.4492,-8.5313 26.9492,-12.9219 l 178.8281,126.1719 c -14.8476,4.8281 -30.5,8.4101 -46.4687,9.8711 z m 221.25,107.7109 -181.0117,-127.7226 c 9.3711,-5.168 17.9922,-10.2696 25.6797,-15.0704 l 190.9296,126.1719 c -10.8281,5.8594 -22.8086,11.6094 -35.5976,16.6211 z m 48.7695,-24.0195 -191.75,-126.7305 c 12.1094,-8.0312 20.918,-14.5703 25.5781,-18.1797 l 201.9922,120.8789 c -7.3789,5.5977 -19.8593,14.5391 -35.8203,24.0313 z m -343.2187,-267.7227 c -42.8633,-13.6875 -90.8516,-57.8203 -107.3399,-73.9101 7,-4.3907 16.3672,-10.7696 26.7266,-19.168 9.25,8.6484 38.9414,34.8203 76.2812,50.8789 l 82.9805,38.7813 c -15.2891,6.3789 -44.2305,14.3789 -78.6484,3.4179 z m 24.207,-46.5195 c -43.6875,-11.3281 -82.5273,-44.4102 -94.4805,-55.3399 3.293,-2.9609 6.6211,-6.1015 9.9922,-9.3984 2.8281,1.25 55.0195,23.8086 110.5078,32 l 80.3633,14.9297 c -16.6797,12.2383 -53.3828,31.5586 -106.3828,17.8086 z m 64.9922,-43.2305 c -55.5899,0.5 -121.75,-24.7109 -139.5195,-31.9297 4.1679,-4.6093 8.2695,-9.5 12.2578,-14.6914 l -0.3086,2.8633 c 3.539,0.3672 59.6914,6.3477 113.5898,6.3477 2.0313,0 4.0508,-0.027 6.1016,-0.027 h 93.0586 c -13.2305,13.9375 -41.6407,36.9688 -85.1797,37.4375 z m 57.418,-56.9609 c -46.6602,11.9531 -151.1602,2.9609 -177.4571,0.4414 4.6367,-6.7188 8.9883,-13.8789 12.9688,-21.4688 15.539,-1.6796 78.6211,-8.8398 132.6484,-18.9296 l 0.09,0.5 99.0625,-18.9219 c -9.211,17.2422 -30.6211,48.9922 -67.3125,58.3789 z m 17.8906,-65.168 c -47.3281,14.2891 -142.4375,26.0195 -175.5313,29.8516 2.9922,-7 5.6719,-14.2813 7.8828,-21.9414 18.6094,-5.4805 147.6407,-43.6993 239.3594,-76.75003 3.9492,-1.42969 7.8399,-2.92188 11.6094,-4.44922 -10.9297,21.32031 -36.168,59.07035 -83.3203,73.28905 z m 67.1289,-81.46874 c -83.1602,29.9375 -197.2188,64.22654 -231.0195,74.25004 2.0625,-10.1133 3.3593,-20.7227 3.7421,-31.8321 0.027,-1 0.059,-1.9687 0.09,-2.9297 23.3398,-10.46089 151.7187,-67.96871 245.1211,-111.57027 l 117.4179,-48.67969 c -11.2617,27.14063 -45.6796,88.44922 -135.3515,120.76172 z m 66.6015,-110.02344 c -82.3515,39.8711 -251.8398,115.96094 -293.5703,134.66016 0.059,-15.11719 -0.4687,-29.5 -1.4297,-43.03906 9.9219,-4.9375 51.0704,-25.48828 101.8008,-51.71875 50.7305,-26.24219 111.0977,-58.14063 159.4102,-85.76953 l 0.3984,-0.25 c 23.711,-13.57032 44.5,-26.1211 59.8203,-36.42188 3.3907,-2.30078 6.6289,-4.66797 9.8008,-7.05859 l 55.6211,-34.69922 c -7.3203,29.30859 -30.0117,94.35937 -91.8516,124.29687 z m 28.7305,-100.76953 -69.2812,43.25 c -90.3789,51.73047 -223.6993,118.76953 -255.6407,134.70313 -1.8281,-19.04297 -4.4765,-36.22266 -7.4296,-51.35156 40.3593,-21.10157 80.4218,-42.64063 120.3125,-64.58204 41.3671,-22.83984 82.4804,-46.08984 123.0898,-70.32812 20.2891,-12.14063 40.457,-24.53125 60.3477,-37.48047 4.9531,-3.25781 9.9296,-6.46875 14.8398,-9.82812 4.9219,-3.33204 9.8398,-6.69141 14.6602,-10.17969 6.7226,-4.73047 13.3906,-9.61328 19.8906,-14.78125 l 0.031,0.0312 54.961,-38.08985 c -6.2227,26.01954 -24.6211,79.44922 -75.7813,118.63672 z M 1529.4297,629.25 c -1.5899,2.35937 -3.2695,4.69922 -4.918,7.05859 l -2.4609,3.51953 -2.582,2.99219 c -1.5586,2.05078 -3.7071,3.94922 -5.668,5.91016 -1.9297,1.98828 -4.1719,3.80078 -6.3203,5.66015 -8.6524,7.4375 -17.9805,14.44922 -27.5391,21.16797 -4.7305,3.39063 -9.5508,6.72266 -14.4101,9.96094 -4.8204,3.33203 -9.7696,6.5 -14.6602,9.74219 -19.6719,12.78906 -39.7109,25.10937 -59.9102,37.1875 -40.3906,24.12109 -81.4101,47.33984 -122.6796,70.08984 -38.6915,21.28125 -77.5899,42.23047 -116.711,62.67969 -5.8789,-26.14844 -12.3203,-44.66016 -16,-54.05859 8.4688,-5.10938 17,-10.08985 25.5899,-15 17.5507,-10.0586 35.289,-19.89063 53.0312,-29.76172 l 26.5781,-14.86719 c 8.8711,-5.01172 17.7696,-9.96094 26.5508,-15.10156 35.3203,-20.19922 70.1797,-41.14063 104.8516,-62.39844 34.5976,-21.38281 68.8086,-43.32031 102.8164,-65.60156 17,-11.14844 33.9609,-22.37891 50.832,-33.73828 12.5078,-8.5 24.918,-17.05079 37.3399,-25.67969 -0.09,0.52734 -0.1797,1.05859 -0.3086,1.55859 -1.1524,5.60156 -2.6407,11.10938 -4.2618,16.6211 -3.3281,10.94921 -7.4101,21.6875 -12.3281,32.05859 -4.9101,10.35937 -10.5508,20.37891 -16.832,30 z m -420.2188,178.85937 c -2.9218,1.90235 -5.8515,3.78907 -8.7421,5.78907 -8.5274,5.88281 -16.9297,12.10156 -24.9297,19.01172 -7.8086,6.6914 -15.1602,14.21875 -21.5703,22.6289 -2.0469,-3.32812 -4.2305,-6.57031 -6.4688,-9.77734 7.9297,-8.30078 31,-33.79297 50.5703,-68.5625 l 27.1094,-42.41797 c 5.1719,16.4375 9.7109,47.39844 -15.9688,73.32812 z m -15.5898,-51.25781 c -18.6992,37.9375 -44.5313,67.5 -54.3711,78.04688 -6.7812,-8.42969 -14.1016,-16.29688 -21.5391,-23.52735 9.4688,-13.41015 36.0391,-52.47265 54.5274,-93.49218 l 23,-38.0586 c 6.1328,15.37891 13.9414,45.5 -1.6172,77.03125 z m -31.7422,-48.80078 c -17.1797,39.55859 -43.7305,79.16797 -54.0898,94.05078 -7.87504,-7.03125 -15.68754,-13.35156 -23.00394,-18.86328 8.68359,-15.55859 33.92574,-62.20703 49.17574,-104.75781 l 23.8672,-53.33985 c 7.7227,16.89844 18.3907,49.89063 4.0508,82.91016 z m -31.5586,-64.64062 c -9.4609,44.41015 -44.94139,110.91796 -56.48827,131.82812 -9.96094,-6.96875 -18.17578,-12.06641 -23.1875,-15.02734 l 73.38677,-188.28907 c 6.0703,13.72657 13.2578,38.77735 6.289,71.48829 z M 946.19531,773.25 c 19.17188,11.73047 72.42579,47.17969 99.56639,94.71094 -3.1211,5.3789 -5.8633,10.98047 -8.0312,16.73828 -3.8907,10.10937 -6.3789,20.57031 -8.1289,30.92969 -3.4532,20.79296 -4.043,41.40234 -4.4805,61.83984 -0.1211,10.21094 -0.1523,20.39062 -0.1211,30.57035 0.031,10.2421 0.059,20.1914 -0.2812,30.1523 -0.7501,19.918 -2.7969,39.7774 -7.4376,58.8867 -3.9531,16.4024 -9.9296,32.4024 -18.86323,46.1836 -10.42578,-11.8906 -21.25781,-23.0898 -32.52344,-33.9531 2.42969,-12.5391 6.10156,-53.5586 -17.05469,-152.68751 C 926.49609,860.85937 940.15625,794.87891 946.19531,773.25 Z m -261.67578,381.0586 c -0.0312,10.082 0.28125,19.9219 1.37109,30.2227 l 1.14844,10.7968 9.1836,-5.9765 45.0039,-29.1602 c 3.54688,1.8984 7.0625,3.457 10.76563,4.8867 4.82422,1.8438 9.77343,3.3321 14.9375,4.4219 5.41797,1.1211 11.14453,1.8008 16.96484,1.6797 4.82422,16.8398 18.45313,64.6719 35.78906,127.3203 18.23828,65.8594 56.26953,114.2188 113.06641,143.7813 40.58594,21.1406 90.6289,32.0585 146.0898,32.0585 9.6211,0 19.4219,-0.3398 29.3516,-0.9882 19.5391,-1.3125 38.6797,-4.6407 57.1094,-9.25 29.0273,0.7773 44.75,17.7382 64.539,39.1484 22.0704,23.8711 49.5196,53.5703 104.7305,68.9414 14.3203,3.9805 28.6914,5.6875 42.918,5.6875 90.4726,0 173.5703,-69.9883 177.582,-73.4101 l 7.1016,-6.0704 -222.3438,-133.0468 -150.3789,-90.043 c 1.8321,0.07 3.6094,0.1328 5.3789,0.1328 36.6602,0 61.4024,-16.1797 62.7422,-17.0898 l 9.9297,-6.6328 -50.5703,-23.6172 c 0.9922,0.027 2.0195,0.027 2.9922,0.027 56.6094,0 88.8789,-33.6992 90.5,-35.4375 l 8.3672,-8.9726 -39.2774,-7.3086 c 49.1485,-11.8907 73.418,-48.3985 74.6367,-50.2305 l 6.7227,-10.3711 H 1328.75 c 44.0391,-21.3477 62.1797,-68.9297 63.0195,-71.1992 l 4.1719,-11.1797 -29.1016,5.5391 c 38.5586,-26.2696 55.3086,-65.23052 59.3516,-75.9688 97.7305,-47.82813 117.6094,-127.41016 118.4883,-131.07813 l 2.9805,-12.80078 -42.7618,17.73828 c 51.2618,-48.32812 60.9727,-117.66796 61.4414,-121.25 l 1.8321,-14.09765 -31.8711,19.88672 c 36.8203,-48.88672 42.3281,-99.08985 42.6094,-101.91797 L 1580.3398,605 l -35.039,24.28125 c 4.789,-7.87109 9.1797,-15.97266 13.1289,-24.3125 5.1992,-10.94922 9.4922,-22.30859 13.0391,-33.91797 1.7109,-5.82031 3.3007,-11.69922 4.5507,-17.67969 1.2696,-6.04297 2.3008,-11.82031 2.8907,-18.39062 l 1.2812,-14.07031 L 1568.3906,529 h -0.031 c -16.711,11.32812 -33.668,22.46875 -50.6406,33.55078 -16.9297,11.17969 -33.918,22.16016 -51.0079,33.12109 -34.1015,21.87891 -68.5312,43.28907 -103.1328,64.38672 -34.5468,21.16016 -69.3086,41.98047 -104.4765,62.0625 -8.75,5.09766 -17.6211,9.98828 -26.4219,14.96875 l -26.5508,14.83985 c -17.7383,9.83984 -35.5391,19.67187 -53.2187,29.78906 -5.5118,3.14062 -10.9883,6.3125 -16.461,9.55078 15.1797,-37 -3.6797,-73.78906 -3.9609,-74.28906 l -5.3789,-10.21094 -11.0196,17.24219 c 2.1797,-34.42188 -13.5703,-60.40235 -14.4687,-61.8711 l -5.8203,-9.33203 -13.3203,22.0625 c 0.6797,-37.53125 -18.5196,-67.13281 -19.5821,-68.75 l -6.75,-10.17187 -9.457,21.16015 c 0.1875,-39.83984 -17.4023,-63.89062 -18.332,-65.10937 l -7.25,-9.67969 -82.32034,211.28906 -0.0312,-0.0312 -2.70703,7.07032 -0.0312,0.0898 v 0.0312 c -1.18359,3.10938 -28.66406,77.30859 -0.28125,198.90234 18.70313,80.13677 19.42188,120.75787 18.05078,138.30867 -12.13672,-11.0196 -24.71094,-21.5703 -37.90625,-31.4024 -8.03125,-5.9179 -16.15234,-11.6679 -24.64844,-16.957 -4.17187,-2.7422 -8.55859,-5.1992 -12.85156,-7.7813 -4.42187,-2.371 -8.71875,-4.9179 -13.26172,-7.1015 -17.92578,-9.0586 -37.15625,-16.1485 -57.41797,-19.5469 -10.17968,-1.5508 -20.54296,-2.0195 -30.9375,-1.3008 -10.39453,0.8985 -20.82031,3.3281 -30.5625,7.6211 -9.73828,4.2969 -18.67187,10.6172 -26.01562,18.2696 -7.37891,7.6601 -13.25781,16.5 -17.83594,25.7695 -9.14844,18.6406 -13.6914,38.75 -16.02734,58.6992 -1.14844,9.9883 -1.74219,20.0391 -1.80469,30.0586"
           id="path13000" /></g><path
         style="fill:#b2f7ef;fill-opacity:1;stroke:#000000;stroke-width:0;stroke-dasharray:none;stroke-opacity:1"
         d="m 221.09543,429.80648 c -0.73559,-0.67687 -1.91984,-1.95472 -2.63166,-2.83966 -4.24725,-5.28021 -5.78517,-10.79415 -4.63071,-16.60253 0.54959,-2.76511 2.05548,-6.38705 3.74276,-9.00204 l 0.71446,-1.10729 1.04047,0.91916 c 3.41562,3.01739 6.3607,7.57633 7.35645,11.38768 0.575,2.20086 0.70699,5.37306 0.31901,7.66686 -0.50766,3.00136 -2.05079,6.90295 -3.86862,9.78129 -0.3568,0.56495 -0.66133,1.02719 -0.67673,1.02719 -0.0154,0 -0.62984,-0.5538 -1.36543,-1.23066 z"
         id="path13513"
         transform="scale(0.26458333)" /><path
         style="fill:#b2f7ef;fill-opacity:1;stroke:#000000;stroke-width:0;stroke-dasharray:none;stroke-opacity:1"
         d="m 172.38259,426.94697 c -3.3481,-0.38748 -6.70599,-1.81737 -9.53297,-4.05942 -1.96602,-1.55923 -5.71882,-5.82158 -6.17709,-7.0158 -0.0772,-0.20125 0.33727,-0.43454 1.95096,-1.09802 10.64081,-4.3751 19.53236,-1.94144 26.41946,7.23113 0.73606,0.98032 1.33829,1.8375 1.33829,1.90486 0,0.36995 -3.94703,1.90397 -6.39263,2.48451 -2.84532,0.67542 -5.11854,0.84062 -7.60602,0.55274 z"
         id="path13515"
         transform="scale(0.26458333)" /><path
         style="fill:#b2f7ef;fill-opacity:1;stroke:#000000;stroke-width:0;stroke-dasharray:none;stroke-opacity:1"
         d="m 257.76557,450.2043 c -3.11742,-3.48712 -5.34505,-7.85596 -6.04143,-11.8485 -0.38017,-2.1796 -0.24634,-5.38036 0.31299,-7.4853 0.79625,-2.99656 2.34658,-6.09734 4.47196,-8.94423 l 1.24919,-1.67326 0.94299,1.03775 c 2.7416,3.0171 4.95448,6.95729 5.83028,10.38122 1.3017,5.08899 0.24729,10.68504 -2.99346,15.88717 -0.73649,1.18223 -2.59015,3.66251 -2.73721,3.66251 -0.0692,0 -0.53508,-0.45781 -1.03531,-1.01736 z"
         id="path13517"
         transform="scale(0.26458333)" /><path
         style="fill:#b2f7ef;fill-opacity:1;stroke:#000000;stroke-width:0;stroke-dasharray:none;stroke-opacity:1"
         d="m 210.39105,466.42767 c -0.17905,-0.0279 -0.95263,-0.0966 -1.71905,-0.15266 -0.76643,-0.056 -1.48228,-0.1567 -1.59079,-0.22376 -0.23646,-0.14614 0.7509,-3.13879 1.73538,-5.25986 2.11243,-4.55124 5.25909,-7.92524 9.22505,-9.89152 2.9953,-1.48505 5.99972,-2.12009 10.01087,-2.11601 2.19605,0.002 4.65385,0.20071 4.84433,0.39118 0.11614,0.11615 -0.62617,2.37547 -1.34125,4.08225 -2.81429,6.71727 -7.48619,10.95921 -13.78806,12.51912 -2.26697,0.56115 -5.89937,0.88185 -7.37648,0.65126 z"
         id="path13519"
         transform="scale(0.26458333)" /><path
         style="fill:#b2f7ef;fill-opacity:1;stroke:#000000;stroke-width:0;stroke-dasharray:none;stroke-opacity:1"
         d="m 243.51761,491.40485 c -0.76036,-0.0905 -1.40691,-0.18898 -1.43679,-0.21885 -0.0299,-0.0299 0.24662,-0.95441 0.61444,-2.05452 1.2421,-3.71501 3.09593,-6.93555 5.35096,-9.29586 1.66677,-1.74459 3.02529,-2.74387 5.15555,-3.79225 3.01628,-1.48443 6.2416,-2.19594 9.95037,-2.19506 1.75538,4.2e-4 4.76051,0.25897 4.93207,0.42435 0.144,0.13881 -1.15614,3.74111 -1.92715,5.33958 -0.44115,0.91458 -1.26277,2.35407 -1.82584,3.19885 -1.18361,1.77579 -3.66684,4.34991 -5.16622,5.3553 -2.09447,1.40442 -4.72947,2.48847 -7.35089,3.02418 -1.51838,0.31029 -6.42491,0.43701 -8.2965,0.21428 z"
         id="path13521"
         transform="scale(0.26458333)" /><path
         style="fill:#b2f7ef;fill-opacity:1;stroke:#000000;stroke-width:0;stroke-dasharray:none;stroke-opacity:1"
         d="m 487.91245,604.51644 c -39.6541,-3.08858 -72.71366,-23.29546 -100.41987,-61.37929 -10.34597,-14.22115 -20.8415,-33.73735 -27.23793,-50.6483 l -2.40633,-6.3619 0.95016,-2.38583 c 0.71437,-1.79376 0.95752,-3.47127 0.97979,-6.7597 0.0278,-4.09904 -0.80978,-8.74773 -1.57606,-8.74773 -0.18425,0 -1.12136,1.91644 -2.08248,4.25876 -3.90653,9.52055 -6.21311,12.75175 -10.47991,14.68087 -2.15473,0.9742 -3.03292,1.08365 -8.39186,1.04586 -6.35229,-0.0448 -11.67921,-1.12734 -17.88947,-3.63551 l -2.69605,-1.08887 -10.19534,6.61374 -10.19534,6.61373 -0.37587,-1.2378 c -0.51363,-1.69151 0.0215,-16.25397 0.81526,-22.1863 3.74966,-28.02307 15.12115,-43.56139 34.55153,-47.2122 5.82166,-1.09384 15.67423,-0.71022 22.32972,0.86944 9.45468,2.24403 18.94885,6.1349 28.81472,11.80875 17.209,9.89687 36.76294,26.03464 53.23686,43.93612 l 5.47466,5.94908 -3.13222,3.16196 c -1.72272,1.73907 -4.61398,4.18813 -6.42502,5.44234 -3.29909,2.28474 -9.51679,5.51054 -10.62152,5.51054 -1.40621,0 -0.41999,0.82217 1.25584,1.04695 7.09582,0.95174 16.68543,-3.06698 23.34326,-9.78247 13.55334,-13.67074 20.82226,-39.69097 20.86358,-74.68438 0.0134,-11.30686 0.75338,-31.69216 1.39113,-38.32103 2.60276,-27.05336 10.19123,-39.47122 33.9687,-55.58683 3.37398,-2.28677 6.22177,-4.07049 6.32844,-3.96383 0.49358,0.49359 4.06876,12.29056 5.72994,18.90704 7.28869,29.03076 9.88019,67.24079 5.94386,87.63839 -2.68968,13.93759 -9.79077,28.82953 -19.63759,41.18266 -8.40141,10.53982 -21.0457,21.50312 -32.9587,28.57701 -2.91751,1.73241 -3.99092,2.60998 -3.81934,3.12255 0.13125,0.39211 0.50707,1.51434 0.83514,2.49385 0.44836,1.33863 2.07684,3.15412 6.55709,7.31009 17.52417,16.25574 33.86612,27.76113 47.48003,33.42783 1.75417,0.73017 16.81049,9.50692 33.45847,19.50388 l 30.26905,18.17632 -6.48214,3.10598 c -15.78207,7.56213 -33.49002,13.63905 -49.1569,16.86939 -11.35198,2.34067 -28.09965,3.5309 -38.39729,2.72884 z"
         id="path14249"
         transform="scale(0.26458333)" /><path
         style="fill:#b2f7ef;fill-opacity:1;stroke:#000000;stroke-width:0;stroke-dasharray:none;stroke-opacity:1"
         d="m 468.46389,640.85977 c -49.52138,-4.95163 -82.95729,-26.82448 -99.4623,-65.0655 -3.24114,-7.5095 -4.48933,-11.52717 -12.81915,-41.262 -3.93702,-14.05392 -7.96317,-28.39579 -8.94701,-31.87082 l -1.7888,-6.31825 1.4701,-0.48518 c 0.80855,-0.26684 2.39762,-1.07339 3.53125,-1.79232 l 2.06116,-1.30715 1.29691,3.5065 c 6.46273,17.47359 18.44975,39.2339 30.19359,54.81106 23.47425,31.13652 53.21016,51.34632 85.45708,58.08028 15.28629,3.19216 33.15109,3.57502 50.34253,1.0789 19.06936,-2.76879 41.4259,-10.13869 62.70842,-20.67202 l 6.769,-3.35017 8.88483,5.26606 c 4.88666,2.89634 9.05828,5.43682 9.27028,5.64551 0.48011,0.47263 -14.8199,10.68066 -23.17558,15.46254 -21.52783,12.3202 -42.59154,20.80889 -62.742,25.28507 -11.66211,2.59059 -16.8733,3.09721 -33.48302,3.25515 -8.48299,0.0807 -17.28827,-0.0398 -19.56729,-0.26766 z"
         id="path14251"
         transform="scale(0.26458333)" /><path
         style="fill:#b2f7ef;fill-opacity:1;stroke:#000000;stroke-width:0;stroke-dasharray:none;stroke-opacity:1"
         d="m 538.67593,541.8684 c -14.91652,-1.32011 -30.69506,-9.31055 -50.46408,-25.55561 -5.54591,-4.55731 -14.91534,-13.01778 -14.90966,-13.46321 0.002,-0.17357 1.27472,-1.13437 2.82779,-2.1351 1.55307,-1.00074 4.37293,-3.00734 6.26636,-4.45912 l 3.4426,-2.6396 4.20387,3.58163 c 7.61174,6.48508 15.43605,11.96235 23.63685,16.54657 2.22627,1.24447 14.40691,7.08053 27.0681,12.96902 12.66118,5.88849 23.20037,10.86869 23.4204,11.06711 0.53442,0.48195 -6.00875,2.51827 -10.81723,3.36646 -5.14126,0.9069 -9.92516,1.14221 -14.675,0.72185 z"
         id="path14253"
         transform="scale(0.26458333)" /><path
         style="fill:#b2f7ef;fill-opacity:1;stroke:#000000;stroke-width:0;stroke-dasharray:none;stroke-opacity:1"
         d="m 546.73305,517.93533 c -12.37395,-1.92524 -25.04624,-7.20787 -37.9326,-15.81275 -6.14664,-4.10443 -13.99664,-10.14279 -16.04406,-12.34137 l -1.02989,-1.10592 2.1809,-2.11917 2.1809,-2.11918 5.06448,2.02067 c 12.77936,5.09881 31.46715,10.52466 44.19905,12.83284 26.75824,4.85102 44.88966,8.30027 44.88966,8.53963 0,0.55573 -7.20463,4.54772 -11.14341,6.17441 -7.29399,3.01238 -12.41643,4.01004 -21.54547,4.19628 -4.43142,0.0904 -9.30022,-0.029 -10.81956,-0.26544 z"
         id="path14255"
         transform="scale(0.26458333)" /><path
         style="fill:#b2f7ef;fill-opacity:1;stroke:#000000;stroke-width:0;stroke-dasharray:none;stroke-opacity:1"
         d="m 556.69906,493.74534 c -13.95336,-1.68906 -30.87091,-5.99261 -47.83078,-12.16736 -3.45412,-1.25758 -6.47466,-2.48094 -6.7123,-2.71859 -0.4799,-0.47989 4.17669,-6.14692 4.75648,-5.78859 0.42473,0.2625 19.53544,1.8761 30.15204,2.54588 4.30481,0.27157 23.04766,0.61506 41.65079,0.7633 l 33.82388,0.26953 -2.74642,2.48035 c -8.37347,7.5623 -19.38075,12.88881 -30.29181,14.65845 -5.19066,0.84186 -15.65523,0.82214 -22.80188,-0.043 z"
         id="path14257"
         transform="scale(0.26458333)" /><path
         style="fill:#b2f7ef;fill-opacity:1;stroke:#000000;stroke-width:0;stroke-dasharray:none;stroke-opacity:1"
         d="m 546.73305,468.84129 c -11.1795,-0.46086 -34.65586,-2.1909 -35.04772,-2.58277 -0.10685,-0.10685 0.94198,-2.00412 2.33075,-4.21616 1.38876,-2.21205 2.65036,-4.41682 2.80356,-4.8995 0.34472,-1.08611 -0.18635,-0.98513 14.25958,-2.71142 14.69181,-1.75567 28.23789,-3.67601 40.9762,-5.80894 5.3177,-0.89041 10.39368,-1.69433 11.27997,-1.7865 0.88628,-0.0922 12.13305,-2.17988 24.99282,-4.63934 12.85977,-2.45947 23.48987,-4.3633 23.62244,-4.23073 0.3285,0.3285 -2.20746,4.44683 -5.30906,8.62178 -7.21222,9.7081 -17.33976,16.92867 -27.4305,19.55697 -3.91912,1.02081 -11.12024,1.99795 -18.63815,2.52908 -5.97062,0.42181 -25.34495,0.51773 -33.83989,0.16753 z"
         id="path14259"
         transform="scale(0.26458333)" /><path
         style="fill:#b2f7ef;fill-opacity:1;stroke:#000000;stroke-width:0;stroke-dasharray:none;stroke-opacity:1"
         d="m 521.42007,447.63049 c 0.18596,-0.44314 1.05606,-2.7973 1.93355,-5.23146 l 1.59543,-4.42575 16.18668,-4.87799 c 34.516,-10.40168 81.23661,-25.50973 100.44111,-32.47966 4.05158,-1.47045 7.42892,-2.62776 7.50519,-2.57181 0.0763,0.056 -0.78629,1.66628 -1.91682,3.57849 -7.5972,12.85013 -19.63322,23.94501 -31.73274,29.25144 -9.94271,4.36053 -32.08379,9.08273 -63.86515,13.621 -9.07993,1.29658 -29.40108,3.94145 -30.28311,3.94145 -0.11124,0 -0.0501,-0.36257 0.13586,-0.80571 z"
         id="path14261"
         transform="scale(0.26458333)" /><path
         style="fill:#b2f7ef;fill-opacity:1;stroke:#000000;stroke-width:0;stroke-dasharray:none;stroke-opacity:1"
         d="m 526.90706,429.16247 c 0.43086,-1.4068 1.63992,-11.60865 1.63992,-13.83732 v -2.21664 l 14.61791,-6.57783 c 29.52193,-13.2844 64.9211,-29.36773 87.13199,-39.58771 21.33124,-9.81523 77.52461,-33.58566 78.08108,-33.02919 0.42785,0.42785 -4.19505,9.13798 -7.5121,14.15374 -4.30365,6.50761 -7.05844,9.88652 -12.91429,15.8401 -11.10801,11.2934 -24.78719,20.31011 -40.61964,26.77466 -14.18014,5.78989 -64.02376,22.12599 -108.5555,35.57874 -9.50747,2.87214 -12.0508,3.49386 -11.86937,2.90145 z"
         id="path14263"
         transform="scale(0.26458333)" /><path
         style="fill:#b2f7ef;fill-opacity:1;stroke:#000000;stroke-width:0;stroke-dasharray:none;stroke-opacity:1"
         d="m 528.54698,398.0648 c 0,-3.87229 -0.13026,-8.58149 -0.28947,-10.46491 l -0.28947,-3.42439 16.28861,-8.2253 c 69.32307,-35.00625 122.71155,-64.19272 144.13923,-78.7982 3.46678,-2.36302 10.51101,-6.92651 15.65383,-10.14108 5.14283,-3.21457 10.96136,-6.8532 12.93009,-8.08583 4.20448,-2.63246 4.11025,-3.10774 1.15674,5.83387 -5.7353,17.36331 -15.84039,33.06295 -27.67802,43.00155 -7.84753,6.58861 -12.97259,9.28797 -52.10452,27.44337 -23.05335,10.69569 -85.54102,39.12002 -105.31806,47.90698 l -4.48896,1.99446 z"
         id="path14265"
         transform="scale(0.26458333)" /><path
         style="fill:#7bdff2;fill-opacity:1;stroke:#000000;stroke-width:0;stroke-dasharray:none;stroke-opacity:1"
         d="m 526.78143,370.97276 c -0.31291,-2.84877 -1.10463,-8.45219 -1.75938,-12.45206 -0.65475,-3.99987 -1.11361,-7.328 -1.01969,-7.39585 0.0939,-0.0678 6.59343,-3.51172 14.44336,-7.65304 69.49292,-36.66182 129.86309,-72.0665 156.30811,-91.66845 12.58673,-9.32971 31.53548,-22.14381 31.68289,-21.42557 0.27805,1.35476 -4.10598,13.40746 -7.21283,19.82971 -6.68229,13.81318 -15.34728,25.23084 -25.81,34.00924 -4.12835,3.46376 -32.359,21.36608 -45.16115,28.6387 -13.7017,7.78364 -40.99421,22.46339 -66.75898,35.90746 -11.82144,6.16844 -53.60497,27.38944 -53.92899,27.38944 -0.11793,0 -0.47044,-2.33081 -0.78334,-5.17958 z"
         id="path14267"
         transform="scale(0.26458333)" /><path
         style="fill:#7bdff2;fill-opacity:1;stroke:#000000;stroke-width:0;stroke-dasharray:none;stroke-opacity:1"
         d="m 520.72256,337.80674 c -0.82533,-3.34601 -2.57325,-9.321 -3.88426,-13.27776 l -2.38367,-7.19409 2.0968,-1.26989 c 4.39642,-2.66262 18.4674,-10.6479 37.31792,-21.17794 48.93465,-27.33525 85.11812,-49.31521 133.74817,-81.24648 9.11605,-5.98574 21.62177,-14.35343 27.79048,-18.59486 6.1687,-4.24143 11.33649,-7.59103 11.48398,-7.44355 0.3413,0.3413 -2.33882,9.66567 -4.35613,15.15535 -2.40251,6.53794 -7.53381,16.48602 -12.01947,23.30221 -3.10642,4.72036 -5.11443,7.18659 -8.34761,10.2525 -13.50434,12.8057 -48.55384,35.17428 -103.87016,66.28991 -18.85212,10.60438 -37.67301,20.82999 -71.87763,39.05193 l -4.19783,2.23632 z"
         id="path15064"
         transform="scale(0.26458333)" /><path
         style="fill:#7bdff2;fill-opacity:1;stroke:#000000;stroke-width:0;stroke-dasharray:none;stroke-opacity:1"
         d="m 528.47024,395.25922 c -0.0422,-5.19109 -0.094,-9.77226 -0.1151,-10.18037 -0.0267,-0.51553 2.91301,-2.25281 9.63018,-5.69124 5.3177,-2.72207 19.09537,-9.77225 30.61705,-15.66707 57.78552,-29.56473 95.20074,-50.30547 120.39637,-66.74047 16.21454,-10.57667 30.59865,-19.52666 30.89934,-19.22597 0.5263,0.52631 -4.11407,13.15636 -7.14184,19.43847 -8.44599,17.52398 -19.06887,29.70238 -32.72538,37.51741 -8.96809,5.13203 -34.57178,17.17564 -93.70283,44.07642 -30.882,14.04931 -57.22688,25.91116 -57.54806,25.91116 -0.12814,0 -0.26752,-4.24726 -0.30973,-9.43834 z"
         id="path15066"
         transform="scale(0.26458333)" /><path
         style="fill:#7bdff2;fill-opacity:1;stroke:#000000;stroke-width:0;stroke-dasharray:none;stroke-opacity:1"
         d="m 527.31594,428.0632 c 0.31622,-1.31024 1.1997,-9.51191 1.34859,-12.51948 l 0.11265,-2.27542 15.19343,-6.85983 c 8.35638,-3.77291 29.79982,-13.50521 47.6521,-21.62735 45.16341,-20.54772 54.77588,-24.85337 71.36305,-31.9652 27.31682,-11.71222 44.6017,-18.77182 44.99598,-18.37755 0.69898,0.69899 -7.62516,14.47919 -12.54369,20.76546 -3.63536,4.64628 -14.02922,14.82816 -18.88855,18.50335 -13.58815,10.27691 -23.35632,15.03602 -49.24527,23.99259 -26.32649,9.10794 -96.96446,31.39935 -99.49961,31.39935 -0.53318,0 -0.66913,-0.2882 -0.48868,-1.03592 z"
         id="path15068"
         transform="scale(0.26458333)" /><path
         style="fill:#7bdff2;fill-opacity:1;stroke:#000000;stroke-width:0;stroke-dasharray:none;stroke-opacity:1"
         d="m 521.66858,447.69407 c 0.0152,-0.22489 0.79217,-2.45984 1.72653,-4.96657 l 1.69882,-4.55768 17.72566,-5.39104 c 33.7587,-10.26728 70.47776,-22.10377 93.84077,-30.24983 6.15877,-2.1474 11.31172,-3.7904 11.45101,-3.65112 0.35075,0.35076 -1.78446,3.9477 -5.03257,8.47776 -7.28794,10.1643 -18.58931,19.52481 -28.51481,23.61775 -11.70067,4.82497 -36.59066,9.78606 -74.73705,14.89665 -15.13006,2.02702 -18.19296,2.3347 -18.15836,1.82408 z"
         id="path15070"
         transform="scale(0.26458333)" /><path
         style="fill:#7bdff2;fill-opacity:1;stroke:#000000;stroke-width:0;stroke-dasharray:none;stroke-opacity:1"
         d="m 537.98532,468.21107 c -13.26565,-0.86945 -25.33943,-1.90539 -25.62661,-2.19879 -0.23092,-0.23593 4.45427,-8.75799 5.25527,-9.55899 0.0838,-0.0838 6.04831,-0.88896 13.25449,-1.78926 26.61939,-3.32568 44.5012,-6.13795 74.79664,-11.76327 28.76768,-5.34164 26.25205,-4.98459 25.53826,-3.62478 -3.35671,6.39473 -11.87199,15.90931 -17.74586,19.82842 -7.21657,4.81496 -12.53864,6.79492 -22.29521,8.29443 -5.46751,0.84032 -8.68104,0.97028 -26.70359,1.0799 -11.26846,0.0685 -23.18148,-0.0519 -26.47339,-0.26766 z"
         id="path15072"
         transform="scale(0.26458333)" /><path
         style="fill:#7bdff2;fill-opacity:1;stroke:#000000;stroke-width:0;stroke-dasharray:none;stroke-opacity:1"
         d="m 553.17874,493.03675 c -7.49535,-1.12412 -16.48064,-3.10101 -24.99589,-5.49944 -6.34766,-1.78791 -20.58013,-6.50455 -24.17048,-8.0101 l -1.74448,-0.73152 0.81598,-1.38134 c 0.44879,-0.75973 1.44861,-1.99451 2.22183,-2.74394 l 1.40585,-1.36261 7.11936,0.67127 c 18.60599,1.75432 27.20359,2.10559 61.84688,2.52691 19.46474,0.23673 35.47948,0.51945 35.58831,0.62828 0.34468,0.34468 -4.53776,4.41411 -8.40939,7.00908 -6.85068,4.59169 -15.73095,8.16748 -23.35752,9.40529 -4.84089,0.78568 -19.57989,0.49904 -26.32045,-0.51188 z"
         id="path15074"
         transform="scale(0.26458333)" /><path
         style="fill:#7bdff2;fill-opacity:1;stroke:#000000;stroke-width:0;stroke-dasharray:none;stroke-opacity:1"
         d="m 542.12898,516.85532 c -13.1783,-3.14027 -25.39031,-9.10446 -39.07492,-19.08366 -3.00588,-2.19196 -6.69946,-5.1249 -8.20797,-6.51763 l -2.74275,-2.53224 2.06317,-2.009 2.06318,-2.00901 4.99378,1.95834 c 17.52253,6.87155 30.62696,10.32513 59.32178,15.63387 10.88862,2.01447 21.84033,4.08343 24.33714,4.59768 2.4968,0.51425 4.67223,0.94147 4.83427,0.94937 1.27172,0.062 -9.16421,5.4485 -13.74504,7.09447 -6.15542,2.21174 -8.84573,2.60335 -19.33983,2.81515 -9.22626,0.1862 -10.21153,0.12524 -14.50281,-0.89734 z"
         id="path15076"
         transform="scale(0.26458333)" /><path
         style="fill:#7bdff2;fill-opacity:1;stroke:#000000;stroke-width:0;stroke-dasharray:none;stroke-opacity:1"
         d="m 536.15297,541.38556 c -12.07319,-1.75814 -26.03174,-8.52081 -40.8995,-19.81509 -5.4,-4.1021 -13.81358,-11.22629 -18.06773,-15.29883 -3.12492,-2.99152 -3.54548,-3.56902 -2.88881,-3.96683 0.42271,-0.25608 3.19408,-2.23606 6.1586,-4.39996 l 5.39002,-3.93437 2.12873,1.79132 c 10.0537,8.46016 19.67703,15.10456 27.99664,19.3302 2.99186,1.5196 12.1732,5.91974 20.40297,9.77808 26.99209,12.65462 27.47108,12.89515 26.62924,13.37237 -1.40891,0.79866 -9.32228,2.69445 -13.26536,3.17794 -4.50466,0.55236 -9.64305,0.53919 -13.5848,-0.0348 z"
         id="path15078"
         transform="scale(0.26458333)" /><path
         style="fill:#7bdff2;fill-opacity:1;stroke:#000000;stroke-width:0;stroke-dasharray:none;stroke-opacity:1"
         d="m 486.41976,604.24716 c -0.75967,-0.1073 -3.86742,-0.52915 -6.9061,-0.93745 -9.48131,-1.274 -20.44803,-4.28093 -29.85101,-8.18476 -22.15403,-9.19766 -43.12234,-26.6881 -61.0501,-50.92414 -10.40458,-14.06567 -21.02519,-33.54983 -27.98235,-51.33536 l -2.52137,-6.44569 0.84953,-2.53224 c 1.37635,-4.10253 0.94885,-15.00685 -0.60869,-15.52603 -0.26797,-0.0893 -1.58166,2.27978 -2.91932,5.26468 -2.98537,6.66164 -5.14448,10.00375 -7.72749,11.96144 -2.87936,2.18229 -4.94958,2.59335 -11.60591,2.30447 -5.90589,-0.25632 -10.96145,-1.31612 -16.80621,-3.52311 l -2.7638,-1.04361 -9.89738,6.43655 c -5.44357,3.5401 -10.05278,6.34774 -10.2427,6.23919 -0.18992,-0.10854 -0.34353,-3.03389 -0.34137,-6.50077 0.017,-27.25174 7.33883,-47.585 20.52249,-56.99266 6.61483,-4.72024 13.21845,-6.62424 22.98202,-6.62632 10.54799,-0.002 18.56272,1.8175 30.46039,6.91606 19.98456,8.56407 44.12832,27.10552 66.16006,50.8083 l 4.65947,5.01287 -4.1913,3.96506 c -4.33595,4.10192 -9.99959,7.82488 -14.33116,9.42052 -2.95222,1.08751 -2.63702,1.74065 0.98502,2.04102 7.36146,0.61047 17.84065,-4.49119 24.09594,-11.73081 10.216,-11.82355 16.57952,-31.01969 18.51386,-55.84875 0.2466,-3.16529 0.57041,-11.86698 0.71958,-19.33708 0.69559,-34.83417 1.78132,-46.02525 5.56107,-57.32064 4.30355,-12.86071 12.8216,-22.63104 29.85347,-34.24238 3.01823,-2.05765 5.6251,-3.74118 5.79303,-3.74118 0.37416,0 3.59783,10.29241 5.47973,17.49545 2.79964,10.71569 5.06485,23.88338 6.81145,39.59499 1.02617,9.23089 1.16315,38.05126 0.21117,44.42925 -3.07602,20.60854 -13.70437,40.4357 -30.15091,56.24646 -7.02183,6.75038 -11.54034,10.35079 -19.99045,15.92863 -3.93977,2.60061 -7.0212,4.94161 -7.0212,5.33409 0,2.03018 2.27752,5.01694 7.75761,10.17337 14.77729,13.90453 29.33291,24.54 42.42673,31.00025 8.38585,4.13743 16.13263,8.59054 45.03028,25.88493 l 23.07918,13.8122 -5.39441,2.63017 c -19.80413,9.65595 -42.94233,16.81071 -61.56404,19.03672 -5.68272,0.6793 -25.13801,1.27249 -28.08481,0.85631 z"
         id="path15080"
         transform="scale(0.26458333)" /><path
         style="fill:#7bdff2;fill-opacity:1;stroke:#000000;stroke-width:0;stroke-dasharray:none;stroke-opacity:1"
         d="m 437.51742,474.24424 -7.92613,-8.18041 0.49739,-4.32485 c 1.47918,-12.86167 -1.43933,-37.16045 -8.12309,-67.63078 -3.29796,-15.0349 -4.24148,-20.08273 -5.29064,-28.30476 -2.90661,-22.77854 -2.26537,-44.08345 1.88903,-62.76221 l 0.95199,-4.2803 1.78775,1.05745 c 0.98326,0.5816 4.22718,2.75417 7.20871,4.82794 15.66436,10.89517 29.12973,23.96292 37.29642,36.1951 l 3.0139,4.51427 -1.8549,4.00325 c -2.51791,5.43415 -3.12152,7.1168 -4.43975,12.37637 -2.85687,11.39859 -3.47795,19.31864 -3.96474,50.55896 -0.47635,30.571 -0.9188,35.72735 -4.1826,48.74425 -1.52057,6.06443 -3.61046,11.78653 -6.07963,16.64592 -2.79805,5.50662 -1.80939,5.82203 -10.78371,-3.4402 z"
         id="path15082"
         transform="scale(0.26458333)" /><path
         style="fill:#7bdff2;fill-opacity:1;stroke:#000000;stroke-width:0;stroke-dasharray:none;stroke-opacity:1"
         d="m 460.71922,322.70737 -4.98224,-5.54583 5.48281,-8.37306 c 8.16173,-12.46418 12.25465,-19.5025 17.60959,-30.28203 4.62172,-9.30355 14.83214,-26.36105 15.28984,-25.54317 0.1968,0.35166 0.92245,2.67774 1.61257,5.16908 1.12932,4.07689 1.25577,5.28912 1.2649,12.12642 0.0112,8.3823 -0.47822,11.07043 -3.18524,17.49546 -4.11697,9.77149 -15.3419,26.72239 -24.77171,37.40805 -1.50838,1.70926 -2.87656,3.10395 -3.0404,3.09933 -0.16384,-0.005 -2.53989,-2.50405 -5.28012,-5.55425 z"
         id="path15084"
         transform="scale(0.26458333)" /><path
         style="fill:#7bdff2;fill-opacity:1;stroke:#000000;stroke-width:0;stroke-dasharray:none;stroke-opacity:1"
         d="m 444.84155,307.81826 c -2.86333,-2.37034 -5.313,-4.41665 -5.4437,-4.54735 -0.1307,-0.1307 1.09892,-2.6913 2.73249,-5.69022 6.85656,-12.58736 14.11646,-27.97427 18.97356,-40.2133 2.38692,-6.01461 13.41484,-31.22375 13.89134,-31.75474 0.62661,-0.69825 3.86344,8.92707 4.79516,14.25928 1.21564,6.95708 0.63818,15.63806 -1.47558,22.18263 -2.05398,6.35945 -11.37134,24.16379 -18.99077,36.28903 -3.0616,4.8721 -9.00911,13.81987 -9.17162,13.7983 -0.0576,-0.008 -2.44754,-1.95329 -5.31088,-4.32363 z"
         id="path15086"
         transform="scale(0.26458333)" /><path
         style="fill:#7bdff2;fill-opacity:1;stroke:#000000;stroke-width:0;stroke-dasharray:none;stroke-opacity:1"
         d="m 427.78636,295.35653 c -2.87442,-1.86914 -5.334,-3.50622 -5.46573,-3.63795 -0.13172,-0.13173 7.91761,-21.16902 17.88741,-46.74953 l 18.12691,-46.51002 1.08457,2.86569 c 1.52413,4.02705 2.77764,10.35511 3.1213,15.75707 0.86138,13.54015 -4.00385,30.16125 -16.67071,56.95217 -3.60085,7.61595 -11.86548,23.68327 -12.55087,24.40022 -0.16867,0.17644 -2.65846,-1.20851 -5.53288,-3.07765 z"
         id="path15088"
         transform="scale(0.26458333)" /><path
         style="fill:#7bdff2;fill-opacity:1;stroke:#000000;stroke-width:0;stroke-dasharray:none;stroke-opacity:1"
         d="m 471.91075,336.77855 -1.42964,-2.0779 1.29343,-1.53124 c 0.71138,-0.84218 2.62978,-3.066 4.2631,-4.94183 4.9321,-5.66438 12.16484,-15.71731 17.13466,-23.8158 7.98355,-13.00949 15.49556,-24.52861 15.73902,-24.13467 0.86919,1.40637 1.76605,9.07625 1.54729,13.23221 -0.55203,10.4873 -5.22884,18.94343 -13.59425,24.57979 -8.61889,5.80713 -17.0012,12.93139 -21.32151,18.12147 l -2.20246,2.64588 z"
         id="path15090"
         transform="scale(0.26458333)" /><path
         style="fill:#7bdff2;fill-opacity:1;stroke:#000000;stroke-width:0;stroke-dasharray:none;stroke-opacity:1"
         d="m 467.31288,640.56046 c -46.43304,-5.14068 -78.12529,-24.78416 -95.29656,-59.0667 -5.30055,-10.58257 -5.90741,-12.45488 -18.20336,-56.16202 -5.76781,-20.50222 -7.92841,-28.82272 -7.51981,-28.95892 0.31533,-0.10511 1.81537,-0.84956 3.33342,-1.65434 l 2.76009,-1.46323 2.67773,6.7112 c 5.49755,13.77848 16.22886,33.55289 24.94633,45.96818 8.17178,11.63812 19.63858,24.40267 29.52111,32.86213 22.6501,19.38853 46.92644,30.0233 74.5859,32.67395 7.98453,0.76516 26.82747,0.26886 34.76071,-0.91557 20.32839,-3.03502 39.93421,-9.39311 62.23492,-20.18253 l 8.13712,-3.93687 8.78283,5.22628 c 4.83055,2.87445 8.78282,5.38167 8.78282,5.5716 0,0.87649 -15.15653,10.88521 -24.71029,16.31762 -7.17484,4.07972 -22.38569,11.45049 -29.70613,14.3948 -16.93316,6.81057 -35.27139,11.47471 -49.09227,12.48612 -5.56543,0.40727 -32.60422,0.50365 -35.99456,0.1283 z"
         id="path15092"
         transform="scale(0.26458333)" /><path
         style="fill:#7bdff2;fill-opacity:1;stroke:#000000;stroke-width:0;stroke-dasharray:none;stroke-opacity:1"
         d="m 689.42161,667.6196 c -4.53738,-2.9749 -23.9957,-15.82736 -43.2407,-28.56102 -19.245,-12.73365 -36.90736,-24.39381 -39.24968,-25.91147 -4.25148,-2.75465 -4.7685,-3.27297 -3.68325,-3.69249 0.31653,-0.12236 3.00678,-1.99812 5.97833,-4.16835 l 5.40282,-3.94588 50.2079,30.0586 50.20791,30.0586 -4.96598,3.48215 c -2.73129,1.91518 -6.64033,4.51864 -8.68677,5.78546 l -3.72079,2.3033 z"
         id="path15094"
         transform="scale(0.26458333)" /><path
         style="fill:#7bdff2;fill-opacity:1;stroke:#000000;stroke-width:0;stroke-dasharray:none;stroke-opacity:1"
         d="m 669.84545,682.64676 c -1.87365,-1.34119 -22.00132,-15.54952 -44.72815,-31.57407 -22.72683,-16.02455 -41.31573,-29.27464 -41.30867,-29.44465 0.0256,-0.61751 11.60492,-7.04222 12.24768,-6.79558 0.36353,0.13951 8.57895,5.49111 18.25648,11.89246 9.67753,6.40135 30.77479,20.33831 46.88279,30.97103 l 29.28729,19.33221 -3.50451,1.8049 c -2.95069,1.51967 -13.25532,6.25222 -13.61355,6.25222 -0.062,0 -1.64571,-1.09733 -3.51936,-2.43852 z"
         id="path15096"
         transform="scale(0.26458333)" /><path
         style="fill:#7bdff2;fill-opacity:1;stroke:#000000;stroke-width:0;stroke-dasharray:none;stroke-opacity:1"
         d="m 603.12517,662.44961 c -21.64639,-16.72854 -39.39616,-30.54742 -39.44392,-30.70862 -0.0478,-0.16121 2.70563,-1.63269 6.11866,-3.26998 5.52881,-2.65225 6.31092,-2.91105 7.17203,-2.37328 1.32199,0.8256 87.07029,61.2987 87.541,61.73738 0.66357,0.61843 -13.3785,3.98126 -19.95116,4.77796 l -2.07953,0.25207 z"
         id="path15098"
         transform="scale(0.26458333)" /><path
         style="fill:#ffffff;fill-opacity:1;stroke:#000000;stroke-width:0;stroke-dasharray:none;stroke-opacity:1"
         d="m 624.772,692.59884 c -13.15736,-2.14855 -25.5587,-6.99048 -36.14194,-14.1111 -6.86642,-4.61988 -11.22626,-8.655 -26.70744,-24.71827 -6.64941,-6.89943 -10.90629,-10.42991 -15.60098,-12.93882 l -2.71344,-1.4501 5.91856,-2.20679 c 3.25521,-1.21374 6.13372,-2.07732 6.3967,-1.91907 0.58971,0.35486 73.51209,56.67705 74.12019,57.24733 0.43627,0.40913 -2.97542,0.47179 -5.27165,0.0968 z"
         id="path15100"
         transform="scale(0.26458333)" /><path
         style="fill:#7bdff2;fill-opacity:1;stroke:#000000;stroke-width:0;stroke-dasharray:none;stroke-opacity:1"
         d="m 460.86718,639.40304 c -1.01289,-0.2386 -5.15655,-1.0588 -9.20813,-1.82267 -34.07723,-6.42474 -60.92462,-24.26924 -76.07109,-50.56173 -4.61658,-8.01383 -8.13483,-16.2947 -11.14981,-26.24319 -2.89985,-9.56862 -14.51019,-50.75819 -16.6441,-59.04768 l -1.33348,-5.18008 2.92006,-1.39248 2.92007,-1.39248 2.1452,5.65175 c 3.44797,9.08399 14.50191,30.15515 21.19021,40.39306 25.24521,38.64332 58.06303,62.60833 96.42884,70.41655 6.33272,1.28883 12.12478,1.63406 26.09518,1.55535 15.58201,-0.0878 19.50427,-0.42253 29.66797,-2.53185 14.72981,-3.05694 30.36128,-8.16668 43.99712,-14.38212 5.82414,-2.65474 12.28029,-5.47783 14.34699,-6.27353 l 3.75763,-1.44672 7.96639,4.88536 c 4.38151,2.68695 7.70992,5.30034 7.39646,5.80753 -1.50907,2.44175 -21.86326,14.60517 -36.69032,21.92572 -16.67658,8.23371 -31.63117,13.8094 -46.96149,17.5092 -7.27012,1.75457 -11.39546,2.03465 -33.6097,2.28194 -13.9273,0.15504 -26.1511,0.0866 -27.164,-0.15193 z"
         id="path15240"
         transform="scale(0.26458333)" /><path
         style="fill:#7bdff2;fill-opacity:1;stroke:#000000;stroke-width:0;stroke-dasharray:none;stroke-opacity:1"
         d="m 616.47861,690.65798 c -18.49656,-4.85199 -27.8397,-10.80516 -47.87624,-30.5053 -8.60961,-8.46506 -17.61799,-16.62332 -20.01863,-18.12947 l -4.36481,-2.73845 5.52079,-2.01298 c 3.03643,-1.10714 6.01235,-1.70917 6.61316,-1.33785 1.65764,1.02447 70.06272,53.80764 71.60908,55.25545 1.15936,1.08548 0.90125,1.2553 -1.84163,1.21171 -1.75448,-0.0279 -6.09325,-0.81229 -9.64172,-1.74311 z"
         id="path15242"
         transform="scale(0.26458333)" /><path
         style="fill:#ffffff;fill-opacity:1;stroke:#000000;stroke-width:0;stroke-dasharray:none;stroke-opacity:1"
         d="m 455.3423,638.53758 c -26.69532,-4.8825 -48.89844,-15.74655 -64.25672,-31.44102 -9.97842,-10.19684 -16.9014,-20.55163 -22.23237,-33.25326 -2.41164,-5.74598 -13.25012,-42.4835 -19.30122,-65.42231 l -3.12903,-11.8617 2.86308,-1.35593 2.86308,-1.35593 3.80647,8.95775 c 11.79626,27.76007 27.85947,51.55665 47.52238,70.40126 20.35163,19.50467 41.07816,30.82224 67.05775,36.61642 11.44749,2.55312 40.01857,2.72514 52.94678,0.31879 17.74101,-3.30216 36.08802,-9.39185 54.69403,-18.15389 5.26578,-2.47979 10.18694,-4.50871 10.93591,-4.50871 2.20095,0 16.80423,9.34944 16.18025,10.35906 -1.50907,2.44175 -21.86326,14.60517 -36.69032,21.92572 -16.67995,8.23538 -32.2239,14.03272 -47.16825,17.59209 -6.95625,1.6568 -11.60386,1.96663 -33.40294,2.22677 -19.3344,0.23074 -27.06433,-0.0164 -32.68888,-1.04511 z"
         id="path15451"
         transform="scale(0.26458333)" /><path
         style="fill:#ffffff;fill-opacity:1;stroke:#000000;stroke-width:0;stroke-dasharray:none;stroke-opacity:1"
         d="m 526.39108,364.87085 c -0.84129,-5.94992 -1.52912,-11.46337 -1.52849,-12.25211 6.8e-4,-0.8579 3.0533,-3.04453 7.59785,-5.44241 73.60537,-38.83716 131.20488,-72.54464 163.67461,-95.78309 18.51028,-13.24773 29.46603,-20.43751 29.46603,-19.33726 0,0.5386 -1.46403,4.77013 -3.2534,9.4034 -5.28521,13.68516 -12.04691,24.64159 -21.66383,35.10334 -12.95426,14.09228 -56.82726,39.75139 -146.43702,85.64366 l -26.32611,13.48252 z"
         id="path15453"
         transform="scale(0.26458333)" /><path
         style="fill:#ffffff;fill-opacity:1;stroke:#000000;stroke-width:0;stroke-dasharray:none;stroke-opacity:1"
         d="m 528.29671,422.5108 c 0.28148,-3.21347 0.82366,-6.6714 1.20484,-7.68429 0.90798,-2.41275 113.15533,-53.42286 161.29569,-73.29983 8.45926,-3.4928 15.60708,-6.35055 15.88403,-6.35055 1.19759,0 0.14358,2.03128 -5.76004,11.10066 -11.94481,18.35008 -30.68904,33.83724 -51.67403,42.69493 -15.54555,6.56172 -107.85617,36.82923 -118.29574,38.78771 l -3.16654,0.59405 z"
         id="path15455"
         transform="scale(0.26458333)" /><path
         style="fill:#ffffff;fill-opacity:1;stroke:#000000;stroke-width:0;stroke-dasharray:none;stroke-opacity:1"
         d="m 529.46779,467.25689 c -1.26612,-0.17246 -5.50293,-0.57557 -9.41514,-0.89579 l -7.11311,-0.58222 2.29435,-4.52768 c 1.26189,-2.49022 2.57,-4.52768 2.9069,-4.52768 0.33691,0 9.96394,-1.26004 21.39341,-2.80008 23.12734,-3.11626 38.73522,-5.64189 68.56382,-11.09483 11.08721,-2.02685 20.77056,-3.56254 21.51856,-3.41266 0.95494,0.19136 -0.17414,2.23198 -3.79107,6.85172 -8.08023,10.32052 -16.20411,16.05414 -27.53236,19.43163 -3.88679,1.15883 -10.84662,1.48178 -35.67607,1.65542 -16.96599,0.11865 -31.88317,0.0746 -33.14929,-0.0978 z"
         id="path15457"
         transform="scale(0.26458333)" /><path
         style="fill:#ffffff;fill-opacity:1;stroke:#000000;stroke-width:0;stroke-dasharray:none;stroke-opacity:1"
         d="m 540.80493,516.0889 c -13.50371,-3.63837 -27.33048,-10.78462 -40.55441,-20.96019 -7.5709,-5.82568 -8.00562,-6.45884 -5.80313,-8.45206 1.72199,-1.55838 1.98843,-1.55971 5.75183,-0.0288 15.6365,6.36067 31.9206,10.60511 64.04252,16.69265 13.97093,2.64768 23.1388,4.79248 22.9509,5.36931 -0.51045,1.56706 -13.97315,6.96485 -19.7178,7.90573 -7.59941,1.24466 -21.0841,0.97839 -26.66991,-0.52662 z"
         id="path15459"
         transform="scale(0.26458333)" /><path
         style="fill:#ffffff;fill-opacity:1;stroke:#000000;stroke-width:0;stroke-dasharray:none;stroke-opacity:1"
         d="m 445.19647,307.45835 c -2.52295,-2.07715 -4.73093,-3.91289 -4.90662,-4.07942 -0.17569,-0.16654 2.97238,-6.85797 6.99571,-14.86985 4.02333,-8.01188 11.78681,-25.02979 17.25218,-37.81759 5.46537,-12.7878 10.23349,-23.25054 10.59582,-23.25054 0.36232,0 1.60021,3.17124 2.75085,7.04719 1.74256,5.86984 2.02009,8.52355 1.6612,15.88404 -0.5106,10.47162 -3.03255,17.05529 -13.73774,35.86305 -5.77764,10.15062 -15.16546,24.99975 -15.80519,24.99975 -0.12046,0 -2.28325,-1.69948 -4.80621,-3.77663 z"
         id="path15461"
         transform="scale(0.26458333)" /><path
         style="fill:#ffffff;fill-opacity:1;stroke:#000000;stroke-width:0;stroke-dasharray:none;stroke-opacity:1"
         d="m 472.35975,336.63183 c -1.47654,-1.47654 -1.15444,-2.09397 4.72635,-9.05993 5.00586,-5.92958 11.783,-15.80502 27.25252,-39.7116 l 4.6981,-7.26044 0.64405,6.01402 c 1.55718,14.5407 -2.8275,23.6414 -15.95689,33.11965 -4.28575,3.09392 -10.64271,8.36496 -14.12659,11.71341 -4.14059,3.97964 -6.64714,5.7753 -7.23754,5.18489 z"
         id="path15463"
         transform="scale(0.26458333)" /></g></g></svg>
